<?xml version="1.0" encoding="UTF-8"?>
<svg width="28px" height="28px" viewBox="0 0 28 28" version="1.1" xmlns="http://www.w3.org/2000/svg" xmlns:xlink="http://www.w3.org/1999/xlink">
    <!-- Generator: Sketch 41.2 (35397) - http://www.bohemiancoding.com/sketch -->
    <title>Toolbar Button Drag</title>
    <desc>Created with Sketch.</desc>
    <defs></defs>
    <g id="General" stroke="none" stroke-width="1" fill="none" fill-rule="evenodd">
        <g id="Export" transform="translate(-164.000000, -276.000000)" fill="#000000">
            <path d="M185.127893,289.821732 L185.026843,289.670525 L183.138214,287.803856 C182.95406,287.621844 182.653793,287.621844 182.47059,287.803856 C182.286436,287.985869 182.286436,288.281734 182.47059,288.463717 L183.552782,289.533326 L178.554518,289.533326 L178.554518,284.59321 L179.63671,285.662818 C179.819913,285.844831 180.12021,285.844831 180.304334,285.662818 C180.487537,285.480806 180.487537,285.184941 180.304334,285.002958 L178.415704,283.13626 L178.41098,283.13347 L178.262718,283.036414 L178.082368,283 L178.080466,283 L177.901988,283.036414 L177.753726,283.13347 L177.748051,283.13626 L175.859421,285.002928 C175.675268,285.184941 175.675268,285.480806 175.859421,285.662789 C176.043575,285.844772 176.342921,285.844801 176.527045,285.662789 L177.610188,284.59318 L177.610188,289.533326 L172.611953,289.533326 L173.694146,288.463717 C173.878299,288.281705 173.878299,287.985839 173.694146,287.803856 C173.509992,287.621873 173.210646,287.621844 173.026522,287.803856 L171.137863,289.670525 L171.13504,289.675194 L171.036843,289.821732 L171,290.000015 L171,290.001894 L171.036843,290.178297 L171.13504,290.323896 L171.137863,290.329505 L173.026492,292.196173 C173.210646,292.378185 173.509992,292.378185 173.694116,292.196173 C173.878269,292.015101 173.878269,291.718295 173.694116,291.536312 L172.611953,290.466674 L177.610218,290.466674 L177.610218,295.40682 L176.528026,294.337211 C176.343872,294.156138 176.044526,294.156138 175.860402,294.337211 C175.676248,294.519223 175.676248,294.815999 175.860402,294.997072 L177.749031,296.86374 L177.902017,296.964526 L178.080496,297 L178.082398,297 L178.262748,296.963586 L178.415734,296.863711 L180.304363,294.997042 C180.487566,294.81503 180.487566,294.518254 180.304363,294.337182 C180.12021,294.155169 179.819943,294.155169 179.63674,294.337182 L178.554547,295.40679 L178.554547,290.466674 L183.552812,290.466674 L182.47062,291.536283 C182.287417,291.717356 182.287417,292.014161 182.47062,292.196144 C182.654773,292.377216 182.955041,292.377216 183.138243,292.196144 L185.026873,290.329475 L185.128844,290.178268 L185.164736,290.001865 L185.164736,289.999985 L185.127893,289.821732 L185.127893,289.821732 Z" id="Shape"></path>
        </g>
    </g>
</svg>