<?xml version="1.0" encoding="UTF-8"?>
<svg width="36px" height="36px" viewBox="0 0 36 36" version="1.1" xmlns="http://www.w3.org/2000/svg" xmlns:xlink="http://www.w3.org/1999/xlink">
    <!-- Generator: Sketch 41.2 (35397) - http://www.bohemiancoding.com/sketch -->
    <title>Nav Settings</title>
    <desc>Created with Sketch.</desc>
    <defs></defs>
    <g id="General" stroke="none" stroke-width="1" fill="none" fill-rule="evenodd">
        <g id="Export" transform="translate(-96.000000, -119.000000)" fill="#000000">
            <path d="M114.666667,137.095333 L114.666667,129 L113.333333,129 L113.333333,137.095333 C112.185333,137.392 111.333333,138.426 111.333333,139.666667 C111.333333,140.907333 112.185333,141.941333 113.333333,142.238 L113.333333,145 L114.666667,145 L114.666667,142.238 C115.815333,141.941333 116.666667,140.907333 116.666667,139.666667 C116.666667,138.426 115.815333,137.392 114.666667,137.095333 L114.666667,137.095333 Z M114,141 C113.264,141 112.666667,140.402667 112.666667,139.666667 C112.666667,138.930667 113.264,138.333333 114,138.333333 C114.736,138.333333 115.333333,138.930667 115.333333,139.666667 C115.333333,140.402667 114.736,141 114,141 L114,141 Z M109.333333,131.094667 L109.333333,129 L108,129 L108,131.094667 C106.852,131.392 106,132.426 106,133.666667 C106,134.907333 106.852,135.941333 108,136.238667 L108,145 L109.333333,145 L109.333333,136.238667 C110.481333,135.941333 111.333333,134.907333 111.333333,133.666667 C111.333333,132.426 110.481333,131.392 109.333333,131.094667 L109.333333,131.094667 Z M108.666667,135 C107.930667,135 107.333333,134.402667 107.333333,133.666667 C107.333333,132.930667 107.930667,132.333333 108.666667,132.333333 C109.402667,132.333333 110,132.930667 110,133.666667 C110,134.402667 109.402667,135 108.666667,135 L108.666667,135 Z M120,131.094667 L120,129 L118.666667,129 L118.666667,131.094667 C117.518,131.392 116.666667,132.426 116.666667,133.666667 C116.666667,134.907333 117.518,135.941333 118.666667,136.238667 L118.666667,145 L120,145 L120,136.238667 C121.148667,135.941333 122,134.907333 122,133.666667 C122,132.426 121.148667,131.392 120,131.094667 L120,131.094667 Z M119.333333,135 C118.597333,135 118,134.402667 118,133.666667 C118,132.930667 118.597333,132.333333 119.333333,132.333333 C120.069333,132.333333 120.666667,132.930667 120.666667,133.666667 C120.666667,134.402667 120.069333,135 119.333333,135 L119.333333,135 Z" id="Settings"></path>
        </g>
    </g>
</svg>