<?xml version="1.0" encoding="UTF-8"?>
<svg width="36px" height="36px" viewBox="0 0 36 36" version="1.1" xmlns="http://www.w3.org/2000/svg" xmlns:xlink="http://www.w3.org/1999/xlink">
    <!-- Generator: Sketch 41.2 (35397) - http://www.bohemiancoding.com/sketch -->
    <title>Nav Preview</title>
    <desc>Created with Sketch.</desc>
    <defs></defs>
    <g id="General" stroke="none" stroke-width="1" fill="none" fill-rule="evenodd" stroke-linecap="round">
        <g id="Export" transform="translate(-234.000000, -119.000000)" stroke="#000000" stroke-width="1.5">
            <g id="Eye" transform="translate(240.000000, 131.000000)">
                <path d="M24,6.37531915 L21.6408511,8.7227234 C21.6107234,8.75234043 21.5790638,8.78144681 21.546383,8.80902128 C16.0141277,13.4282553 7.96034043,13.4129362 2.44442553,8.76459574 L0.663829787,7.26382979 C0.0878297872,6.7787234 0.0888510638,5.89123404 0.66587234,5.40714894" id="Path"></path>
                <path d="M18.780766,6.12765957 C19.2061277,5.20953191 19.4440851,4.18621277 19.4440851,3.10723404 C19.4440851,2.88612766 19.4302979,2.66757447 19.4108936,2.45157447 C15.0178723,-0.090893617 9.61991489,-0.201191489 5.13957447,2.12119149 C5.09514894,2.44442553 5.06451064,2.77225532 5.06451064,3.10723404 C5.06451064,4.18570213 5.30144681,5.208 5.72680851,6.12612766 C6.86757447,8.58893617 9.36153191,10.2970213 12.2542979,10.2970213 C15.1460426,10.2970213 17.6394894,8.58944681 18.780766,6.12765957 L18.780766,6.12765957 Z" id="Path"></path>
                <path d="M11.1645957,3.76085106 C11.1645957,4.72340426 10.3843404,5.50417021 9.42178723,5.50417021 C8.45923404,5.50417021 7.67897872,4.72340426 7.67897872,3.76085106 C7.67897872,2.79829787 8.45923404,2.01804255 9.42178723,2.01804255 C10.3843404,2.01804255 11.1645957,2.79829787 11.1645957,3.76085106 L11.1645957,3.76085106 Z" id="Path"></path>
                <path d="M0.66587234,5.40714894 L2.42297872,3.93344681 C7.93276596,-0.688851064 15.9589787,-0.701106383 21.4820426,3.89617021 C21.5137021,3.9227234 21.5448511,3.95080851 21.5744681,3.98042553 L24,6.37531915" id="Path"></path>
            </g>
        </g>
    </g>
</svg>