<?xml version="1.0" encoding="UTF-8"?>
<svg width="36px" height="36px" viewBox="0 0 36 36" version="1.1" xmlns="http://www.w3.org/2000/svg" xmlns:xlink="http://www.w3.org/1999/xlink">
    <!-- Generator: Sketch 41.2 (35397) - http://www.bohemiancoding.com/sketch -->
    <title>Nav Help</title>
    <desc>Created with Sketch.</desc>
    <defs></defs>
    <g id="General" stroke="none" stroke-width="1" fill="none" fill-rule="evenodd">
        <g id="Export" transform="translate(-142.000000, -119.000000)" fill="#000000">
            <path d="M158.569832,140.888268 L160.067039,140.888268 L160.067039,139.927374 C160.067039,136.977654 164.067039,136.664804 164.067039,132.955307 C164.067039,130.631285 162.145251,129 159.597765,129 C158.212291,129 156.804469,129.558659 156,130.273743 L156.849162,131.391061 C157.586592,130.832402 158.592179,130.452514 159.530726,130.452514 C161.251397,130.452514 162.458101,131.592179 162.458101,133.022346 C162.458101,135.994413 158.569832,136.329609 158.569832,139.882682 L158.569832,140.888268 Z M158.435754,145 L160.201117,145 L160.201117,143.234637 L158.435754,143.234637 L158.435754,145 Z" id="Help"></path>
        </g>
    </g>
</svg>