<?xml version="1.0" encoding="UTF-8"?>
<svg width="36px" height="36px" viewBox="0 0 36 36" version="1.1" xmlns="http://www.w3.org/2000/svg" xmlns:xlink="http://www.w3.org/1999/xlink">
    <!-- Generator: Sketch 41.2 (35397) - http://www.bohemiancoding.com/sketch -->
    <title>Type Match</title>
    <desc>Created with Sketch.</desc>
    <defs></defs>
    <g id="General" stroke="none" stroke-width="1" fill="none" fill-rule="evenodd" stroke-linejoin="round">
        <g id="Export" transform="translate(-868.000000, -118.000000)" stroke="#000000">
            <g id="68---Success-Message-(Outline)" transform="translate(873.000000, 123.000000)">
                <path d="M15.6896552,21.0689655 L9.86206897,21.0689655 L15.6896552,21.0689655 Z" id="Path" stroke-linecap="round"></path>
                <path d="M17.9310345,22.862069 L7.62068966,22.862069 L17.9310345,22.862069 Z" id="Path" stroke-linecap="round"></path>
                <path d="M0,0 L26,0 L26,26 L0,26 L0,0 Z M4.03448276,2.68965517 C4.03448276,3.43244828 3.43244828,4.03448276 2.68965517,4.03448276 C1.94686207,4.03448276 1.34482759,3.43244828 1.34482759,2.68965517 C1.34482759,1.94686207 1.94686207,1.34482759 2.68965517,1.34482759 C3.43244828,1.34482759 4.03448276,1.94686207 4.03448276,2.68965517 L4.03448276,2.68965517 Z M8.06896552,2.68965517 C8.06896552,3.43244828 7.46693103,4.03448276 6.72413793,4.03448276 C5.98134483,4.03448276 5.37931034,3.43244828 5.37931034,2.68965517 C5.37931034,1.94686207 5.98134483,1.34482759 6.72413793,1.34482759 C7.46693103,1.34482759 8.06896552,1.94686207 8.06896552,2.68965517 L8.06896552,2.68965517 Z M12.1034483,2.68965517 C12.1034483,3.43244828 11.5014138,4.03448276 10.7586207,4.03448276 C10.0158276,4.03448276 9.4137931,3.43244828 9.4137931,2.68965517 C9.4137931,1.94686207 10.0158276,1.34482759 10.7586207,1.34482759 C11.5014138,1.34482759 12.1034483,1.94686207 12.1034483,2.68965517 L12.1034483,2.68965517 Z M0,0 L26,0 L26,5.37931034 L0,5.37931034 L0,0 Z" id="Stroke-80"></path>
                <path d="M18.3793103,13.4482759 C18.3793103,16.419 15.9707241,18.8275862 13,18.8275862 C10.0292759,18.8275862 7.62068966,16.419 7.62068966,13.4482759 C7.62068966,10.4775517 10.0292759,8.06896552 13,8.06896552 C15.9707241,8.06896552 18.3793103,10.4775517 18.3793103,13.4482759 L18.3793103,13.4482759 Z" id="Path" stroke-linecap="round"></path>
                <path d="M10.7586207,13.4482759 L12.5517241,15.2413793 L10.7586207,13.4482759 Z" id="Path" stroke-linecap="round"></path>
                <path d="M12.5517241,15.2413793 L15.6896552,12.1034483 L12.5517241,15.2413793 Z" id="Path" stroke-linecap="round"></path>
            </g>
        </g>
    </g>
</svg>