<?xml version="1.0" encoding="UTF-8"?>
<svg width="36px" height="36px" viewBox="0 0 36 36" version="1.1" xmlns="http://www.w3.org/2000/svg" xmlns:xlink="http://www.w3.org/1999/xlink">
    <!-- Generator: Sketch 41.2 (35397) - http://www.bohemiancoding.com/sketch -->
    <title>Type Trivia</title>
    <desc>Created with Sketch.</desc>
    <defs></defs>
    <g id="General" stroke="none" stroke-width="1" fill="none" fill-rule="evenodd" stroke-linecap="round" stroke-linejoin="round">
        <g id="Export" transform="translate(-730.000000, -118.000000)" stroke="#050505">
            <g id="12---Puzzle-(Outline)" transform="translate(735.000000, 123.000000)">
                <path d="M11.2068966,16.5862069 C11.8967931,16.5862069 12.523931,16.848 13,17.2752069 L13,14.0036897 C13,13.2017241 12.35,12.5517241 11.5480345,12.5517241 L8.20972414,12.5517241 C8.93503448,12.0698276 9.4137931,11.2463448 9.4137931,10.3103448 C9.4137931,8.82475862 8.20972414,7.62068966 6.72413793,7.62068966 C5.23855172,7.62068966 4.03448276,8.82475862 4.03448276,10.3103448 C4.03448276,11.2463448 4.51324138,12.0698276 5.23855172,12.5517241 L1.45196552,12.5517241 C0.65,12.5517241 0,13.2017241 0,14.0036897 L0,17.7902759 C0.481896552,17.0649655 1.30537931,16.5862069 2.24137931,16.5862069 C3.72696552,16.5862069 4.93103448,17.7902759 4.93103448,19.2758621 C4.93103448,20.7614483 3.72696552,21.9655172 2.24137931,21.9655172 C1.30537931,21.9655172 0.481896552,21.4867586 0,20.7614483 L0,24.0997586 C0,24.9017241 0.65,25.5517241 1.45196552,25.5517241 L11.5480345,25.5517241 C12.35,25.5517241 13,24.9017241 13,24.0997586 L13,21.2765172 C12.523931,21.7037241 11.8967931,21.9655172 11.2068966,21.9655172 C9.72131034,21.9655172 8.51724138,20.7614483 8.51724138,19.2758621 C8.51724138,17.7902759 9.72131034,16.5862069 11.2068966,16.5862069 L11.2068966,16.5862069 Z M12.0281379,6.44844828 C12.7749655,6.66765517 13.5442069,6.47893103 14.0987241,6.01272414 C14.0525517,6.17141379 14.0108621,6.31217241 13.9781379,6.4237931 L13.2115862,9.03455172 C13.0233103,9.67424138 13.3895517,10.3453103 14.0296897,10.5331379 L16.6933448,11.3153793 C16.0016552,11.5301034 15.4265172,12.0752069 15.2073103,12.8220345 C14.859,14.0072759 15.5376897,15.2503448 16.7233793,15.5986552 C17.9086207,15.9465172 19.1516897,15.2678276 19.4995517,14.0825862 C19.7192069,13.3357586 19.5300345,12.5665172 19.0642759,12.012 L22.0856552,12.8995862 C22.7257931,13.0874138 23.3964138,12.7211724 23.5846897,12.0814828 L24.4718276,9.05965517 C23.9177586,9.52541379 23.148069,9.71458621 22.4012414,9.49493103 C21.216,9.14706897 20.5373103,7.904 20.8856207,6.71875862 C21.2334828,5.53306897 22.477,4.85482759 23.6622414,5.20268966 C24.409069,5.42234483 24.9537241,5.99703448 25.1684483,6.68872414 L25.9506897,4.02506897 C26.1385172,3.38537931 25.7722759,2.71431034 25.1325862,2.52648276 L17.0761724,0.160034483 C16.4364828,-0.0277931034 15.7654138,0.338448276 15.5775862,0.978137931 L14.915931,3.23117241 C14.880069,3.35265517 14.8392759,3.49251724 14.7953448,3.64224138 C14.5806207,2.95055172 14.0359655,2.37541379 13.2891379,2.1562069 C12.1034483,1.80789655 10.8603793,2.48658621 10.5125172,3.67182759 C10.1642069,4.85706897 10.8428966,6.10013793 12.0281379,6.44844828 L12.0281379,6.44844828 Z" id="Stroke-151"></path>
            </g>
        </g>
    </g>
</svg>