<?xml version="1.0" encoding="UTF-8"?>
<svg width="36px" height="36px" viewBox="0 0 36 36" version="1.1" xmlns="http://www.w3.org/2000/svg" xmlns:xlink="http://www.w3.org/1999/xlink">
    <!-- Generator: Sketch 41.2 (35397) - http://www.bohemiancoding.com/sketch -->
    <title>Type Polls</title>
    <desc>Created with Sketch.</desc>
    <defs></defs>
    <g id="General" stroke="none" stroke-width="1" fill="none" fill-rule="evenodd">
        <g id="Export" transform="translate(-776.000000, -118.000000)">
            <g id="91---Graph-(Outline)" transform="translate(780.000000, 125.000000)">
                <path d="M0,22.6153846 L28,22.6153846" id="Stroke-535" stroke="#000000" stroke-linecap="round"></path>
                <path d="M10.4690385,1.70617348 C10.4690385,2.05351971 10.7458508,2.33542389 11.0869232,2.33542389 C11.4279955,2.33542389 11.7048078,2.05351971 11.7048078,1.70617348 C11.7048078,1.35882726 11.4279955,1.07692308 11.0869232,1.07692308 C10.7458508,1.07692308 10.4690385,1.35882726 10.4690385,1.70617348 Z M10.4690385,5.48167592 C10.4690385,5.82902215 10.7458508,6.11092633 11.0869232,6.11092633 C11.4279955,6.11092633 11.7048078,5.82902215 11.7048078,5.48167592 C11.7048078,5.1343297 11.4279955,4.85242552 11.0869232,4.85242552 C10.7458508,4.85242552 10.4690385,5.1343297 10.4690385,5.48167592 Z M8.61538462,3.5939247 C8.61538462,3.94127093 8.89219693,4.22317511 9.23326925,4.22317511 C9.57434157,4.22317511 9.85115389,3.94127093 9.85115389,3.5939247 C9.85115389,3.24657848 9.57434157,2.9646743 9.23326925,2.9646743 C8.89219693,2.9646743 8.61538462,3.24657848 8.61538462,3.5939247 Z M8.61538462,7.36942715 C8.61538462,7.71677337 8.89219693,7.99867755 9.23326925,7.99867755 C9.57434157,7.99867755 9.85115389,7.71677337 9.85115389,7.36942715 C9.85115389,7.02208092 9.57434157,6.74017674 9.23326925,6.74017674 C8.89219693,6.74017674 8.61538462,7.02208092 8.61538462,7.36942715 Z M12.3226924,3.5939247 C12.3226924,3.94127093 12.5995047,4.22317511 12.9405771,4.22317511 C13.2816494,4.22317511 13.5584617,3.94127093 13.5584617,3.5939247 C13.5584617,3.24657848 13.2816494,2.9646743 12.9405771,2.9646743 C12.5995047,2.9646743 12.3226924,3.24657848 12.3226924,3.5939247 Z M12.3226924,7.36942715 C12.3226924,7.71677337 12.5995047,7.99867755 12.9405771,7.99867755 C13.2816494,7.99867755 13.5584617,7.71677337 13.5584617,7.36942715 C13.5584617,7.02208092 13.2816494,6.74017674 12.9405771,6.74017674 C12.5995047,6.74017674 12.3226924,7.02208092 12.3226924,7.36942715 Z M10.4690385,9.25717837 C10.4690385,9.60452459 10.7458508,9.88642877 11.0869232,9.88642877 C11.4279955,9.88642877 11.7048078,9.60452459 11.7048078,9.25717837 C11.7048078,8.90983214 11.4279955,8.62792796 11.0869232,8.62792796 C10.7458508,8.62792796 10.4690385,8.90983214 10.4690385,9.25717837 Z M10.4690385,13.0326808 C10.4690385,13.380027 10.7458508,13.6619312 11.0869232,13.6619312 C11.4279955,13.6619312 11.7048078,13.380027 11.7048078,13.0326808 C11.7048078,12.6853346 11.4279955,12.4034304 11.0869232,12.4034304 C10.7458508,12.4034304 10.4690385,12.6853346 10.4690385,13.0326808 Z M8.61538462,11.1449296 C8.61538462,11.4922758 8.89219693,11.77418 9.23326925,11.77418 C9.57434157,11.77418 9.85115389,11.4922758 9.85115389,11.1449296 C9.85115389,10.7975834 9.57434157,10.5156792 9.23326925,10.5156792 C8.89219693,10.5156792 8.61538462,10.7975834 8.61538462,11.1449296 Z M8.61538462,14.920432 C8.61538462,15.2677783 8.89219693,15.5496824 9.23326925,15.5496824 C9.57434157,15.5496824 9.85115389,15.2677783 9.85115389,14.920432 C9.85115389,14.5730858 9.57434157,14.2911816 9.23326925,14.2911816 C8.89219693,14.2911816 8.61538462,14.5730858 8.61538462,14.920432 Z M12.3226924,11.1449296 C12.3226924,11.4922758 12.5995047,11.77418 12.9405771,11.77418 C13.2816494,11.77418 13.5584617,11.4922758 13.5584617,11.1449296 C13.5584617,10.7975834 13.2816494,10.5156792 12.9405771,10.5156792 C12.5995047,10.5156792 12.3226924,10.7975834 12.3226924,11.1449296 Z M12.3226924,14.920432 C12.3226924,15.2677783 12.5995047,15.5496824 12.9405771,15.5496824 C13.2816494,15.5496824 13.5584617,15.2677783 13.5584617,14.920432 C13.5584617,14.5730858 13.2816494,14.2911816 12.9405771,14.2911816 C12.5995047,14.2911816 12.3226924,14.5730858 12.3226924,14.920432 Z M10.4690385,16.8081832 C10.4690385,17.1555295 10.7458508,17.4374337 11.0869232,17.4374337 C11.4279955,17.4374337 11.7048078,17.1555295 11.7048078,16.8081832 C11.7048078,16.460837 11.4279955,16.1789328 11.0869232,16.1789328 C10.7458508,16.1789328 10.4690385,16.460837 10.4690385,16.8081832 Z M10.4690385,20.5836857 C10.4690385,20.9310319 10.7458508,21.2129361 11.0869232,21.2129361 C11.4279955,21.2129361 11.7048078,20.9310319 11.7048078,20.5836857 C11.7048078,20.2363395 11.4279955,19.9544353 11.0869232,19.9544353 C10.7458508,19.9544353 10.4690385,20.2363395 10.4690385,20.5836857 Z M8.61538462,18.6959345 C8.61538462,19.0432807 8.89219693,19.3251849 9.23326925,19.3251849 C9.57434157,19.3251849 9.85115389,19.0432807 9.85115389,18.6959345 C9.85115389,18.3485882 9.57434157,18.0666841 9.23326925,18.0666841 C8.89219693,18.0666841 8.61538462,18.3485882 8.61538462,18.6959345 Z M12.3226924,18.6959345 C12.3226924,19.0432807 12.5995047,19.3251849 12.9405771,19.3251849 C13.2816494,19.3251849 13.5584617,19.0432807 13.5584617,18.6959345 C13.5584617,18.3485882 13.2816494,18.0666841 12.9405771,18.0666841 C12.5995047,18.0666841 12.3226924,18.3485882 12.3226924,18.6959345 Z" id="Combined-Shape" fill="#000000"></path>
                <polygon id="Stroke-641" stroke="#000000" stroke-linecap="round" points="15.0769231 22.6153846 19.9045093 22.6153846 19.9045093 15.0769231 15.0769231 15.0769231"></polygon>
                <polygon id="Stroke-643" stroke="#000000" stroke-linecap="round" points="21.5384615 22.6153846 26.3660477 22.6153846 26.3660477 10.7692308 21.5384615 10.7692308"></polygon>
                <polygon id="Stroke-645" stroke="#000000" stroke-linecap="round" points="2.15384615 22.4983278 6.98143236 22.4983278 6.98143236 4.30769231 2.15384615 4.30769231"></polygon>
                <polygon id="Stroke-647" stroke="#000000" stroke-linecap="round" points="8.61538462 22.6153846 13.4429708 22.6153846 13.4429708 0 8.61538462 0"></polygon>
            </g>
        </g>
    </g>
</svg>