<?xml version="1.0" encoding="UTF-8"?>
<svg width="36px" height="36px" viewBox="0 0 36 36" version="1.1" xmlns="http://www.w3.org/2000/svg" xmlns:xlink="http://www.w3.org/1999/xlink">
    <!-- Generator: Sketch 41.2 (35397) - http://www.bohemiancoding.com/sketch -->
    <title>Type Personality</title>
    <desc>Created with Sketch.</desc>
    <defs></defs>
    <g id="General" stroke="none" stroke-width="1" fill="none" fill-rule="evenodd" stroke-linecap="round" stroke-linejoin="round">
        <g id="Export" transform="translate(-684.000000, -118.000000)">
            <g id="155---Wolverine-(Outline)" transform="translate(691.000000, 124.000000)">
                <path d="M9.325,21.5 L13.325,21.5" id="Stroke-340" stroke="#070707"></path>
                <polygon id="Stroke-342" stroke="#020202" points="8.5 14 7.987 14.849 7.2325 16.112 3.4305 12.7325"></polygon>
                <path d="M3,0 C3,0 -3.7455,16.2 4.186,17 C4.8465,17.0665 5.507,17.136 6.158,17.2665 L9.0865,17.852 C9.559,17.9465 10,17.585 10,17.103 L10,12.7445 C10,12.368 9.7285,12.0475 9.3565,11.9915 C9.3565,11.9915 3.1875,11.6875 3,0 L3,0 Z" id="Stroke-348" stroke="#020202"></path>
                <polygon id="Stroke-350" stroke="#020202" points="13.825 14 14.3375 14.849 15.092 16.112 18.894 12.7325"></polygon>
                <path d="M19.325,0 C19.325,0 26.07,16.2 18.139,17 C17.4785,17.0665 16.818,17.136 16.167,17.2665 L13.2385,17.852 C12.766,17.9465 12.325,17.585 12.325,17.103 L12.325,12.7445 C12.325,12.368 12.596,12.0475 12.968,11.9915 C12.968,11.9915 19.1375,11.6875 19.325,0 L19.325,0 Z" id="Stroke-352" stroke="#020202"></path>
                <path d="M16.5,19.106 L16.5,22.184 C16.5,22.335 16.656,22.4355 16.7915,22.368 C17.655,21.9385 20.204,19.9575 21.259,16.067 C21.354,15.7165 21.2835,15.773 21,16 L16.587,18.939 C16.5325,18.9775 16.5,19.0395 16.5,19.106 L16.5,19.106 Z" id="Stroke-354" stroke="#020202"></path>
                <path d="M5.5,19.106 L5.5,22.184 C5.5,22.335 5.344,22.4355 5.2085,22.368 C4.345,21.9385 1.796,19.9575 0.741,16.067 C0.646,15.7165 0.7165,15.773 1,16 L5.413,18.939 C5.4675,18.9775 5.5,19.0395 5.5,19.106 L5.5,19.106 Z" id="Stroke-356" stroke="#020202"></path>
                <path d="M18.139,17 C17.478,17.0665 16.818,17.136 16.167,17.2665 L13.2385,17.852 C12.766,17.9465 12.325,17.585 12.325,17.103 L12.325,12.7445 C12.325,12.368 12.596,12.0475 12.968,11.9915 C12.968,11.9915 16.5685,11.8075 18.351,6.5085 C16.457,4.6495 13.864,3.5 11,3.5 C8.2575,3.5 5.7685,4.56 3.898,6.282 C5.6525,11.805 9.3565,11.9915 9.3565,11.9915 C9.7285,12.0475 10,12.368 10,12.7445 L10,17.103 C10,17.585 9.559,17.9465 9.0865,17.852 L6.158,17.2665 C5.507,17.136 4.8465,17.0665 4.186,17 C1.997,16.779 0.9295,15.3825 0.526,13.48 C0.518,13.6535 0.5,13.8245 0.5,14 C0.5,19.799 5.201,24.5 11,24.5 C16.608,24.5 21.1755,20.1 21.4715,14.566 C20.9195,15.899 19.886,16.8235 18.139,17 L18.139,17 Z" id="Stroke-358" stroke="#070707"></path>
                <polyline id="Stroke-360" stroke="#020202" points="12.5 17.589 11.194 19.2915 9.8875 17.5"></polyline>
            </g>
        </g>
    </g>
</svg>