<?xml version="1.0" encoding="UTF-8"?>
<svg width="36px" height="36px" viewBox="0 0 36 36" version="1.1" xmlns="http://www.w3.org/2000/svg" xmlns:xlink="http://www.w3.org/1999/xlink">
    <!-- Generator: Sketch 41.2 (35397) - http://www.bohemiancoding.com/sketch -->
    <title>Type Flip Cards</title>
    <desc>Created with Sketch.</desc>
    <defs></defs>
    <g id="General" stroke="none" stroke-width="1" fill="none" fill-rule="evenodd">
        <g id="Export" transform="translate(-822.000000, -118.000000)" stroke="#050505">
            <g id="18---Cards-(Outline)" transform="translate(826.000000, 124.000000)">
                <path d="M16.604,17.4787037 C14.266,15.0148148 13.2393333,12.9398148 12.8655333,11.4634259 C12.4282667,9.73888889 13.608,7.63194444 15.3673333,7.28888889 C17.4346667,6.88611111 18.4893333,8.80740741 18.4893333,8.80740741 C18.4893333,8.80740741 20.2486667,7.48842593 21.9650667,8.70092593 C23.4257333,9.73287037 23.625,12.1347222 22.5101333,13.5273148 C21.5558,14.7194444 19.7582,16.1902778 16.604,17.4787037 L16.604,17.4787037 Z" id="Path"></path>
                <path d="M8.7332,21.6662037 L22.0350667,24.5125 C22.6212,24.637963 23.1989333,24.2680556 23.3254,23.6865741 L27.5254,4.36990741 C27.6518667,3.78842593 27.279,3.21527778 26.6928667,3.08981481 L13.3914667,0.243518519 C12.8053333,0.118055556 12.2276,0.4875 12.1011333,1.06898148 L7.90113333,20.3861111 C7.77466667,20.9675926 8.14706667,21.5407407 8.7332,21.6662037 L8.7332,21.6662037 Z M8.7332,21.6662037 C8.14706667,21.5407407 7.77466667,20.9675926 7.90113333,20.3861111 L11.809,2.41203704 L4.43193333,1.39907407 C3.83833333,1.31759259 3.29,1.72916667 3.20786667,2.31851852 L0.476933333,21.8930556 C0.3948,22.4824074 0.809666667,23.0263889 1.40373333,23.1078704 L14.8829333,24.9583333 C15.477,25.0398148 16.0248667,24.6282407 16.1074667,24.0388889 L16.2148,23.2671296 L8.7332,21.6662037 L8.7332,21.6662037 Z M10.8350667,6.89166667 C10.6792,6.74212963 10.5186667,6.59166667 10.3511333,6.43981481 C7.30286667,7.95925926 5.62146667,9.55925926 4.76,10.8185185 C3.75293333,12.2902778 4.13326667,14.6708333 5.6672,15.5912037 C7.18386667,16.5009259 8.5918,15.624537 9.002,15.3226852 L10.8350667,6.89166667 L10.8350667,6.89166667 Z" id="Stroke-149"></path>
            </g>
        </g>
    </g>
</svg>