<?xml version="1.0" encoding="UTF-8" standalone="no"?><!DOCTYPE svg PUBLIC "-//W3C//DTD SVG 1.1//EN" "http://www.w3.org/Graphics/SVG/1.1/DTD/svg11.dtd"><svg width="100%" height="100%" viewBox="0 0 126 79" version="1.1" xmlns="http://www.w3.org/2000/svg" xmlns:xlink="http://www.w3.org/1999/xlink" xml:space="preserve" style="fill-rule:evenodd;clip-rule:evenodd;stroke-linejoin:round;stroke-miterlimit:1.41421;"><path d="M125.429,74.213c0,2.308 -1.873,4.179 -4.181,4.179l-117.069,0c-2.308,0 -4.179,-1.871 -4.179,-4.179l0,-70.034c0,-2.308 1.871,-4.179 4.179,-4.179l117.069,0c2.308,0 4.181,1.871 4.181,4.179l0,70.034Z" style="fill:#006d91;fill-rule:nonzero;"/><path d="M38.916,37.371l0,-1.254l-0.6,1.254l-5.193,0l-0.653,-1.346l0,1.346l-9.707,0l-1.146,-2.715l-1.945,0l-1.215,2.715l-5.033,0l0,-8.195l3.689,-8.348l7.064,0l0.993,2.365l0,-2.348l8.638,0l1.901,3.983l1.859,-4l27.273,0c0,0 1.43,-0.02 2.372,0.642l-0.006,-0.642l6.871,0l0,0.904c0,0 1.236,-0.904 3.062,-0.904c1.826,0 12.125,0 12.125,0l1.065,2.4l0,-2.4l7.769,0l1.41,2.4l0,-2.4l7.428,0l0,16.558l-7.631,0l-1.793,-2.886l0,2.871l-9.484,0l-1.334,-2.957l-1.859,0l-1.25,2.957l-5.741,0c0,0 -2.14,-0.028 -3.746,-1.176c0,0.602 0,1.176 0,1.176l-11.427,0c0,0 0,-3.301 0,-3.863c0,-0.561 -0.43,-0.522 -0.43,-0.522l-0.418,0l0,4.385l-22.908,0Z" style="fill:#e1dfd8;fill-rule:nonzero;"/><path d="M33.213,40.957l15.015,0l2.168,2.453l2.217,-2.453l11.545,0c0,0 1.084,0.027 2.113,0.576l0,-0.576c0,0 8.979,0 10.281,0c1.305,0 2.401,0.652 2.401,0.652l0,-0.652l13.215,0l0,0.601c0,0 0.941,-0.601 2.207,-0.601c1.263,0 8.609,0 8.609,0l0,0.601c0,0 1.084,-0.601 2.231,-0.601c1.148,0 6.759,0 6.759,0l0,15.603c0,0 -0.888,1.006 -2.726,1.006l-8.912,0l0,-0.496c0,0 -0.848,0.496 -2.141,0.496c-1.291,0 -23.674,0 -23.674,0c0,0 0,-3.633 0,-4.033c0,-0.397 -0.172,-0.469 -0.525,-0.469l-0.326,0l0,4.502l-7.399,0l0,-4.474c0,0 -0.82,0.441 -2.191,0.441c-1.369,0 -2.66,0 -2.66,0l0,4.033l-9.119,0l-2.075,-2.531l-2.218,2.531l-14.795,0l0,-16.609Z" style="fill:#e1dfd8;fill-rule:nonzero;"/><path d="M80.539,43.447l9.424,0l0,2.527l-6.539,0l0,2.203l6.355,0l0,2.227l-6.355,0l0,2.318l6.539,0l0,2.465l-9.424,0l0,-11.74Z" style="fill:#006d91;fill-rule:nonzero;"/><path d="M108.168,48.021c3.541,0.182 3.837,1.951 3.837,3.838c0,2.199 -1.808,3.381 -3.695,3.381l-6.055,0l0,-2.518l4.717,0c0.801,0 1.993,0 1.993,-1.127c0,-0.535 -0.21,-0.877 -1.061,-0.966c-0.379,-0.055 -1.779,-0.133 -1.992,-0.137c-3.199,-0.084 -3.946,-1.676 -3.946,-3.613c0,-2.202 1.547,-3.405 3.436,-3.405l6.053,0l0,2.516l-4.43,0c-1.008,0.01 -2.096,-0.119 -2.096,1.02c0,0.72 0.537,0.865 1.219,0.931c0.236,0 1.809,0.082 2.02,0.08Z" style="fill:#006d91;fill-rule:nonzero;"/><path d="M97.314,48.021c3.543,0.182 3.84,1.951 3.84,3.838c0,2.199 -1.807,3.381 -3.695,3.381l-6.053,0l0,-2.518l4.717,0c0.799,0 1.992,0 1.992,-1.127c0,-0.535 -0.211,-0.877 -1.063,-0.966c-0.378,-0.055 -1.781,-0.133 -1.99,-0.137c-3.203,-0.084 -3.943,-1.676 -3.943,-3.613c0,-2.202 1.545,-3.405 3.432,-3.405l6.052,0l0,2.516l-4.427,0c-1.01,0.01 -2.098,-0.119 -2.098,1.02c0,0.72 0.539,0.865 1.221,0.931c0.234,0 1.806,0.082 2.015,0.08Z" style="fill:#006d91;fill-rule:nonzero;"/><path d="M62.168,48.81l-3.59,0l0,-2.818l3.601,0c1.207,0 1.588,0.773 1.588,1.35c0,0.787 -0.42,1.468 -1.599,1.468Zm-6.498,5.276l-4.141,-4.901l4.141,-4.586l0,9.487Zm-11.018,-1.364l-6.647,0l0,-2.318l6.358,0l0,-2.227l-6.358,0l0,-2.203l7.01,0.016l2.807,3.195l-3.17,3.537Zm18.486,-9.25l-10.115,0l-3.303,3.643l-3.195,-3.668l-11.361,0l0,11.74l10.992,0l3.461,-3.879l3.379,3.907l5.531,0l0,-3.987l3.877,0c1.494,0 4.221,-0.051 4.221,-4.166c0,-2.935 -2.071,-3.59 -3.487,-3.59Z" style="fill:#006d91;fill-rule:nonzero;"/><path d="M74.574,48.652l-3.59,0l0,-2.66l3.602,0c1.205,0 1.586,0.773 1.586,1.35c0,0.785 -0.418,1.31 -1.598,1.31Zm2.488,1.215c1.574,-0.785 1.992,-1.834 1.992,-3.25c0,-2.514 -2.043,-3.143 -3.459,-3.143l-7.494,0l0,11.741l2.883,0l0,-4.143l3.774,0c0.996,0 1.388,0.996 1.414,1.992l0.076,2.151l2.806,0l-0.105,-2.413c0,-1.888 -0.522,-2.779 -1.887,-2.935Z" style="fill:#006d91;fill-rule:nonzero;"/><rect x="69.255" y="23.179" width="2.883" height="11.754" style="fill:#006d91;fill-rule:nonzero;"/><path d="M45.66,23.193l9.42,0l0,2.527l-6.537,0l0,2.204l6.353,0l0,2.226l-6.353,0l0,2.318l6.537,0l0,2.465l-9.42,0l0,-11.74Z" style="fill:#006d91;fill-rule:nonzero;"/><path d="M63.263,28.371l-3.589,0l0,-2.66l3.603,0c1.203,0 1.586,0.773 1.586,1.349c0,0.787 -0.42,1.311 -1.6,1.311Zm2.491,1.215c1.574,-0.784 1.992,-1.834 1.992,-3.25c0,-2.516 -2.045,-3.143 -3.459,-3.143l-7.496,0l0,11.74l2.883,0l0,-4.14l3.773,0c0.996,0 1.391,0.994 1.416,1.99l0.078,2.15l2.805,0l-0.104,-2.412c0,-1.886 -0.525,-2.777 -1.888,-2.935Z" style="fill:#006d91;fill-rule:nonzero;"/><path d="M18.703,29.779l1.719,-4.103l1.791,4.103l-3.51,0Zm20.308,-6.586l-3.537,7.875l-3.525,-7.875l-4.52,0l0,11.307l-5.031,-11.307l-3.814,0l-5.137,11.74l3.041,0l1.125,-2.621l5.754,0l1.141,2.621l5.802,0l0,-8.715l3.854,8.715l2.621,0l3.943,-8.57l0,8.57l2.883,0l0,-11.74l-4.6,0Z" style="fill:#006d91;fill-rule:nonzero;"/><path d="M84.177,29.785l1.717,-4.104l1.809,4.104l-3.526,0Zm17.706,-6.598l0,8.129l-4.862,-8.129l-4.26,0l0,11.026l-4.91,-11.02l-3.814,0l-3.971,9.094c0,0 -1.678,0 -1.848,-0.041c-0.693,-0.143 -1.779,-0.633 -1.792,-2.703l0,-0.852c0,-2.752 1.494,-2.953 3.41,-2.953l1.779,0l0,-2.551l-3.764,0c-1.31,0 -4.162,1 -4.258,5.823c-0.066,3.25 1.35,5.929 4.547,5.929l3.801,0l1.125,-2.621l5.752,0l1.141,2.621l5.687,0l0,-8.597l5.188,8.597l3.931,0l0,-11.752l-2.882,0Z" style="fill:#006d91;fill-rule:nonzero;"/></svg>