<?xml version="1.0" encoding="UTF-8" standalone="no"?><!DOCTYPE svg PUBLIC "-//W3C//DTD SVG 1.1//EN" "http://www.w3.org/Graphics/SVG/1.1/DTD/svg11.dtd"><svg width="100%" height="100%" viewBox="0 0 126 79" version="1.1" xmlns="http://www.w3.org/2000/svg" xmlns:xlink="http://www.w3.org/1999/xlink" xml:space="preserve" style="fill-rule:evenodd;clip-rule:evenodd;stroke-linejoin:round;stroke-miterlimit:1.41421;"><path d="M125.43,74.212c0,2.309 -1.87,4.18 -4.18,4.18l-117.07,0c-2.31,0 -4.18,-1.871 -4.18,-4.18l0,-70.03c0,-2.311 1.87,-4.182 4.18,-4.182l117.07,0c2.31,0 4.18,1.871 4.18,4.182l0,70.03Z" style="fill:#2b456c;fill-rule:nonzero;"/><path d="M70.1,39.196c0,12.41 -10.06,22.469 -22.47,22.469c-12.4,0 -22.46,-10.059 -22.46,-22.469c0,-12.408 10.06,-22.468 22.46,-22.468c12.41,0 22.47,10.06 22.47,22.468Z" style="fill:#0d70a6;fill-rule:nonzero;"/><path d="M77.8,16.728c-5.8,0 -11.1,2.202 -15.08,5.815c-0.81,0.736 -1.57,1.532 -2.27,2.377l4.54,0c0.62,0.755 1.19,1.549 1.71,2.38l-7.96,0c-0.48,0.765 -0.92,1.558 -1.3,2.38l10.55,0c0.36,0.771 0.68,1.564 0.96,2.379l-12.46,0c-0.26,0.776 -0.48,1.568 -0.65,2.379l13.76,0c0.33,1.533 0.5,3.126 0.5,4.758c0,2.495 -0.4,4.895 -1.15,7.138l-12.46,0c0.27,0.814 0.59,1.608 0.95,2.379l10.55,0c-0.38,0.821 -0.81,1.615 -1.29,2.379l-7.96,0c0.52,0.831 1.09,1.625 1.71,2.378l4.54,0c-0.7,0.848 -1.46,1.645 -2.27,2.38c3.98,3.613 9.28,5.815 15.08,5.815c12.41,0 22.47,-10.059 22.47,-22.469c0,-12.408 -10.06,-22.468 -22.47,-22.468Z" style="fill:#008bbc;fill-rule:nonzero;"/><path d="M97.9,51.677l0.08,0c0.03,0 0.07,0.003 0.09,-0.012c0.03,-0.015 0.04,-0.045 0.04,-0.074c0,-0.024 -0.01,-0.051 -0.03,-0.065c-0.03,-0.015 -0.07,-0.012 -0.1,-0.012l-0.08,0l0,0.163Zm0,0.362l-0.15,0l0,-0.637l0.27,0c0.06,0 0.12,0 0.16,0.031c0.06,0.036 0.08,0.096 0.08,0.159c0,0.073 -0.04,0.14 -0.1,0.166l0.11,0.281l-0.16,0l-0.1,-0.253l-0.11,0l0,0.253Zm0.1,0.234c0.3,0 0.55,-0.248 0.55,-0.552c0,-0.306 -0.25,-0.552 -0.55,-0.552c-0.31,0 -0.55,0.246 -0.55,0.552c0,0.304 0.24,0.552 0.55,0.552Zm-0.73,-0.552c0,-0.401 0.33,-0.726 0.73,-0.726c0.4,0 0.73,0.325 0.73,0.726c0,0.401 -0.33,0.725 -0.73,0.725c-0.4,0 -0.73,-0.324 -0.73,-0.725Z" style="fill:#008bbc;fill-rule:nonzero;"/><path d="M90.36,44.17l0.08,0c0.04,0 0.07,0.003 0.09,-0.012c0.03,-0.016 0.04,-0.045 0.04,-0.073c0,-0.024 -0.01,-0.053 -0.03,-0.066c-0.03,-0.016 -0.07,-0.011 -0.1,-0.011l-0.08,0l0,0.162Zm0,0.361l-0.15,0l0,-0.638l0.27,0c0.06,0 0.12,0.001 0.17,0.033c0.05,0.036 0.08,0.097 0.08,0.16c0,0.072 -0.05,0.139 -0.11,0.166l0.11,0.279l-0.16,0l-0.1,-0.251l-0.11,0l0,0.251Zm0.1,0.235c0.3,0 0.55,-0.248 0.55,-0.553c0,-0.304 -0.25,-0.551 -0.55,-0.551c-0.3,0 -0.55,0.247 -0.55,0.551c0,0.305 0.25,0.553 0.55,0.553Zm-0.72,-0.553c0,-0.4 0.32,-0.726 0.72,-0.726c0.4,0 0.73,0.326 0.73,0.726c0,0.401 -0.33,0.726 -0.73,0.726c-0.4,0 -0.72,-0.325 -0.72,-0.726Z" style="fill:#e1dfd8;fill-rule:nonzero;"/><path d="M47.04,33.35c-0.2,0.882 -0.3,1.381 -0.58,2.452c-1.69,-0.715 -3.95,-1.089 -5.69,-0.004c-1.64,1.045 -2.19,2.673 -2.08,4.477c0.13,0.869 0.78,1.717 1.7,2.085c1.59,0.586 3.1,0.372 4.79,-0.492c-0.24,1.087 -0.42,1.94 -0.63,2.717c-2.03,0.564 -3.95,0.751 -5.97,0.078c-1.81,-0.63 -3.29,-2.26 -3.4,-4.019c-0.42,-2.824 0.94,-5.713 3.68,-7.04c2.56,-1.15 5.48,-0.951 8.18,-0.254Z" style="fill:#e1dfd8;fill-rule:nonzero;"/><path d="M75.67,43.389c-0.53,0.533 -1.44,1.704 -3.91,1.704c-2.24,0 -3.67,-1.655 -2.87,-5.377l0.93,-4.378l3.43,0c0,0 -0.94,4.383 -0.93,4.378c-0.32,1.49 -0.24,2.625 1.27,2.625c1.78,0 2.32,-1.078 2.65,-2.625c0,0.004 0.93,-4.378 0.93,-4.378l3.43,0l-1.54,7.04c-0.17,0.824 -0.34,1.7 -0.44,2.563l-3.22,0c0,0 0.21,-1.174 0.27,-1.552Z" style="fill:#e1dfd8;fill-rule:nonzero;"/><path d="M81.74,38.376c0,1.216 0.8,2.048 2.61,2.67c1.41,0.491 1.63,0.634 1.63,1.061c0,0.608 -0.63,0.865 -1.98,0.865c-1.03,0 -1.99,-0.102 -3.09,-0.37c0,0 -0.44,1.992 -0.48,2.22c0.96,0.172 2.62,0.271 3.59,0.271c3.63,0 5.32,-1.013 5.32,-3.204c0,-1.31 -0.71,-2.08 -2.43,-2.672c-1.45,-0.477 -1.62,-0.587 -1.62,-1.042c0,-0.509 0.58,-0.78 1.7,-0.78c0.67,0 1.61,0.057 2.48,0.148l0.48,-2.228c-0.89,-0.106 -2.25,-0.193 -3.03,-0.193c-3.85,0 -5.19,1.485 -5.18,3.254Z" style="fill:#e1dfd8;fill-rule:nonzero;"/><path d="M48.5,35.338l3.44,0l-2.05,9.604l-3.44,0l2.05,-9.604Z" style="fill:#e1dfd8;fill-rule:nonzero;"/><path d="M68.84,35.297c-2.53,-0.334 -3.25,0.909 -3.93,1.526c0.08,-0.5 0.23,-0.988 0.2,-1.485l-3.15,0c-0.45,2.973 -1.25,5.983 -1.88,8.955l-0.17,0.647l3.58,0c0.43,-1.951 0.93,-4.894 1.5,-5.785c0.56,-0.891 1.51,-1.601 2.76,-1.174l1.09,-2.684Z" style="fill:#e1dfd8;fill-rule:nonzero;"/><path d="M61.02,35.297c-2.53,-0.334 -3.25,0.909 -3.93,1.526c0.08,-0.5 0.23,-0.988 0.2,-1.485l-3.15,0c-0.45,2.973 -1.25,5.983 -1.88,8.955l-0.17,0.647l3.58,0c0.43,-1.951 0.92,-4.894 1.49,-5.785c0.57,-0.891 1.52,-1.601 2.77,-1.174l1.09,-2.684Z" style="fill:#e1dfd8;fill-rule:nonzero;"/></svg>