<?xml version="1.0" encoding="UTF-8" standalone="no"?><!DOCTYPE svg PUBLIC "-//W3C//DTD SVG 1.1//EN" "http://www.w3.org/Graphics/SVG/1.1/DTD/svg11.dtd"><svg width="100%" height="100%" viewBox="0 0 126 79" version="1.1" xmlns="http://www.w3.org/2000/svg" xmlns:xlink="http://www.w3.org/1999/xlink" xml:space="preserve" style="fill-rule:evenodd;clip-rule:evenodd;stroke-linejoin:round;stroke-miterlimit:1.41421;"><path d="M125.429,74.211c0,2.31 -1.873,4.182 -4.181,4.182l-117.069,0c-2.308,0 -4.179,-1.872 -4.179,-4.182l0,-70.031c0,-2.309 1.871,-4.18 4.179,-4.18l117.069,0c2.308,0 4.181,1.871 4.181,4.18l0,70.031Z" style="fill:#294c80;fill-rule:nonzero;"/><path d="M65.715,42.758c7.087,0.034 13.556,-5.778 13.556,-12.852c0,-7.733 -6.469,-13.079 -13.556,-13.075l-6.102,0c-7.17,-0.004 -13.074,5.343 -13.074,13.075c0,7.074 5.904,12.886 13.074,12.852l6.102,0Z" style="fill:#e1dfd8;fill-rule:nonzero;"/><path d="M59.642,17.901c-6.552,0.003 -11.865,5.314 -11.867,11.871c0.002,6.554 5.315,11.864 11.867,11.867c6.557,-0.003 11.867,-5.313 11.869,-11.867c-0.002,-6.557 -5.312,-11.868 -11.869,-11.871Zm-7.521,11.871c0.006,-3.205 2.008,-5.936 4.828,-7.022l0,14.041c-2.82,-1.086 -4.822,-3.816 -4.828,-7.019Zm10.215,7.021l0,-14.043c2.822,1.083 4.826,3.815 4.83,7.022c-0.004,3.205 -2.008,5.936 -4.83,7.021Z" style="fill:#294c80;fill-rule:nonzero;"/><path d="M31.937,45.176c0,-1.233 -0.644,-1.151 -1.261,-1.164l0,-0.357c0.535,0.027 1.083,0.027 1.619,0.027c0.574,0 1.355,-0.027 2.371,-0.027c3.549,0 5.482,2.37 5.482,4.799c0,1.356 -0.795,4.769 -5.646,4.769c-0.7,0 -1.344,-0.027 -1.989,-0.027c-0.617,0 -1.22,0.013 -1.837,0.027l0,-0.355c0.822,-0.083 1.22,-0.11 1.261,-1.042l0,-6.65Zm1.342,6.429c0,1.057 0.756,1.18 1.426,1.18c2.961,0 3.935,-2.234 3.935,-4.277c0,-2.563 -1.646,-4.413 -4.291,-4.413c-0.562,0 -0.822,0.04 -1.07,0.055l0,7.455Z" style="fill:#e1dfd8;fill-rule:nonzero;"/><path d="M40.629,52.868l0.259,0c0.385,0 0.659,0 0.659,-0.454l0,-3.715c0,-0.602 -0.206,-0.685 -0.713,-0.959l0,-0.218c0.642,-0.194 1.412,-0.453 1.467,-0.493c0.095,-0.056 0.177,-0.07 0.246,-0.07c0.068,0 0.095,0.083 0.095,0.192l0,5.263c0,0.454 0.301,0.454 0.686,0.454l0.234,0l0,0.355c-0.467,0 -0.947,-0.027 -1.439,-0.027c-0.494,0 -0.989,0.013 -1.494,0.027l0,-0.355Zm1.466,-8.019c-0.357,0 -0.671,-0.33 -0.671,-0.686c0,-0.345 0.33,-0.66 0.671,-0.66c0.356,0 0.67,0.29 0.67,0.66c0,0.37 -0.3,0.686 -0.67,0.686Z" style="fill:#e1dfd8;fill-rule:nonzero;"/><path d="M44.863,48.781c0,-0.506 -0.152,-0.642 -0.793,-0.903l0,-0.261c0.588,-0.191 1.15,-0.37 1.807,-0.658c0.043,0 0.082,0.028 0.082,0.137l0,0.89c0.783,-0.56 1.455,-1.027 2.375,-1.027c1.164,0 1.574,0.85 1.574,1.919l0,3.536c0,0.454 0.303,0.454 0.685,0.454l0.248,0l0,0.355c-0.482,0 -0.962,-0.027 -1.453,-0.027c-0.494,0 -0.986,0.013 -1.48,0.027l0,-0.355l0.244,0c0.385,0 0.658,0 0.658,-0.454l0,-3.549c0,-0.782 -0.476,-1.166 -1.259,-1.166c-0.438,0 -1.137,0.357 -1.592,0.66l0,4.055c0,0.454 0.304,0.454 0.687,0.454l0.246,0l0,0.355c-0.478,0 -0.959,-0.027 -1.453,-0.027c-0.492,0 -0.986,0.013 -1.48,0.027l0,-0.355l0.248,0c0.383,0 0.656,0 0.656,-0.454l0,-3.633Z" style="fill:#e1dfd8;fill-rule:nonzero;"/><path d="M51.883,49.441c-0.028,0.123 -0.028,0.328 0,0.794c0.082,1.303 0.919,2.372 2.013,2.372c0.756,0 1.346,-0.412 1.852,-0.918l0.191,0.191c-0.631,0.837 -1.412,1.548 -2.535,1.548c-2.18,0 -2.619,-2.11 -2.619,-2.987c0,-2.688 1.808,-3.482 2.769,-3.482c1.112,0 2.305,0.699 2.317,2.152c0,0.083 0,0.164 -0.012,0.247l-0.125,0.083l-3.851,0Zm2.425,-0.439c0.344,0 0.383,-0.179 0.383,-0.343c0,-0.7 -0.424,-1.262 -1.191,-1.262c-0.836,0 -1.412,0.617 -1.576,1.605l2.384,0Z" style="fill:#e1dfd8;fill-rule:nonzero;"/><path d="M56.187,52.868l0.369,0c0.383,0 0.659,0 0.659,-0.454l0,-3.851c0,-0.424 -0.506,-0.507 -0.713,-0.618l0,-0.205c1,-0.425 1.549,-0.781 1.674,-0.781c0.079,0 0.121,0.042 0.121,0.18l0,1.233l0.029,0c0.342,-0.535 0.918,-1.413 1.754,-1.413c0.344,0 0.781,0.232 0.781,0.726c0,0.371 -0.26,0.7 -0.645,0.7c-0.425,0 -0.425,-0.329 -0.906,-0.329c-0.232,0 -0.998,0.316 -0.998,1.138l0,3.22c0,0.454 0.274,0.454 0.658,0.454l0.766,0l0,0.355c-0.754,-0.014 -1.328,-0.027 -1.918,-0.027c-0.563,0 -1.137,0.013 -1.631,0.027l0,-0.355Z" style="fill:#e1dfd8;fill-rule:nonzero;"/><path d="M61.465,51.318c0.177,0.905 0.726,1.673 1.726,1.673c0.809,0 1.11,-0.494 1.11,-0.974c0,-1.617 -2.987,-1.097 -2.987,-3.304c0,-0.768 0.615,-1.754 2.125,-1.754c0.438,0 1.026,0.123 1.563,0.397l0.095,1.397l-0.316,0c-0.137,-0.861 -0.617,-1.355 -1.494,-1.355c-0.549,0 -1.069,0.315 -1.069,0.905c0,1.604 3.18,1.109 3.18,3.261c0,0.905 -0.726,1.864 -2.357,1.864c-0.549,0 -1.194,-0.191 -1.672,-0.464l-0.151,-1.576l0.247,-0.07Z" style="fill:#e1dfd8;fill-rule:nonzero;"/><path d="M77.777,46.135l-0.344,0c-0.259,-1.602 -1.398,-2.247 -2.933,-2.247c-1.576,0 -3.867,1.054 -3.867,4.346c0,2.769 1.976,4.757 4.085,4.757c1.358,0 2.483,-0.931 2.758,-2.372l0.315,0.082l-0.315,2.001c-0.578,0.358 -2.127,0.726 -3.031,0.726c-3.207,0 -5.234,-2.068 -5.234,-5.153c0,-2.811 2.507,-4.826 5.193,-4.826c1.109,0 2.18,0.358 3.236,0.728l0.137,1.958Z" style="fill:#e1dfd8;fill-rule:nonzero;"/><path d="M78.271,52.868l0.26,0c0.385,0 0.658,0 0.658,-0.454l0,-7.634c0,-0.892 -0.205,-0.919 -0.728,-1.07l0,-0.219c0.55,-0.178 1.127,-0.424 1.414,-0.59c0.148,-0.082 0.259,-0.15 0.301,-0.15c0.082,0 0.109,0.082 0.109,0.192l0,9.471c0,0.454 0.303,0.454 0.687,0.454l0.231,0l0,0.355c-0.465,0 -0.945,-0.027 -1.438,-0.027c-0.494,0 -0.986,0.013 -1.494,0.027l0,-0.355Z" style="fill:#e1dfd8;fill-rule:nonzero;"/><path d="M87.072,52.469c0,0.248 0.15,0.261 0.383,0.261c0.164,0 0.369,-0.013 0.549,-0.013l0,0.288c-0.59,0.055 -1.715,0.343 -1.975,0.423l-0.068,-0.04l0,-1.11c-0.823,0.672 -1.453,1.15 -2.428,1.15c-0.74,0 -1.508,-0.478 -1.508,-1.629l0,-3.51c0,-0.356 -0.053,-0.7 -0.82,-0.767l0,-0.261c0.492,-0.014 1.588,-0.096 1.767,-0.096c0.153,0 0.153,0.096 0.153,0.397l0,3.537c0,0.411 0,1.589 1.191,1.589c0.465,0 1.082,-0.356 1.658,-0.834l0,-3.689c0,-0.273 -0.658,-0.424 -1.15,-0.561l0,-0.248c1.232,-0.082 2,-0.191 2.137,-0.191c0.111,0 0.111,0.096 0.111,0.248l0,5.056Z" style="fill:#e1dfd8;fill-rule:nonzero;"/><path d="M89.799,47.945c0.548,-0.465 1.289,-0.986 2.042,-0.986c1.59,0 2.549,1.386 2.549,2.878c0,1.796 -1.316,3.591 -3.275,3.591c-1.016,0 -1.549,-0.328 -1.906,-0.478l-0.41,0.315l-0.288,-0.151c0.122,-0.809 0.192,-1.604 0.192,-2.44l0,-5.894c0,-0.892 -0.207,-0.919 -0.727,-1.07l0,-0.219c0.549,-0.178 1.123,-0.424 1.412,-0.59c0.151,-0.082 0.258,-0.15 0.303,-0.15c0.082,0 0.108,0.082 0.108,0.192l0,5.002Zm0,3.729c0,0.521 0.494,1.4 1.412,1.4c1.468,0 2.082,-1.441 2.082,-2.662c0,-1.479 -1.123,-2.713 -2.192,-2.713c-0.508,0 -0.931,0.33 -1.302,0.646l0,3.329Z" style="fill:#e1dfd8;fill-rule:nonzero;"/><path d="M30.66,61.195l0.105,0c0.268,0 0.551,-0.038 0.551,-0.427l0,-3.906c0,-0.389 -0.283,-0.426 -0.551,-0.426l-0.105,0l0,-0.225c0.293,0 0.74,0.03 1.105,0.03c0.373,0 0.821,-0.03 1.17,-0.03l0,0.225l-0.103,0c-0.268,0 -0.553,0.037 -0.553,0.426l0,3.906c0,0.389 0.285,0.427 0.553,0.427l0.103,0l0,0.224c-0.357,0 -0.805,-0.03 -1.177,-0.03c-0.366,0 -0.805,0.03 -1.098,0.03l0,-0.224Z" style="fill:#e1dfd8;fill-rule:nonzero;"/><path d="M32.935,61.449c-0.359,0 -0.805,-0.029 -1.177,-0.029c-0.366,0 -0.803,0.029 -1.098,0.029l-0.031,0l0,-0.031l0,-0.223l0,-0.034l0.134,0c0.274,-0.006 0.518,-0.027 0.52,-0.393l0,-3.906c-0.002,-0.366 -0.246,-0.389 -0.52,-0.394l-0.134,0l0,-0.032l0,-0.257l0.031,0c0.295,0 0.74,0.029 1.105,0.029c0.373,0 0.819,-0.029 1.17,-0.029l0.033,0l0,0.289l-0.033,0l-0.103,0c-0.27,0.005 -0.52,0.028 -0.52,0.394l0,3.906c0,0.366 0.25,0.387 0.52,0.393l0.136,0l0,0.288l-0.033,0Zm-0.031,-0.063l0,-0.159l-0.072,0c-0.266,0 -0.584,-0.045 -0.586,-0.459l0,-3.906c0.002,-0.413 0.32,-0.459 0.586,-0.459l0.072,0l0,-0.159c-0.346,0 -0.775,0.03 -1.139,0.03c-0.353,0 -0.783,-0.028 -1.072,-0.03l0,0.159l0.07,0c0.268,0 0.584,0.046 0.584,0.459l0,3.906c0,0.414 -0.316,0.459 -0.584,0.459l-0.07,0l0,0.159c0.289,-0.003 0.711,-0.03 1.065,-0.03c0.363,0 0.794,0.029 1.146,0.03Z" style="fill:#e1dfd8;fill-rule:nonzero;"/><path d="M38.06,59.949l0.014,-0.016l0,-2.796c0,-0.612 -0.424,-0.701 -0.648,-0.701l-0.165,0l0,-0.225c0.35,0 0.694,0.03 1.045,0.03c0.305,0 0.612,-0.03 0.916,-0.03l0,0.225l-0.111,0c-0.314,0 -0.664,0.059 -0.664,0.947l0,3.394c0,0.262 0.008,0.521 0.045,0.753l-0.283,0l-3.842,-4.281l0,3.072c0,0.651 0.127,0.874 0.701,0.874l0.127,0l0,0.224c-0.32,0 -0.641,-0.03 -0.963,-0.03c-0.334,0 -0.678,0.03 -1.014,0.03l0,-0.224l0.106,0c0.514,0 0.67,-0.351 0.67,-0.947l0,-3.142c0,-0.417 -0.344,-0.67 -0.678,-0.67l-0.098,0l0,-0.225c0.284,0 0.575,0.03 0.856,0.03c0.227,0 0.441,-0.03 0.666,-0.03l3.32,3.738Z" style="fill:#e1dfd8;fill-rule:nonzero;"/><path d="M38.492,61.562l-0.307,-0.011l-3.787,-4.219l0,2.989c0.01,0.651 0.107,0.833 0.67,0.84l0.16,0l0,0.288l-0.033,0c-0.322,0 -0.643,-0.029 -0.963,-0.029c-0.332,0 -0.676,0.029 -1.014,0.029l-0.033,0l0,-0.031l0,-0.257l0.139,0c0.492,-0.003 0.633,-0.319 0.641,-0.913l0,-3.142c-0.002,-0.396 -0.331,-0.638 -0.649,-0.638l-0.131,0l0,-0.033l0,-0.254l0.033,0c0.286,0 0.577,0.027 0.856,0.027c0.223,0 0.439,-0.027 0.691,-0.017l3.28,3.69l0,-2.743c-0.006,-0.594 -0.403,-0.665 -0.619,-0.67l-0.198,0l0,-0.033l0,-0.254l0.033,0c0.352,0 0.696,0.027 1.045,0.027c0.305,0 0.61,-0.027 0.916,-0.027l0.033,0l0,0.287l-0.033,0l-0.111,0c-0.309,0.009 -0.623,0.035 -0.631,0.914l0,3.395c0,0.261 0.006,0.52 0.041,0.746l0.008,0.039l-0.037,0Zm-0.283,-0.065l0.248,0c-0.035,-0.225 -0.041,-0.472 -0.041,-0.72l0,-3.395c0,-0.893 0.375,-0.979 0.695,-0.979l0.08,0l0,-0.159c-0.293,0.002 -0.588,0.03 -0.885,0.03c-0.341,0 -0.676,-0.028 -1.011,-0.03l0,0.159l0.131,0c0.228,0 0.681,0.102 0.681,0.735l-0.01,2.819l-0.015,0.014l-0.026,0.024l-3.316,-3.751c-0.221,0 -0.438,0.03 -0.666,0.03c-0.272,0 -0.553,-0.028 -0.822,-0.03l-0.002,0.159l0.066,0c0.35,0 0.711,0.267 0.711,0.703l0,3.142c0,0.596 -0.166,0.978 -0.703,0.98l-0.072,-0.002l0,0.16c0.322,-0.003 0.656,-0.03 0.98,-0.03c0.313,0 0.623,0.027 0.93,0.03l0,-0.158l-0.094,0c-0.586,-0.002 -0.732,-0.256 -0.732,-0.907l0,-3.157l3.873,4.333Zm-0.149,-1.548l0.024,-0.022l-0.024,0.022Zm-0.015,-0.016l0,-0.002l-0.008,-0.006l0.008,0.008Z" style="fill:#e1dfd8;fill-rule:nonzero;"/><path d="M40.341,56.584c-0.56,0 -0.583,0.134 -0.693,0.679l-0.224,0c0.029,-0.209 0.066,-0.417 0.091,-0.634c0.028,-0.21 0.043,-0.418 0.043,-0.633l0.178,0c0.061,0.224 0.246,0.215 0.449,0.215l3.848,0c0.203,0 0.389,-0.006 0.402,-0.231l0.18,0.031c-0.029,0.2 -0.061,0.403 -0.082,0.603c-0.014,0.202 -0.014,0.404 -0.014,0.604l-0.224,0.084c-0.016,-0.276 -0.053,-0.718 -0.553,-0.718l-1.223,0l0,3.97c0,0.574 0.262,0.641 0.619,0.641l0.141,0l0,0.224c-0.289,0 -0.813,-0.03 -1.215,-0.03c-0.447,0 -0.969,0.03 -1.26,0.03l0,-0.224l0.141,0c0.412,0 0.619,-0.038 0.619,-0.627l0,-3.984l-1.223,0Z" style="fill:#e1dfd8;fill-rule:nonzero;"/><path d="M43.281,61.449c-0.293,0 -0.815,-0.029 -1.217,-0.029c-0.447,0 -0.967,0.029 -1.26,0.029l-0.033,0l0,-0.03l0,-0.258l0.174,0c0.412,-0.008 0.576,-0.014 0.586,-0.593l0,-3.951l-1.19,0l0,-0.033l0,-0.033l1.254,0l0,4.017c0,0.599 -0.24,0.659 -0.65,0.66l-0.109,0l0,0.157c0.294,-0.002 0.794,-0.029 1.228,-0.029c0.391,0 0.889,0.027 1.184,0.029l0,-0.157l-0.11,0c-0.361,-0.001 -0.65,-0.089 -0.65,-0.674l0,-4.003l1.256,0c0.498,0.002 0.564,0.428 0.58,0.704l0.162,-0.059c0,-0.194 0.002,-0.389 0.016,-0.586c0.021,-0.192 0.047,-0.381 0.076,-0.571l-0.113,-0.019c-0.036,0.216 -0.245,0.227 -0.434,0.224l-3.846,0l-0.039,0c-0.176,0 -0.367,-0.007 -0.433,-0.216l-0.123,0c-0.002,0.206 -0.018,0.407 -0.045,0.605c-0.022,0.205 -0.055,0.401 -0.082,0.599l0.158,0c0.099,-0.52 0.162,-0.688 0.72,-0.681l0,0.066c-0.552,0.01 -0.54,0.102 -0.664,0.654l-0.003,0.026l-0.026,0l-0.264,0l0.006,-0.039c0.03,-0.209 0.069,-0.417 0.09,-0.634c0.031,-0.207 0.045,-0.415 0.045,-0.628l0,-0.032l0.238,0l0.004,0.022c0.051,0.189 0.19,0.19 0.379,0.193l3.885,0c0.209,-0.003 0.359,-0.006 0.373,-0.201l0.002,-0.035l0.035,0.007l0.211,0.033l-0.006,0.033c-0.029,0.2 -0.058,0.401 -0.082,0.601c-0.013,0.199 -0.013,0.4 -0.013,0.601l0,0.023l-0.022,0.009l-0.264,0.095l-0.002,-0.043c-0.021,-0.279 -0.048,-0.685 -0.519,-0.685l-1.192,0l0,3.937c0.006,0.562 0.229,0.6 0.586,0.607l0.174,0l0,0.288l-0.031,0Z" style="fill:#e1dfd8;fill-rule:nonzero;"/><path d="M44.851,61.195l0.108,0c0.267,0 0.55,-0.038 0.55,-0.427l0,-3.906c0,-0.389 -0.283,-0.426 -0.55,-0.426l-0.108,0l0,-0.225c0.455,0 1.233,0.03 1.858,0.03c0.627,0 1.402,-0.03 1.91,-0.03c-0.014,0.32 -0.006,0.815 0.015,1.142l-0.224,0.06c-0.037,-0.485 -0.125,-0.871 -0.91,-0.871l-1.035,0l0,1.953l0.886,0c0.448,0 0.545,-0.253 0.59,-0.658l0.223,0c-0.014,0.292 -0.022,0.583 -0.022,0.874c0,0.284 0.008,0.567 0.022,0.851l-0.223,0.043c-0.045,-0.446 -0.066,-0.737 -0.584,-0.737l-0.892,0l0,1.736c0,0.485 0.431,0.485 0.908,0.485c0.896,0 1.291,-0.059 1.513,-0.908l0.211,0.05c-0.099,0.397 -0.187,0.792 -0.254,1.188c-0.478,0 -1.335,-0.03 -2.005,-0.03c-0.674,0 -1.559,0.03 -1.987,0.03l0,-0.224Z" style="fill:#e1dfd8;fill-rule:nonzero;"/><path d="M48.843,61.449c-0.478,0 -1.338,-0.029 -2.005,-0.029c-0.674,0 -1.559,0.029 -1.987,0.029l-0.029,0l0,-0.03l0,-0.224l0,-0.034l0.137,0c0.269,-0.004 0.515,-0.027 0.517,-0.393l0,-3.906c-0.002,-0.364 -0.248,-0.388 -0.517,-0.394l-0.137,0l0,-0.032l0,-0.255l0.029,0c0.457,0 1.233,0.027 1.858,0.027c0.627,0 1.402,-0.027 1.91,-0.027l0.033,0l0,0.032c-0.008,0.113 -0.01,0.246 -0.01,0.385c0,0.259 0.01,0.54 0.024,0.752l0,0.028l-0.024,0.007l-0.262,0.068l-0.003,-0.038c-0.043,-0.483 -0.108,-0.835 -0.877,-0.842l-1.006,0l0,1.888l0.857,0c0.43,-0.004 0.506,-0.224 0.557,-0.626l0.004,-0.03l0.285,0l-0.002,0.034c-0.012,0.29 -0.021,0.581 -0.021,0.872c0,0.282 0.009,0.565 0.021,0.848l0.002,0.028l-0.027,0.005l-0.258,0.053l-0.004,-0.036c-0.051,-0.457 -0.055,-0.704 -0.551,-0.71l-0.863,0l0,1.705c0.002,0.454 0.394,0.451 0.881,0.454c0.896,-0.007 1.258,-0.049 1.482,-0.888l0.008,-0.029l0.029,0.006l0.24,0.061l-0.007,0.032c-0.096,0.393 -0.186,0.789 -0.252,1.185l-0.006,0.024l-0.026,0Zm-0.029,-0.064c0.066,-0.376 0.152,-0.754 0.242,-1.129l-0.146,-0.037c-0.225,0.835 -0.656,0.909 -1.535,0.903c-0.471,0 -0.942,0 -0.944,-0.518l0,-1.768l0.926,0c0.522,-0.006 0.574,0.308 0.611,0.732l0.162,-0.034c-0.015,-0.274 -0.021,-0.549 -0.021,-0.823c0,-0.281 0.006,-0.56 0.021,-0.841l-0.162,0c-0.041,0.389 -0.162,0.661 -0.617,0.656l-0.92,0l0,-2.019l1.069,0c0.777,-0.005 0.904,0.395 0.939,0.864l0.16,-0.043c-0.011,-0.21 -0.021,-0.48 -0.021,-0.73c0,-0.127 0.002,-0.248 0.006,-0.354c-0.506,0.002 -1.26,0.03 -1.875,0.03c-0.614,0 -1.368,-0.028 -1.825,-0.03l0,0.159l0.075,0c0.263,0 0.582,0.046 0.584,0.459l0,3.906c-0.002,0.414 -0.321,0.458 -0.584,0.46l-0.075,0l0,0.157c0.436,0 1.295,-0.029 1.954,-0.029c0.658,0 1.496,0.029 1.976,0.029Z" style="fill:#e1dfd8;fill-rule:nonzero;"/><path d="M50.103,57.002c0,-0.543 -0.299,-0.566 -0.531,-0.566l-0.133,0l0,-0.225c0.238,0 0.699,0.03 1.156,0.03c0.448,0 0.805,-0.03 1.2,-0.03c0.939,0 1.777,0.253 1.777,1.314c0,0.67 -0.449,1.081 -1.037,1.313l1.275,1.909c0.209,0.315 0.358,0.403 0.725,0.448l0,0.224c-0.248,0 -0.486,-0.03 -0.733,-0.03c-0.23,0 -0.47,0.03 -0.701,0.03c-0.574,-0.753 -1.068,-1.559 -1.55,-2.418l-0.495,0l0,1.597c0,0.575 0.27,0.597 0.612,0.597l0.134,0l0,0.224c-0.423,0 -0.855,-0.03 -1.281,-0.03c-0.359,0 -0.709,0.03 -1.082,0.03l0,-0.224l0.133,0c0.279,0 0.531,-0.128 0.531,-0.403l0,-3.79Zm0.953,1.729l0.368,0c0.746,0 1.146,-0.281 1.146,-1.162c0,-0.663 -0.422,-1.088 -1.088,-1.088c-0.224,0 -0.32,0.022 -0.426,0.029l0,2.221Z" style="fill:#e1dfd8;fill-rule:nonzero;"/><path d="M54.535,61.449c-0.252,0 -0.49,-0.029 -0.734,-0.029c-0.227,0 -0.465,0.029 -0.725,0.018c-0.572,-0.75 -1.063,-1.552 -1.545,-2.404l-0.441,0l0,1.563c0.007,0.561 0.232,0.557 0.578,0.564l0.168,0l0,0.288l-0.034,0c-0.425,0 -0.859,-0.029 -1.283,-0.029c-0.355,0 -0.707,0.029 -1.08,0.029l-0.033,0l0,-0.031l0,-0.257l0.166,0c0.269,-0.002 0.496,-0.117 0.498,-0.369l0,-3.79c-0.006,-0.528 -0.264,-0.526 -0.498,-0.534l-0.166,0l0,-0.032l0,-0.257l0.033,0c0.242,0 0.701,0.029 1.156,0.029c0.446,0 0.803,-0.029 1.2,-0.029c0.941,0.003 1.806,0.262 1.808,1.346c0,0.672 -0.445,1.093 -1.019,1.328l1.252,1.876c0.209,0.31 0.34,0.387 0.703,0.432l0.027,0.005l0,0.283l-0.031,0Zm-3.479,-2.481l0.512,0l0.008,0.017c0.486,0.857 0.976,1.663 1.525,2.401c0.227,0 0.469,-0.03 0.7,-0.03c0.238,0 0.468,0.025 0.701,0.029l0,-0.163c-0.352,-0.043 -0.516,-0.148 -0.719,-0.458l-1.297,-1.941l0.035,-0.016c0.584,-0.23 1.018,-0.628 1.018,-1.282c0,-1.035 -0.807,-1.276 -1.744,-1.281c-0.393,0 -0.752,0.03 -1.2,0.03c-0.439,0 -0.88,-0.028 -1.125,-0.03l0,0.159l0.102,0c0.234,0 0.562,0.038 0.562,0.599l0,3.79c0,0.299 -0.279,0.435 -0.562,0.436l-0.102,0l0,0.157c0.36,0 0.7,-0.029 1.049,-0.029c0.416,0 0.838,0.029 1.25,0.029l0,-0.157l-0.101,0c-0.34,-0.001 -0.643,-0.042 -0.643,-0.631l0,-1.629l0.031,0Zm0,-0.204l-0.031,0l0,-2.283l0.029,-0.003c0.102,-0.009 0.201,-0.029 0.428,-0.029c0.68,0 1.121,0.442 1.123,1.121c-0.002,0.891 -0.431,1.194 -1.181,1.194l-0.368,0Zm0.368,-0.064c0.738,-0.007 1.109,-0.263 1.117,-1.13c-0.006,-0.651 -0.411,-1.055 -1.059,-1.058c-0.201,0 -0.297,0.018 -0.392,0.027l0,2.161l0.334,0Z" style="fill:#e1dfd8;fill-rule:nonzero;"/><path d="M59.597,59.949l0.014,-0.016l0,-2.796c0,-0.612 -0.426,-0.701 -0.648,-0.701l-0.164,0l0,-0.225c0.349,0 0.693,0.03 1.044,0.03c0.307,0 0.61,-0.03 0.918,-0.03l0,0.225l-0.111,0c-0.314,0 -0.664,0.059 -0.664,0.947l0,3.394c0,0.262 0.008,0.521 0.043,0.753l-0.283,0l-3.84,-4.281l0,3.072c0,0.651 0.125,0.874 0.701,0.874l0.127,0l0,0.224c-0.32,0 -0.643,-0.03 -0.963,-0.03c-0.336,0 -0.68,0.03 -1.013,0.03l0,-0.224l0.101,0c0.518,0 0.674,-0.351 0.674,-0.947l0,-3.142c0,-0.417 -0.344,-0.67 -0.68,-0.67l-0.095,0l0,-0.225c0.281,0 0.572,0.03 0.855,0.03c0.223,0 0.439,-0.03 0.664,-0.03l3.32,3.738Z" style="fill:#e1dfd8;fill-rule:nonzero;"/><path d="M60.029,61.562l-0.307,-0.011l-3.785,-4.219l0,2.989c0.01,0.651 0.106,0.833 0.67,0.84l0.158,0l0,0.288l-0.033,0c-0.322,0 -0.642,-0.029 -0.963,-0.029c-0.332,0 -0.678,0.029 -1.011,0.029l-0.036,0l0,-0.03l0,-0.258l0.137,0c0.492,-0.002 0.635,-0.319 0.641,-0.915l0,-3.14c-0.002,-0.397 -0.328,-0.638 -0.647,-0.638l-0.131,0l0,-0.032l0,-0.257l0.036,0c0.283,0 0.574,0.029 0.855,0.029c0.221,0 0.436,-0.029 0.688,-0.019l3.277,3.692l0,-2.744c0,-0.593 -0.399,-0.666 -0.615,-0.669l-0.198,0l0,-0.032l0,-0.257l0.034,0c0.351,0 0.695,0.029 1.044,0.029c0.305,0 0.61,-0.029 0.916,-0.029l0.036,0l0,0.289l-0.036,0l-0.109,0c-0.309,0.008 -0.625,0.035 -0.633,0.914l0,3.395c0,0.261 0.006,0.519 0.043,0.748l0.004,0.037l-0.035,0Zm-0.283,-0.065l0.246,0c-0.033,-0.223 -0.041,-0.472 -0.041,-0.72l0,-3.395c0.002,-0.893 0.379,-0.977 0.699,-0.979l0.078,0l0,-0.159c-0.293,0.002 -0.588,0.03 -0.885,0.03c-0.343,0 -0.675,-0.028 -1.011,-0.03l0,0.159l0.131,0c0.23,0.002 0.681,0.102 0.681,0.734l-0.011,2.82l-0.012,0.014l-0.024,0.024l-3.32,-3.751c-0.221,0 -0.437,0.03 -0.664,0.03c-0.275,0 -0.555,-0.028 -0.826,-0.03l0,0.159l0.066,0c0.352,0.002 0.711,0.267 0.711,0.703l0,3.14c0,0.599 -0.168,0.98 -0.705,0.982l-0.072,-0.001l0,0.158c0.324,-0.002 0.654,-0.029 0.982,-0.029c0.313,0 0.623,0.027 0.934,0.029l0,-0.157l-0.096,0c-0.588,-0.001 -0.734,-0.256 -0.736,-0.907l0,-3.156l3.875,4.332Zm-0.149,-1.548l0.024,-0.022l-0.024,0.022Zm-0.019,-0.016l0,-0.001l-0.006,-0.006l0.006,0.007Z" style="fill:#e1dfd8;fill-rule:nonzero;"/><path d="M61.961,60.351c-0.075,0.253 -0.166,0.448 -0.166,0.582c0,0.224 0.314,0.262 0.56,0.262l0.084,0l0,0.224c-0.301,-0.017 -0.605,-0.03 -0.906,-0.03c-0.268,0 -0.533,0.013 -0.803,0.03l0,-0.224l0.045,0c0.289,0 0.537,-0.172 0.647,-0.486l1.195,-3.423c0.098,-0.276 0.232,-0.649 0.277,-0.926c0.239,-0.082 0.535,-0.23 0.678,-0.319c0.023,-0.007 0.037,-0.016 0.058,-0.016c0.022,0 0.038,0 0.053,0.024c0.022,0.058 0.043,0.126 0.069,0.185l1.371,3.901c0.09,0.262 0.179,0.536 0.275,0.762c0.09,0.209 0.246,0.298 0.494,0.298l0.043,0l0,0.224c-0.334,-0.017 -0.67,-0.03 -1.029,-0.03c-0.363,0 -0.738,0.013 -1.119,0.03l0,-0.224l0.084,0c0.17,0 0.463,-0.03 0.463,-0.216c0,-0.098 -0.067,-0.299 -0.153,-0.539l-0.291,-0.865l-1.691,0l-0.238,0.776Zm1.09,-3.304l-0.016,0l-0.694,2.112l1.393,0l-0.683,-2.112Z" style="fill:#e1dfd8;fill-rule:nonzero;"/><path d="M65.933,61.449c-0.334,-0.012 -0.67,-0.029 -1.027,-0.029c-0.363,0 -0.736,0.017 -1.117,0.029l-0.034,0.003l0,-0.033l0,-0.26l0.114,0c0.174,0 0.428,-0.038 0.43,-0.18c0.002,-0.085 -0.065,-0.29 -0.149,-0.527l-0.283,-0.845l-1.645,0l-0.23,0.754c-0.076,0.255 -0.166,0.452 -0.166,0.573c0.002,0.183 0.281,0.225 0.529,0.225l0.115,0l0,0.293l-0.035,-0.003c-0.297,-0.012 -0.603,-0.029 -0.9,-0.029c-0.268,0 -0.535,0.017 -0.803,0.029l-0.035,0.003l0,-0.033l0,-0.26l0.078,0c0.277,0 0.508,-0.157 0.615,-0.46l1.196,-3.424c0.097,-0.276 0.23,-0.648 0.297,-0.945c0.232,-0.08 0.531,-0.23 0.675,-0.32c0.022,-0.008 0.043,-0.018 0.072,-0.018c0.018,-0.001 0.059,0.004 0.083,0.044c0.021,0.061 0.045,0.128 0.068,0.188l1.373,3.902c0.088,0.26 0.176,0.537 0.275,0.756c0.084,0.199 0.223,0.277 0.463,0.277l0.076,0l0,0.293l-0.035,-0.003Zm-2.113,-0.066c0.367,-0.012 0.732,-0.027 1.086,-0.027c0.348,0 0.672,0.015 0.998,0.027l0,-0.156l-0.012,0c-0.256,0.002 -0.431,-0.098 -0.523,-0.318c-0.098,-0.226 -0.19,-0.502 -0.278,-0.764l-1.373,-3.901c-0.021,-0.058 -0.042,-0.126 -0.062,-0.18c-0.008,-0.006 -0.004,-0.006 -0.012,-0.006l-0.014,0c-0.015,0 -0.023,0.004 -0.042,0.009c-0.145,0.094 -0.444,0.241 -0.664,0.299c-0.045,0.281 -0.182,0.654 -0.278,0.931l-1.193,3.424c-0.115,0.324 -0.375,0.507 -0.678,0.506l-0.014,0l0,0.156c0.258,-0.012 0.516,-0.027 0.774,-0.027c0.289,0 0.584,0.015 0.867,0.027l0,-0.156l-0.047,0c-0.244,-0.003 -0.582,-0.03 -0.592,-0.293c0.002,-0.149 0.092,-0.339 0.164,-0.592l0.034,0.009l-0.034,-0.01l0.247,-0.798l1.74,0l0.299,0.887c0.082,0.24 0.152,0.438 0.152,0.549c-0.012,0.229 -0.326,0.244 -0.496,0.248l-0.049,0l0,0.156Zm-1.525,-2.193l0.714,-2.175l0.042,0l0,0.032l-0.008,0.002l0.008,-0.002l0,-0.032l0.021,0l0.709,2.175l-1.486,0Zm0.089,-0.065l1.307,0l-0.648,-1.998l-0.659,1.998Zm0.633,-2.068l0.018,-0.006l-0.018,0.006Z" style="fill:#e1dfd8;fill-rule:nonzero;"/><path d="M66.263,56.584c-0.558,0 -0.582,0.134 -0.693,0.679l-0.225,0c0.03,-0.209 0.069,-0.417 0.092,-0.634c0.029,-0.21 0.041,-0.418 0.041,-0.633l0.182,0c0.06,0.224 0.248,0.215 0.447,0.215l3.85,0c0.201,0 0.386,-0.006 0.4,-0.231l0.18,0.031c-0.029,0.2 -0.059,0.403 -0.08,0.603c-0.016,0.202 -0.016,0.404 -0.016,0.604l-0.225,0.084c-0.013,-0.276 -0.05,-0.718 -0.55,-0.718l-1.225,0l0,3.97c0,0.574 0.262,0.641 0.619,0.641l0.143,0l0,0.224c-0.291,0 -0.813,-0.03 -1.217,-0.03c-0.447,0 -0.969,0.03 -1.26,0.03l0,-0.224l0.141,0c0.412,0 0.619,-0.038 0.619,-0.627l0,-3.984l-1.223,0Z" style="fill:#e1dfd8;fill-rule:nonzero;"/><path d="M69.203,61.449c-0.293,0 -0.817,-0.029 -1.217,-0.029c-0.445,0 -0.967,0.029 -1.26,0.029l-0.033,0l0,-0.03l0,-0.258l0.174,0c0.412,-0.008 0.576,-0.014 0.588,-0.593l-0.002,-3.951l-1.19,0l0,-0.033l0,-0.033l1.256,0l0,4.017c0,0.599 -0.242,0.658 -0.652,0.659l-0.109,0l0,0.159c0.294,-0.003 0.796,-0.03 1.228,-0.03c0.391,0 0.889,0.027 1.184,0.03l0,-0.159l-0.11,0c-0.359,-0.001 -0.648,-0.087 -0.65,-0.673l0,-4.003l1.256,0c0.5,0.002 0.564,0.428 0.58,0.704l0.162,-0.059c0,-0.194 0.002,-0.389 0.016,-0.585c0.021,-0.192 0.048,-0.382 0.074,-0.572l-0.112,-0.019c-0.035,0.216 -0.244,0.227 -0.429,0.224l-3.85,0l-0.039,0c-0.174,0.002 -0.365,-0.007 -0.434,-0.217l-0.123,0c0,0.207 -0.013,0.408 -0.043,0.606c-0.021,0.206 -0.056,0.403 -0.085,0.599l0.16,0c0.097,-0.52 0.164,-0.688 0.72,-0.681l0,0.066c-0.552,0.009 -0.539,0.102 -0.662,0.654l-0.004,0.026l-0.027,0l-0.262,0l0.006,-0.037c0.029,-0.211 0.066,-0.419 0.088,-0.635c0.031,-0.208 0.045,-0.416 0.045,-0.629l0,-0.032l0.236,0l0.006,0.022c0.055,0.189 0.19,0.19 0.379,0.193c0.014,0 0.025,0.002 0.039,0.002l3.85,0c0.205,-0.005 0.357,-0.008 0.369,-0.202l0.002,-0.036l0.033,0.007l0.215,0.033l-0.008,0.033c-0.031,0.2 -0.059,0.401 -0.082,0.601c-0.014,0.199 -0.014,0.401 -0.014,0.601l0,0.023l-0.021,0.009l-0.266,0.095l0,-0.043c-0.019,-0.279 -0.047,-0.685 -0.519,-0.685l-1.192,0l0,3.937c0.008,0.562 0.231,0.6 0.586,0.607l0.174,0l0,0.288l-0.031,0Z" style="fill:#e1dfd8;fill-rule:nonzero;"/><path d="M70.812,61.195l0.106,0c0.267,0 0.55,-0.038 0.55,-0.427l0,-3.906c0,-0.389 -0.283,-0.426 -0.55,-0.426l-0.106,0l0,-0.225c0.291,0 0.739,0.03 1.104,0.03c0.373,0 0.82,-0.03 1.172,-0.03l0,0.225l-0.104,0c-0.271,0 -0.555,0.037 -0.555,0.426l0,3.906c0,0.389 0.284,0.427 0.555,0.427l0.104,0l0,0.224c-0.36,0 -0.805,-0.03 -1.178,-0.03c-0.367,0 -0.807,0.03 -1.098,0.03l0,-0.224Z" style="fill:#e1dfd8;fill-rule:nonzero;"/><path d="M73.088,61.449c-0.362,0 -0.809,-0.029 -1.178,-0.029c-0.365,0 -0.805,0.029 -1.098,0.029l-0.033,0l0,-0.03l0,-0.224l0,-0.034l0.139,0c0.267,-0.004 0.515,-0.027 0.517,-0.393l0,-3.906c-0.002,-0.364 -0.25,-0.389 -0.517,-0.394l-0.139,0l0,-0.032l0,-0.255l0.033,0c0.293,0 0.74,0.027 1.104,0.027c0.371,0 0.818,-0.027 1.172,-0.027l0.031,0l0,0.287l-0.031,0l-0.104,0c-0.275,0.005 -0.519,0.03 -0.521,0.394l0,3.906c0.002,0.366 0.246,0.389 0.521,0.393l0.135,0l0,0.288l-0.031,0Zm-0.034,-0.064l0,-0.158l-0.07,0c-0.269,0 -0.586,-0.045 -0.586,-0.459l0,-3.906c0,-0.413 0.317,-0.459 0.586,-0.459l0.07,0l0,-0.159c-0.345,0.002 -0.777,0.03 -1.138,0.03c-0.354,0 -0.782,-0.028 -1.073,-0.03l0,0.159l0.075,0c0.263,0 0.584,0.046 0.584,0.459l0,3.906c0,0.414 -0.321,0.459 -0.584,0.459l-0.075,0l0,0.158c0.29,-0.004 0.709,-0.029 1.067,-0.029c0.359,0 0.791,0.027 1.144,0.029Z" style="fill:#e1dfd8;fill-rule:nonzero;"/><path d="M76.062,56.1c1.59,0 2.856,0.986 2.856,2.574c0,1.717 -1.229,2.856 -2.817,2.856c-1.582,0 -2.791,-1.073 -2.791,-2.677c0,-1.551 1.201,-2.753 2.752,-2.753Zm0.114,5.102c1.447,0 1.699,-1.276 1.699,-2.364c0,-1.09 -0.588,-2.409 -1.826,-2.409c-1.305,0 -1.694,1.163 -1.694,2.161c0,1.336 0.611,2.612 1.821,2.612Z" style="fill:#e1dfd8;fill-rule:nonzero;"/><path d="M73.277,58.853c0.002,-1.57 1.217,-2.782 2.785,-2.786l0,0.066c-1.533,0 -2.721,1.184 -2.721,2.72c0.002,1.585 1.192,2.643 2.758,2.644c1.575,-0.001 2.787,-1.126 2.789,-2.825c0,-1.568 -1.248,-2.538 -2.826,-2.539l0,-0.033l0,-0.033c1.602,0.003 2.885,0.998 2.889,2.605c-0.002,1.735 -1.248,2.887 -2.852,2.89c-1.595,-0.003 -2.82,-1.088 -2.822,-2.709Zm1.045,-0.263c0.002,-1.004 0.393,-2.194 1.727,-2.194c1.265,0.003 1.855,1.346 1.859,2.442c-0.004,1.088 -0.258,2.394 -1.732,2.394l0,-0.03l0,-0.032c1.417,-0.002 1.664,-1.244 1.667,-2.332c0,-1.081 -0.584,-2.376 -1.794,-2.379c-1.282,0.003 -1.659,1.138 -1.663,2.131c0.002,1.329 0.608,2.577 1.79,2.58l0,0.062c-1.239,-0.002 -1.852,-1.299 -1.854,-2.642Z" style="fill:#e1dfd8;fill-rule:nonzero;"/><path d="M83.947,59.949l0.016,-0.016l0,-2.796c0,-0.612 -0.428,-0.701 -0.653,-0.701l-0.16,0l0,-0.225c0.348,0 0.691,0.03 1.041,0.03c0.307,0 0.613,-0.03 0.92,-0.03l0,0.225l-0.113,0c-0.315,0 -0.664,0.059 -0.664,0.947l0,3.394c0,0.262 0.006,0.521 0.045,0.753l-0.284,0l-3.841,-4.281l0,3.072c0,0.651 0.125,0.874 0.701,0.874l0.127,0l0,0.224c-0.321,0 -0.641,-0.03 -0.961,-0.03c-0.338,0 -0.68,0.03 -1.018,0.03l0,-0.224l0.108,0c0.515,0 0.669,-0.351 0.669,-0.947l0,-3.142c0,-0.417 -0.341,-0.67 -0.679,-0.67l-0.098,0l0,-0.225c0.285,0 0.574,0.03 0.86,0.03c0.222,0 0.439,-0.03 0.664,-0.03l3.32,3.738Z" style="fill:#e1dfd8;fill-rule:nonzero;"/><path d="M84.379,61.562l-0.309,-0.011l-3.785,-4.219l0,2.989c0.01,0.651 0.109,0.833 0.668,0.838l0.16,0l0,0.29l-0.031,0c-0.323,0 -0.645,-0.029 -0.963,-0.029c-0.334,0 -0.676,0.029 -1.016,0.029l-0.031,0l0,-0.031l0,-0.259l0.139,0c0.49,-0.001 0.632,-0.317 0.636,-0.911l0,-3.142c0,-0.397 -0.326,-0.638 -0.646,-0.638l-0.129,0l0,-0.032l0,-0.255l0.031,0c0.287,0 0.576,0.027 0.86,0.027c0.22,0 0.435,-0.027 0.687,-0.017l3.277,3.69l0,-2.743c-0.001,-0.594 -0.398,-0.665 -0.617,-0.67l-0.195,0l0,-0.032l0,-0.255l0.033,0c0.352,0 0.695,0.027 1.041,0.027c0.307,0 0.612,-0.027 0.922,-0.027l0.031,0l0,0.287l-0.031,0l-0.113,0c-0.307,0.009 -0.625,0.036 -0.633,0.914l0,3.395c0,0.261 0.008,0.52 0.045,0.748l0.006,0.037l-0.037,0Zm-0.284,-0.065l0.245,0c-0.032,-0.225 -0.038,-0.472 -0.038,-0.72l0,-3.395c0,-0.896 0.377,-0.977 0.696,-0.979l0.08,0l0,-0.159c-0.295,0.002 -0.588,0.03 -0.889,0.03c-0.338,0 -0.672,-0.028 -1.008,-0.03l0,0.159l0.129,0c0.231,0.002 0.682,0.103 0.682,0.735l-0.008,2.819l-0.016,0.014l-0.021,0.024l-3.32,-3.751c-0.221,0 -0.438,0.03 -0.664,0.03c-0.276,0 -0.555,-0.028 -0.827,-0.03l0,0.159l0.065,0c0.351,0.002 0.711,0.267 0.711,0.703l0,3.142c0,0.596 -0.166,0.978 -0.701,0.98l-0.075,-0.001l0,0.158c0.327,-0.002 0.657,-0.029 0.983,-0.029c0.312,0 0.621,0.027 0.932,0.029l0,-0.157l-0.098,0c-0.586,-0.001 -0.733,-0.256 -0.733,-0.907l0,-3.157l3.875,4.333Zm-0.148,-1.548l0.021,-0.022l-0.021,0.022Zm-0.02,-0.016l0,-0.001l-0.003,-0.006l0.003,0.007Z" style="fill:#e1dfd8;fill-rule:nonzero;"/><path d="M86.308,60.351c-0.072,0.253 -0.164,0.448 -0.164,0.582c0,0.224 0.315,0.262 0.561,0.262l0.082,0l0,0.224c-0.299,-0.017 -0.606,-0.03 -0.904,-0.03c-0.268,0 -0.536,0.013 -0.803,0.03l0,-0.224l0.041,0c0.293,0 0.541,-0.172 0.65,-0.486l1.195,-3.423c0.096,-0.276 0.231,-0.649 0.274,-0.926c0.24,-0.082 0.539,-0.23 0.682,-0.319c0.021,-0.007 0.035,-0.016 0.058,-0.016c0.022,0 0.037,0 0.051,0.024c0.023,0.058 0.047,0.126 0.068,0.185l1.371,3.901c0.09,0.262 0.18,0.536 0.278,0.762c0.09,0.209 0.246,0.298 0.492,0.298l0.045,0l0,0.224c-0.336,-0.017 -0.672,-0.03 -1.031,-0.03c-0.364,0 -0.737,0.013 -1.118,0.03l0,-0.224l0.082,0c0.172,0 0.463,-0.03 0.463,-0.216c0,-0.098 -0.066,-0.299 -0.15,-0.539l-0.291,-0.865l-1.693,0l-0.239,0.776Zm1.092,-3.304l-0.017,0l-0.694,2.112l1.397,0l-0.686,-2.112Z" style="fill:#e1dfd8;fill-rule:nonzero;"/><path d="M90.283,61.449c-0.338,-0.012 -0.672,-0.029 -1.029,-0.029c-0.362,0 -0.737,0.017 -1.116,0.029l-0.033,0.003l0,-0.034l0,-0.257l0.113,0c0.174,0 0.43,-0.04 0.43,-0.182c0.002,-0.085 -0.064,-0.289 -0.148,-0.527l-0.284,-0.845l-1.646,0l-0.229,0.754c-0.078,0.255 -0.165,0.452 -0.164,0.572c0,0.184 0.28,0.228 0.526,0.228l0.115,0l0,0.291l-0.033,-0.003c-0.299,-0.012 -0.604,-0.029 -0.902,-0.029c-0.266,0 -0.534,0.017 -0.803,0.029l-0.033,0.003l0,-0.034l0,-0.257l0.074,0c0.279,-0.002 0.512,-0.16 0.621,-0.462l1.193,-3.424c0.096,-0.276 0.231,-0.648 0.295,-0.945c0.236,-0.081 0.535,-0.23 0.68,-0.32c0.019,-0.008 0.039,-0.017 0.07,-0.017c0.02,-0.002 0.059,0.003 0.082,0.046c0.022,0.056 0.043,0.125 0.068,0.185l1.372,3.902c0.089,0.26 0.179,0.537 0.275,0.757c0.09,0.198 0.223,0.276 0.461,0.278l0.08,0l0,0.291l-0.035,-0.003Zm-2.115,-0.064c0.371,-0.014 0.732,-0.029 1.086,-0.029c0.349,0 0.673,0.015 0.998,0.027l-0.002,-0.156l-0.012,0c-0.252,0.001 -0.428,-0.098 -0.52,-0.318c-0.099,-0.226 -0.187,-0.502 -0.277,-0.763l-1.373,-3.902c-0.021,-0.058 -0.045,-0.126 -0.06,-0.178c-0.008,-0.008 -0.008,-0.008 -0.012,-0.008l-0.016,0c-0.015,0 -0.025,0.004 -0.043,0.009c-0.144,0.093 -0.443,0.242 -0.664,0.299c-0.045,0.281 -0.182,0.654 -0.277,0.931l-1.195,3.424c-0.114,0.324 -0.374,0.507 -0.68,0.506l-0.01,0l0,0.156c0.258,-0.012 0.514,-0.027 0.772,-0.027c0.291,0 0.585,0.015 0.871,0.027l0,-0.156l-0.051,0c-0.242,-0.003 -0.582,-0.029 -0.592,-0.294c0.002,-0.148 0.094,-0.337 0.166,-0.591l0.031,0.009l-0.031,-0.01l0.248,-0.798l1.738,0l0.297,0.887c0.084,0.24 0.153,0.438 0.153,0.549c-0.012,0.229 -0.325,0.244 -0.495,0.248l-0.05,0l0,0.158Zm-1.524,-2.195l0.715,-2.175l0.041,0l0,0.032l-0.01,0.002l0.01,-0.002l0,-0.032l0.022,0l0.707,2.175l-1.485,0Zm0.09,-0.065l1.305,0l-0.651,-1.997l-0.654,1.997Zm0.635,-2.068l0.014,-0.006l-0.014,0.006Z" style="fill:#e1dfd8;fill-rule:nonzero;"/><path d="M92.164,60.688c0,0.299 0.209,0.387 0.447,0.418c0.305,0.022 0.641,0.022 0.986,-0.017c0.313,-0.037 0.58,-0.215 0.715,-0.401c0.119,-0.165 0.186,-0.374 0.231,-0.538l0.216,0c-0.082,0.425 -0.187,0.844 -0.275,1.269c-0.656,0 -1.314,-0.03 -1.969,-0.03c-0.658,0 -1.312,0.03 -1.97,0.03l0,-0.224l0.103,0c0.27,0 0.561,-0.038 0.561,-0.5l0,-3.833c0,-0.389 -0.291,-0.426 -0.561,-0.426l-0.103,0l0,-0.225c0.396,0 0.783,0.03 1.179,0.03c0.381,0 0.752,-0.03 1.133,-0.03l0,0.225l-0.187,0c-0.282,0 -0.506,0.007 -0.506,0.403l0,3.849Z" style="fill:#e1dfd8;fill-rule:nonzero;"/><path d="M94.484,61.449c-0.658,0 -1.314,-0.029 -1.969,-0.029c-0.658,0 -1.312,0.029 -1.972,0.029l-0.03,0l0,-0.031l0,-0.257l0.135,0c0.27,-0.006 0.526,-0.024 0.528,-0.466l0,-3.834c-0.002,-0.363 -0.256,-0.388 -0.528,-0.393l-0.135,0l0,-0.032l0,-0.255l0.03,0c0.398,0 0.787,0.027 1.181,0.027c0.379,0 0.75,-0.027 1.133,-0.027l0.031,0l0,0.287l-0.031,0l-0.187,0c-0.287,0.008 -0.469,-0.006 -0.475,0.371l0,3.849c0.002,0.277 0.185,0.353 0.418,0.384c0.131,0.009 0.27,0.015 0.414,0.015c0.182,0 0.371,-0.008 0.564,-0.028c0.305,-0.036 0.567,-0.212 0.694,-0.391c0.115,-0.158 0.181,-0.363 0.224,-0.525l0.008,-0.025l0.282,0l-0.006,0.039c-0.086,0.427 -0.188,0.843 -0.28,1.268l-0.005,0.024l-0.024,0Zm-0.027,-0.064c0.086,-0.404 0.183,-0.8 0.263,-1.202l-0.154,0c-0.045,0.161 -0.113,0.362 -0.228,0.525c-0.141,0.192 -0.416,0.374 -0.741,0.414c-0.195,0.02 -0.386,0.032 -0.57,0.032c-0.144,0 -0.285,-0.007 -0.42,-0.017c-0.244,-0.027 -0.478,-0.131 -0.477,-0.449l0,-3.849c0,-0.416 0.262,-0.436 0.54,-0.436l0.154,0l0,-0.159c-0.367,0.002 -0.729,0.03 -1.1,0.03c-0.388,0 -0.765,-0.028 -1.148,-0.03l0,0.159l0.072,0c0.266,0 0.594,0.046 0.594,0.458l0,3.834c0,0.482 -0.324,0.532 -0.594,0.532l-0.072,0l0,0.158c0.646,0 1.291,-0.029 1.939,-0.029c0.649,0 1.295,0.029 1.942,0.029Z" style="fill:#e1dfd8;fill-rule:nonzero;"/></svg>