<?xml version="1.0" encoding="UTF-8" standalone="no"?><!DOCTYPE svg PUBLIC "-//W3C//DTD SVG 1.1//EN" "http://www.w3.org/Graphics/SVG/1.1/DTD/svg11.dtd"><svg width="100%" height="100%" viewBox="0 0 126 79" version="1.1" xmlns="http://www.w3.org/2000/svg" xmlns:xlink="http://www.w3.org/1999/xlink" xml:space="preserve" style="fill-rule:evenodd;clip-rule:evenodd;stroke-linejoin:round;stroke-miterlimit:1.41421;"><path d="M125.427,74.213c0,2.309 -1.873,4.182 -4.181,4.182l-117.067,0c-2.308,0 -4.179,-1.873 -4.179,-4.182l0,-70.031c0,-2.311 1.871,-4.182 4.179,-4.182l117.067,0c2.308,0 4.181,1.871 4.181,4.182l0,70.031Z" style="fill:#d6d6cf;fill-rule:nonzero;"/><path d="M34.476,78.395l86.77,0c2.308,0 4.181,-1.873 4.181,-4.182l0,-29.353c-8.328,5.279 -39.726,23.48 -90.951,33.535Z" style="fill:#d67529;fill-rule:nonzero;"/><path d="M64.246,33.092c-3.457,0 -6.26,2.699 -6.26,6.031c0,3.543 2.68,6.19 6.26,6.19c3.486,0 6.24,-2.682 6.24,-6.121c0,-3.416 -2.736,-6.1 -6.24,-6.1Z" style="fill:url(#_Radial1);"/><path d="M31.386,42.127c-0.724,0.653 -1.654,0.934 -3.136,0.934l-0.616,0l0,-7.762l0.616,0c1.482,0 2.377,0.264 3.136,0.949c0.791,0.705 1.262,1.795 1.262,2.92c0,1.129 -0.471,2.258 -1.262,2.959Zm-2.677,-8.816l-3.364,0l0,11.738l3.348,0c1.775,0 3.06,-0.422 4.188,-1.353c1.335,-1.112 2.128,-2.784 2.128,-4.51c0,-3.465 -2.587,-5.875 -6.3,-5.875Z" style="fill:#242a2d;fill-rule:nonzero;"/><rect x="36.066" y="33.311" width="2.285" height="11.738" style="fill:#242a2d;fill-rule:nonzero;"/><path d="M43.951,37.813c-1.375,-0.508 -1.777,-0.844 -1.777,-1.477c0,-0.738 0.72,-1.301 1.707,-1.301c0.685,0 1.247,0.282 1.849,0.948l1.195,-1.563c-0.986,-0.865 -2.166,-1.304 -3.451,-1.304c-2.074,0 -3.66,1.443 -3.66,3.361c0,1.621 0.738,2.447 2.887,3.221c0.898,0.316 1.355,0.527 1.584,0.669c0.457,0.301 0.687,0.721 0.687,1.213c0,0.953 -0.756,1.655 -1.779,1.655c-1.092,0 -1.971,-0.543 -2.498,-1.565l-1.477,1.428c1.053,1.547 2.321,2.234 4.065,2.234c2.375,0 4.047,-1.586 4.047,-3.855c0,-1.865 -0.772,-2.711 -3.379,-3.664Z" style="fill:#242a2d;fill-rule:nonzero;"/><path d="M48.05,39.186c0,3.453 2.711,6.127 6.198,6.127c0.986,0 1.83,-0.194 2.869,-0.686l0,-2.693c-0.916,0.916 -1.727,1.283 -2.764,1.283c-2.304,0 -3.943,-1.672 -3.943,-4.049c0,-2.25 1.687,-4.029 3.838,-4.029c1.09,0 1.918,0.389 2.869,1.32l0,-2.693c-1.002,-0.51 -1.832,-0.719 -2.817,-0.719c-3.468,0 -6.25,2.729 -6.25,6.139Z" style="fill:#242a2d;fill-rule:nonzero;"/><path d="M75.666,41.196l-3.131,-7.885l-2.502,0l4.984,12.039l1.231,0l5.07,-12.039l-2.48,0l-3.172,7.885Z" style="fill:#242a2d;fill-rule:nonzero;"/><path d="M82.359,45.049l6.492,0l0,-1.988l-4.207,0l0,-3.17l4.047,0l0,-1.986l-4.047,0l0,-2.606l4.207,0l0,-1.988l-6.492,0l0,11.738Z" style="fill:#242a2d;fill-rule:nonzero;"/><path d="M93.32,38.713l-0.666,0l0,-3.556l0.703,0c1.428,0 2.201,0.601 2.201,1.742c0,1.179 -0.773,1.814 -2.238,1.814Zm4.594,-1.937c0,-2.2 -1.512,-3.465 -4.153,-3.465l-3.398,0l0,11.738l2.291,0l0,-4.717l0.299,0l3.168,4.717l2.814,0l-3.697,-4.945c1.726,-0.352 2.676,-1.531 2.676,-3.328Z" style="fill:#242a2d;fill-rule:nonzero;"/><path d="M99.095,34.326l-0.043,0l0,-0.267l0.045,0c0.125,0 0.186,0.043 0.186,0.131c0,0.09 -0.063,0.136 -0.188,0.136Zm0.434,-0.14c0,-0.205 -0.139,-0.319 -0.391,-0.319l-0.332,0l0,1.036l0.246,0l0,-0.403l0.287,0.403l0.309,0l-0.344,-0.428c0.145,-0.039 0.225,-0.145 0.225,-0.289Z" style="fill:#2f2d2b;fill-rule:nonzero;"/><path d="M99.187,35.123c-0.4,0 -0.723,-0.328 -0.723,-0.738c0,-0.414 0.319,-0.742 0.723,-0.742c0.391,0 0.711,0.334 0.711,0.742c0,0.406 -0.32,0.738 -0.711,0.738Zm0.002,-1.644c-0.502,0 -0.902,0.402 -0.902,0.904c0,0.5 0.402,0.902 0.902,0.902c0.49,0 0.893,-0.406 0.893,-0.902c0,-0.496 -0.403,-0.904 -0.893,-0.904Z" style="fill:#2f2d2b;fill-rule:nonzero;"/><defs><radialGradient id="_Radial1" cx="0" cy="0" r="1" gradientUnits="userSpaceOnUse" gradientTransform="matrix(6.18057,0,0,6.18057,64.236,39.202)"><stop offset="0" style="stop-color:#e0d0bf;stop-opacity:1"/><stop offset="0.7" style="stop-color:#d9965c;stop-opacity:1"/><stop offset="1" style="stop-color:#d57429;stop-opacity:1"/></radialGradient></defs></svg>