<?xml version="1.0" encoding="UTF-8" standalone="no"?><!DOCTYPE svg PUBLIC "-//W3C//DTD SVG 1.1//EN" "http://www.w3.org/Graphics/SVG/1.1/DTD/svg11.dtd"><svg width="100%" height="100%" viewBox="0 0 126 79" version="1.1" xmlns="http://www.w3.org/2000/svg" xmlns:xlink="http://www.w3.org/1999/xlink" xml:space="preserve" style="fill-rule:evenodd;clip-rule:evenodd;stroke-linejoin:round;stroke-miterlimit:1.41421;"><path d="M125.43,74.212c0,2.309 -1.873,4.18 -4.182,4.18l-117.068,0c-2.309,0 -4.18,-1.871 -4.18,-4.18l0,-70.03c0,-2.311 1.871,-4.182 4.18,-4.182l117.068,0c2.309,0 4.182,1.871 4.182,4.182l0,70.03Z" style="fill:#fdba12;fill-rule:nonzero;"/><path d="M113.607,96l-74.661,0l74.661,0c5.431,0 9.875,-4.446 9.875,-9.877l0,-37.031l0,-15.94l0,-6.275l0,59.246c0,5.431 -4.442,9.877 -9.875,9.877Zm9.875,-69.123c0,-5.432 -4.444,-9.877 -9.875,-9.877c5.433,0 9.875,4.442 9.875,9.877Z" style="fill:#fff;fill-rule:nonzero;"/><rect x="0" y="16.152" width="125.43" height="16.528" style="fill:#191919;"/><rect x="0" y="40.359" width="79.841" height="10.404" style="fill:#fff;"/><rect x="84.361" y="40.359" width="31.16" height="10.404" style="fill:#fff;"/><path d="M125.43,32.681l-60.3,0l9.297,-16.529l51.003,0l0,16.529Z" style="fill:#4f5050;fill-rule:nonzero;"/><path d="M79.841,50.764l-24.882,0l5.852,-10.405l19.03,0l0,10.405Z" style="fill:#fff;fill-rule:nonzero;"/><rect x="84.361" y="40.359" width="31.16" height="10.404" style="fill:#fff;fill-rule:nonzero;"/></svg>