<?xml version="1.0" encoding="UTF-8" standalone="no"?><!DOCTYPE svg PUBLIC "-//W3C//DTD SVG 1.1//EN" "http://www.w3.org/Graphics/SVG/1.1/DTD/svg11.dtd"><svg width="100%" height="100%" viewBox="0 0 126 79" version="1.1" xmlns="http://www.w3.org/2000/svg" xmlns:xlink="http://www.w3.org/1999/xlink" xml:space="preserve" style="fill-rule:evenodd;clip-rule:evenodd;stroke-linejoin:round;stroke-miterlimit:1.41421;"><path d="M125.43,74.213c0,2.309 -1.87,4.182 -4.18,4.182l-117.07,0c-2.31,0 -4.18,-1.873 -4.18,-4.182l0,-70.031c0,-2.311 1.87,-4.182 4.18,-4.182l117.07,0c2.31,0 4.18,1.871 4.18,4.182l0,70.031Z" style="fill:#2c4986;fill-rule:nonzero;"/><path d="M84.55,41.858c0.15,4.568 0.31,9.289 0.08,13.935c-0.15,1.826 -1.3,3.578 -2.97,4.645c-1.3,0.838 -2.9,0.914 -4.57,0.99l-6.05,-0.076l-0.04,-38.76c0.3,-2.59 2.21,-4.797 4.64,-5.482c2.97,-0.381 5.71,-0.229 8.84,-0.305l0.15,1.98l0,22.006l-0.08,0.076l0,0.991Z" style="fill:#e1dfd8;fill-rule:nonzero;"/><path d="M40.69,40.412l0,-18.277c0.38,-2.057 2.06,-3.959 4.04,-4.721c2.97,-0.914 6.39,-0.379 9.44,-0.459c0.15,2.973 0,6.703 0.08,9.293l0.15,23.832c-0.39,3.657 0.99,8.606 -3.58,10.662c-2.89,1.446 -6.78,0.534 -10.05,0.838l-0.08,-0.533l0,-19.875l0,-0.76Z" style="fill:#e1dfd8;fill-rule:nonzero;"/><path d="M69.4,19.471l0.07,37.084c-0.53,1.75 -1.9,3.654 -3.8,4.34c-2.9,0.988 -6.48,0.533 -9.67,0.533l-0.16,-39.064c0.16,-1.829 1.37,-3.426 2.97,-4.416c1.15,-0.762 2.52,-0.993 3.96,-1.067l6.48,0l0.15,2.59Z" style="fill:#e1dfd8;fill-rule:nonzero;"/><path d="M40.69,41.172c1.22,1.6 2.89,2.817 4.95,2.893c2.51,0.23 5.79,0.457 7.46,-1.903c1.15,-1.218 0.46,-2.892 0.69,-4.492l-0.08,-2.894c-1.45,-0.305 -2.74,0 -4.41,-0.077c-0.84,3.124 1.37,6.625 -2.21,8.225c-0.84,0.229 -2.06,0.076 -2.9,-0.457c-1.37,-0.305 -0.61,-2.514 -2.43,-1.904l-1.07,-0.151l0,0.76Z" style="fill:#2c4986;fill-rule:nonzero;"/><path d="M68.79,34.776c0.15,0.457 0,0.838 0.07,1.371c-2.28,-0.61 -5.1,-1.295 -7.15,0.381c-0.76,0.912 -1.22,1.828 -1.14,3.045c0.22,1.371 1.06,2.666 2.36,3.199c1.98,0.609 4.03,0.076 5.86,-0.383c0.07,0.383 0.15,0.914 0,1.219l-8.76,0c-1.52,-0.305 -2.74,-1.141 -3.42,-2.664c-0.61,-1.448 -0.31,-3.426 0.76,-4.645c0.91,-1.066 2.21,-1.676 3.65,-1.6l7.77,0.077Z" style="fill:#2c4986;fill-rule:nonzero;"/><path d="M79.53,39.801c-1.45,-0.228 -2.9,-0.152 -4.27,-0.076c-0.08,1.142 0,2.057 0.15,3.123c1.53,0 3.2,0.226 4.57,-0.459c0.38,-0.379 0.61,-0.988 0.46,-1.522c-0.08,-0.455 -0.46,-0.837 -0.91,-1.066Zm-4.12,-4.187c-0.23,0.835 -0.23,1.98 -0.07,2.892c1.6,-0.074 3.65,0.533 4.72,-0.683c0.38,-0.459 0.15,-1.219 -0.08,-1.602c-1.22,-1.064 -3.04,-0.379 -4.57,-0.607Zm9.14,6.244c-0.23,0.914 -0.99,1.75 -1.9,1.902l-10.66,0l-0.38,-0.152c0,-3.045 -0.08,-5.938 0.07,-8.909l6.78,0c2.13,0.229 4.49,-0.685 5.48,1.295c0.31,0.686 0.23,1.6 -0.3,2.133c-0.31,0.531 -0.99,0.61 -1.14,0.989c0.83,0.228 1.75,0.914 2.05,1.751l0,0.991Z" style="fill:#2c4986;fill-rule:nonzero;"/></svg>