<?xml version="1.0" encoding="UTF-8" standalone="no"?><!DOCTYPE svg PUBLIC "-//W3C//DTD SVG 1.1//EN" "http://www.w3.org/Graphics/SVG/1.1/DTD/svg11.dtd"><svg width="100%" height="100%" viewBox="0 0 126 79" version="1.1" xmlns="http://www.w3.org/2000/svg" xmlns:xlink="http://www.w3.org/1999/xlink" xml:space="preserve" style="fill-rule:evenodd;clip-rule:evenodd;stroke-miterlimit:1.41421;"><path d="M125.43,74.212c0,2.309 -1.87,4.18 -4.18,4.18l-117.07,0c-2.31,0 -4.18,-1.871 -4.18,-4.18l0,-70.03c0,-2.311 1.87,-4.182 4.18,-4.182l117.07,0c2.31,0 4.18,1.871 4.18,4.182l0,70.03Z" style="fill:#2b456c;fill-rule:nonzero;"/><path d="M77.64,61.709l1.17,-0.031l1.14,-0.088l1.13,-0.141l1.11,-0.2l1.09,-0.25l1.07,-0.305l1.05,-0.354l1.03,-0.407l1,-0.452l0.96,-0.496l0.95,-0.54l0.91,-0.591l0.89,-0.629l0.85,-0.665l0.82,-0.71l0.78,-0.748l0.74,-0.785l0.72,-0.821l0.67,-0.85l0.63,-0.881l0.58,-0.917l0.54,-0.947l0.5,-0.97l0.46,-0.998l0.4,-1.029l0.35,-1.042l0.3,-1.073l0.25,-1.087l0.21,-1.117l0.14,-1.125l0.08,-1.147l0.04,-1.162l-0.04,-1.153l-0.08,-1.14l-0.14,-1.117l-0.21,-1.109l-0.25,-1.08l-0.3,-1.065l-0.35,-1.044l-0.4,-1.021l-0.46,-0.99l-0.5,-0.971l-0.54,-0.94l-0.58,-0.917l-0.63,-0.879l-0.67,-0.852l-0.72,-0.814l-0.74,-0.783l-0.78,-0.741l-0.82,-0.71l-0.85,-0.666l-0.89,-0.629l-0.91,-0.583l-0.95,-0.54l-0.96,-0.504l-1,-0.451l-1.03,-0.4l-1.05,-0.355l-1.07,-0.303l-1.09,-0.251l-1.11,-0.201l-1.13,-0.14l-1.14,-0.088l-1.17,-0.03l-1.16,0.03l-1.14,0.088l-1.13,0.14l-1.11,0.201l-1.09,0.251l-1.07,0.303l-1.05,0.355l-1.02,0.4l-1,0.451l-0.97,0.504l-0.94,0.54l-0.91,0.583l-0.88,0.629l-0.86,0.666l-0.81,0.71l-0.78,0.741l-0.74,0.783l-0.71,0.814l-0.67,0.852l-0.63,0.879l-0.58,0.917l-0.54,0.94l-0.5,0.971l-0.44,0.99l-0.41,1.021l-0.35,1.044l-0.3,1.065l-0.25,1.08l-0.2,1.109l-0.14,1.117l-0.09,1.14l-0.03,1.153l0.03,1.162l0.09,1.147l0.14,1.125l0.2,1.117l0.25,1.087l0.3,1.073l0.35,1.042l0.41,1.029l0.44,0.998l0.5,0.97l0.54,0.947l0.58,0.917l0.63,0.881l0.67,0.85l0.71,0.821l0.74,0.785l0.78,0.748l0.81,0.71l0.86,0.665l0.88,0.629l0.91,0.591l0.94,0.54l0.97,0.496l1,0.452l1.02,0.407l1.05,0.354l1.07,0.305l1.09,0.25l1.11,0.2l1.13,0.141l1.14,0.088l1.16,0.031Z" style="fill:#ce2d34;fill-rule:nonzero;"/><path d="M47.79,61.709l1.16,-0.031l1.14,-0.088l1.13,-0.141l1.11,-0.2l1.09,-0.25l1.07,-0.305l1.05,-0.354l1.02,-0.407l1,-0.452l0.97,-0.496l0.94,-0.54l0.92,-0.591l0.88,-0.629l0.85,-0.665l0.81,-0.71l0.78,-0.748l0.74,-0.785l0.71,-0.821l0.67,-0.85l0.63,-0.881l0.59,-0.917l0.53,-0.947l0.5,-0.97l0.45,-0.998l0.4,-1.029l0.35,-1.042l0.3,-1.073l0.25,-1.087l0.2,-1.117l0.14,-1.125l0.09,-1.147l0.03,-1.162l-0.03,-1.153l-0.09,-1.14l-0.14,-1.117l-0.2,-1.109l-0.25,-1.08l-0.3,-1.065l-0.35,-1.044l-0.4,-1.021l-0.45,-0.99l-0.5,-0.971l-0.53,-0.94l-0.59,-0.917l-0.63,-0.879l-0.67,-0.852l-0.71,-0.814l-0.74,-0.783l-0.78,-0.741l-0.81,-0.71l-0.85,-0.666l-0.88,-0.629l-0.92,-0.583l-0.94,-0.54l-0.97,-0.504l-1,-0.451l-1.02,-0.4l-1.05,-0.355l-1.07,-0.303l-1.09,-0.251l-1.11,-0.201l-1.13,-0.14l-1.14,-0.088l-1.16,-0.03l-1.16,0.03l-1.15,0.088l-1.13,0.14l-1.11,0.201l-1.09,0.251l-1.07,0.303l-1.05,0.355l-1.03,0.4l-0.99,0.451l-0.97,0.504l-0.95,0.54l-0.91,0.583l-0.89,0.629l-0.85,0.666l-0.82,0.71l-0.781,0.741l-0.74,0.783l-0.709,0.814l-0.681,0.852l-0.63,0.879l-0.579,0.917l-0.541,0.94l-0.5,0.971l-0.459,0.99l-0.39,1.021l-0.36,1.044l-0.301,1.065l-0.25,1.08l-0.199,1.109l-0.14,1.117l-0.09,1.14l-0.03,1.153l0.03,1.162l0.09,1.147l0.14,1.125l0.199,1.117l0.25,1.087l0.301,1.073l0.36,1.042l0.39,1.029l0.459,0.998l0.5,0.97l0.541,0.947l0.579,0.917l0.63,0.881l0.681,0.85l0.709,0.821l0.74,0.785l0.781,0.748l0.82,0.71l0.85,0.665l0.89,0.629l0.91,0.591l0.95,0.54l0.97,0.496l0.99,0.452l1.03,0.407l1.05,0.354l1.07,0.305l1.09,0.25l1.11,0.2l1.13,0.141l1.15,0.088l1.16,0.031Z" style="fill:#2a76a8;fill-rule:nonzero;"/><path d="M59.94,25.258l11.42,0l0,-1.257l-10.32,0l-1.1,1.257Z" style="fill:#ce2d34;fill-rule:nonzero;"/><path d="M58.15,27.921l13.21,0l0,-1.25l-12.41,0l-0.8,1.25Z" style="fill:#ce2d34;fill-rule:nonzero;"/><path d="M56.81,30.629l14.55,0l0,-1.258l-13.93,0l-0.62,1.258Z" style="fill:#ce2d34;fill-rule:nonzero;"/><path d="M55.94,33.293l15.42,0l0,-1.251l-15.04,0l-0.38,1.251Z" style="fill:#ce2d34;fill-rule:nonzero;"/><path d="M55.37,35.963l15.99,0l0,-1.258l-15.76,0l-0.23,1.258Z" style="fill:#ce2d34;fill-rule:nonzero;"/><path d="M55.25,41.134l16.11,0l0,-1.258l-16.22,0l0.11,1.258Z" style="fill:#ce2d34;fill-rule:nonzero;"/><path d="M55.64,43.953l15.72,0l0,-1.258l-15.95,0l0.23,1.258Z" style="fill:#ce2d34;fill-rule:nonzero;"/><path d="M56.4,46.24l14.96,0l0,-1.258l-15.35,0l0.39,1.258Z" style="fill:#ce2d34;fill-rule:nonzero;"/><path d="M57.54,49.021l13.82,0l0,-1.258l-14.43,0l0.61,1.258Z" style="fill:#ce2d34;fill-rule:nonzero;"/><path d="M59.14,51.839l12.22,0l0,-1.257l-13.06,0l0.84,1.257Z" style="fill:#ce2d34;fill-rule:nonzero;"/><path d="M61.15,54.546l10.1,0l0,-1.257l-11.2,0l1.1,1.257Z" style="fill:#ce2d34;fill-rule:nonzero;"/><path d="M96.49,52.979l0.06,-0.2l0.12,-0.185l0.14,-0.163l0.16,-0.134l0.18,-0.103l0.2,-0.067l0.22,-0.021l0.22,0.021l0.21,0.067l0.18,0.103l0.16,0.134l0.14,0.163l0.1,0.185l0.07,0.2l-0.23,0l-0.05,-0.141l-0.08,-0.156l-0.1,-0.133l-0.13,-0.104l-0.15,-0.08l-0.17,-0.052l-0.17,-0.016l-0.18,0.016l-0.17,0.052l-0.15,0.08l-0.13,0.104l-0.1,0.133l-0.09,0.156l-0.04,0.141l-0.22,0Z" style="fill:#ce2d34;fill-rule:nonzero;"/><path d="M97.18,52.979l0,-0.267l0.42,0l0.1,0.007l0.08,0.008l0.08,0.023l0.05,0.029l0.05,0.037l0.04,0.044l0.02,0.052l0.01,0.067l-0.2,0l0,-0.037l-0.02,-0.03l-0.02,-0.03l-0.03,-0.022l-0.04,-0.015l-0.03,-0.007l-0.04,-0.007l-0.05,0l-0.22,0l0,0.148l-0.2,0Z" style="fill:#ce2d34;fill-rule:nonzero;"/><path d="M96.47,53.171l0.02,-0.185l0,-0.007l0.22,0l-0.01,0.037l-0.01,0.155l-0.22,0Z" style="fill:#ce2d34;fill-rule:nonzero;"/><path d="M97.18,53.171l0,-0.192l0.2,0l0,0.155l0.31,0l0.05,-0.007l0.03,-0.016l0.03,-0.014l0.02,-0.029l0.01,-0.037l0,-0.052l0.2,0l-0.01,0.066l-0.01,0.06l-0.03,0.043l-0.02,0.023l-0.78,0Z" style="fill:#ce2d34;fill-rule:nonzero;"/><path d="M98.44,53.171l-0.01,-0.155l-0.01,-0.037l0.23,0l0,0.007l0.02,0.185l-0.23,0Z" style="fill:#ce2d34;fill-rule:nonzero;"/><path d="M96.47,53.171l0,0.036l0.02,0.222l0.06,0.208l0.12,0.177l0.14,0.163l0.16,0.126l0.18,0.097l0.2,0.058l0.22,0.023l0.22,-0.023l0.21,-0.058l0.18,-0.097l0.16,-0.126l0.14,-0.163l0.1,-0.177l0.07,-0.208l0.02,-0.222l0,-0.036l-0.23,0l0,0.036l-0.01,0.193l-0.06,0.178l-0.08,0.155l-0.1,0.134l-0.13,0.11l-0.15,0.082l-0.17,0.051l-0.17,0.015l-0.18,-0.015l-0.17,-0.051l-0.15,-0.082l-0.13,-0.11l-0.1,-0.134l-0.09,-0.155l-0.05,-0.178l-0.01,-0.193l0,-0.036l-0.22,0Z" style="fill:#ce2d34;fill-rule:nonzero;"/><path d="M97.18,53.171l0,0.458l0.2,0l0,-0.376l0.19,0l0.23,0.376l0.19,0l-0.27,-0.376l0.06,-0.008l0.07,-0.008l0.05,-0.022l0.05,-0.029l0.01,-0.015l-0.78,0Z" style="fill:#ce2d34;fill-rule:nonzero;"/><path d="M72.77,37.258l-0.15,-0.007l-0.15,-0.015l-0.13,-0.023l-0.13,-0.013l-0.14,-0.024l-0.13,-0.022l-0.14,-0.022l-0.15,-0.022l-0.15,-0.016l-0.17,-0.014l-0.18,-0.015l-0.2,-0.008l-0.22,0l-0.25,0.008l-0.27,0.015l-0.3,0.022l-0.21,0.03l-0.2,0.044l-0.19,0.06l-0.16,0.067l-0.15,0.08l-0.13,0.09l-0.11,0.103l-0.09,0.103l-0.07,0.119l-0.04,0.125l-0.02,0.126l0,0.133l0.03,0.141l0.05,0.14l0.08,0.141l0.1,0.141l0.22,0.193l0.25,0.155l0.3,0.133l0.32,0.11l0.33,0.111l0.34,0.112l0.36,0.125l0.34,0.149l0.32,0.177l0.3,0.215l0.27,0.274l0.22,0.325l0.17,0.399l0.11,0.474l0.04,0.562l-0.04,0.666l-0.08,0.495l-0.13,0.444l-0.17,0.4l-0.22,0.354l-0.25,0.311l-0.27,0.267l-0.31,0.229l-0.32,0.2l-0.34,0.163l-0.36,0.132l-0.36,0.112l-0.36,0.081l-0.36,0.059l-0.36,0.037l-0.34,0.022l-0.33,0.009l-0.46,0l-0.42,-0.009l-0.37,-0.007l-0.35,-0.007l-0.32,-0.014l-0.28,-0.016l-0.27,-0.021l-0.23,-0.031l-0.23,-0.029l-0.2,-0.038l-0.2,-0.036l-0.19,-0.052l-0.17,-0.052l-0.18,-0.051l-0.18,-0.067l-0.19,-0.067l0.46,-2.323l0.11,0.023l0.12,0.036l0.16,0.037l0.17,0.044l0.2,0.038l0.22,0.052l0.24,0.043l0.25,0.045l0.27,0.037l0.28,0.038l0.28,0.029l0.31,0.029l0.3,0.015l0.31,0.007l0.31,0l0.32,-0.015l0.3,-0.051l0.24,-0.081l0.19,-0.119l0.14,-0.132l0.11,-0.157l0.09,-0.161l0.06,-0.163l0.05,-0.163l0.02,-0.17l-0.01,-0.149l-0.04,-0.14l-0.05,-0.118l-0.09,-0.119l-0.1,-0.103l-0.12,-0.097l-0.15,-0.089l-0.15,-0.08l-0.17,-0.082l-0.19,-0.081l-0.19,-0.074l-0.19,-0.074l-0.21,-0.082l-0.2,-0.081l-0.22,-0.089l-0.21,-0.089l-0.2,-0.096l-0.21,-0.111l-0.2,-0.118l-0.19,-0.126l-0.18,-0.141l-0.17,-0.163l-0.16,-0.169l-0.14,-0.193l-0.12,-0.207l-0.11,-0.23l-0.09,-0.244l-0.06,-0.273l-0.03,-0.296l-0.01,-0.326l0.02,-0.348l0.02,-0.214l0.04,-0.208l0.02,-0.198l0.05,-0.193l0.04,-0.186l0.06,-0.184l0.06,-0.17l0.07,-0.17l0.08,-0.156l0.08,-0.155l0.1,-0.141l0.1,-0.14l0.11,-0.133l0.12,-0.127l0.13,-0.118l0.14,-0.111l0.14,-0.103l0.16,-0.096l0.17,-0.089l0.18,-0.089l0.18,-0.074l0.2,-0.074l0.21,-0.059l0.22,-0.06l0.24,-0.051l0.24,-0.044l0.26,-0.037l0.26,-0.03l0.28,-0.022l0.3,-0.014l0.3,-0.015l0.71,0l0.36,0.006l0.31,0.009l0.3,0.014l0.26,0.015l0.24,0.014l0.21,0.023l0.19,0.015l0.17,0.022l0.14,0.022l0.14,0.014l0.12,0.023l0.11,0.015l0.09,0.014l0.09,0.015l0.08,0.008l-0.53,2.397Z" style="fill:#e1dfd8;fill-rule:nonzero;"/><path d="M72.77,37.258l-0.15,-0.007l-0.15,-0.015l-0.13,-0.023l-0.13,-0.013l-0.14,-0.024l-0.13,-0.022l-0.14,-0.022l-0.15,-0.022l-0.15,-0.016l-0.17,-0.014l-0.18,-0.015l-0.2,-0.008l-0.22,0l-0.25,0.008l-0.27,0.015l-0.3,0.022l-0.21,0.03l-0.2,0.044l-0.19,0.06l-0.16,0.067l-0.15,0.08l-0.13,0.09l-0.11,0.103l-0.09,0.103l-0.07,0.119l-0.04,0.125l-0.02,0.126l0,0.133l0.03,0.141l0.05,0.14l0.08,0.141l0.1,0.141l0.22,0.193l0.25,0.155l0.3,0.133l0.32,0.11l0.33,0.111l0.34,0.112l0.36,0.125l0.34,0.149l0.32,0.177l0.3,0.215l0.27,0.274l0.22,0.325l0.17,0.399l0.11,0.474l0.04,0.562l-0.04,0.666l-0.08,0.495l-0.13,0.444l-0.17,0.4l-0.22,0.354l-0.25,0.311l-0.27,0.267l-0.31,0.229l-0.32,0.2l-0.34,0.163l-0.36,0.132l-0.36,0.112l-0.36,0.081l-0.36,0.059l-0.36,0.037l-0.34,0.022l-0.33,0.009l-0.46,0l-0.42,-0.009l-0.37,-0.007l-0.35,-0.007l-0.32,-0.014l-0.28,-0.016l-0.27,-0.021l-0.23,-0.031l-0.23,-0.029l-0.2,-0.038l-0.2,-0.036l-0.19,-0.052l-0.17,-0.052l-0.18,-0.051l-0.18,-0.067l-0.19,-0.067l0.46,-2.323l0.11,0.023l0.12,0.036l0.16,0.037l0.17,0.044l0.2,0.038l0.22,0.052l0.24,0.043l0.25,0.045l0.27,0.037l0.28,0.038l0.28,0.029l0.31,0.029l0.3,0.015l0.31,0.007l0.31,0l0.32,-0.015l0.3,-0.051l0.24,-0.081l0.19,-0.119l0.14,-0.132l0.11,-0.157l0.09,-0.161l0.06,-0.163l0.05,-0.163l0.02,-0.17l-0.01,-0.149l-0.04,-0.14l-0.05,-0.118l-0.09,-0.119l-0.1,-0.103l-0.12,-0.097l-0.15,-0.089l-0.15,-0.08l-0.17,-0.082l-0.19,-0.081l-0.19,-0.074l-0.19,-0.074l-0.21,-0.082l-0.2,-0.081l-0.22,-0.089l-0.21,-0.089l-0.2,-0.096l-0.21,-0.111l-0.2,-0.118l-0.19,-0.126l-0.18,-0.141l-0.17,-0.163l-0.16,-0.169l-0.14,-0.193l-0.12,-0.207l-0.11,-0.23l-0.09,-0.244l-0.06,-0.273l-0.03,-0.296l-0.01,-0.326l0.02,-0.348l0.02,-0.214l0.04,-0.208l0.02,-0.198l0.05,-0.193l0.04,-0.186l0.06,-0.184l0.06,-0.17l0.07,-0.17l0.08,-0.156l0.08,-0.155l0.1,-0.141l0.1,-0.14l0.11,-0.133l0.12,-0.127l0.13,-0.118l0.14,-0.111l0.14,-0.103l0.16,-0.096l0.17,-0.089l0.18,-0.089l0.18,-0.074l0.2,-0.074l0.21,-0.059l0.22,-0.06l0.24,-0.051l0.24,-0.044l0.26,-0.037l0.26,-0.03l0.28,-0.022l0.3,-0.014l0.3,-0.015l0.71,0l0.36,0.006l0.31,0.009l0.3,0.014l0.26,0.015l0.24,0.014l0.21,0.023l0.19,0.015l0.17,0.022l0.14,0.022l0.14,0.014l0.12,0.023l0.11,0.015l0.09,0.014l0.09,0.015l0.08,0.008l-0.53,2.397Z" style="fill:none;stroke:#e1dfd8;stroke-width:0.22px;"/><path d="M75.2,32.308l2.98,0l-0.46,2.59l1.83,0l-0.42,2.36l-1.87,-0.038l-0.98,5.897l-0.02,0.125l0,0.111l0.02,0.097l0.03,0.089l0.04,0.074l0.05,0.074l0.07,0.059l0.07,0.043l0.09,0.046l0.09,0.036l0.1,0.03l0.11,0.016l0.12,0.022l0.11,0.006l0.13,0.008l0.36,0l0.21,-0.014l0.19,-0.03l0.17,-0.038l0.12,-0.036l0.1,-0.038l0.06,-0.03l0.02,-0.006l-0.3,2.019l-0.08,0.045l-0.08,0.037l-0.08,0.037l-0.08,0.037l-0.08,0.029l-0.1,0.03l-0.08,0.028l-0.11,0.031l-0.1,0.029l-0.11,0.023l-0.13,0.021l-0.13,0.022l-0.14,0.023l-0.15,0.022l-0.17,0.023l-0.18,0.023l-0.79,0l-0.43,-0.031l-0.37,-0.043l-0.34,-0.06l-0.28,-0.083l-0.25,-0.087l-0.21,-0.111l-0.17,-0.125l-0.14,-0.142l-0.11,-0.156l-0.08,-0.17l-0.05,-0.185l-0.03,-0.206l-0.01,-0.214l0.01,-0.237l0.02,-0.245l0.04,-0.267l1.97,-11.57Z" style="fill:#e1dfd8;fill-rule:nonzero;"/><path d="M75.2,32.308l2.98,0l-0.46,2.59l1.83,0l-0.42,2.36l-1.87,-0.038l-0.98,5.897l-0.02,0.125l0,0.111l0.02,0.097l0.03,0.089l0.04,0.074l0.05,0.074l0.07,0.059l0.07,0.043l0.09,0.046l0.09,0.036l0.1,0.03l0.11,0.016l0.12,0.022l0.11,0.006l0.13,0.008l0.36,0l0.21,-0.014l0.19,-0.03l0.17,-0.038l0.12,-0.036l0.1,-0.038l0.06,-0.03l0.02,-0.006l-0.3,2.019l-0.08,0.045l-0.08,0.037l-0.08,0.037l-0.08,0.037l-0.08,0.029l-0.1,0.03l-0.08,0.028l-0.11,0.031l-0.1,0.029l-0.11,0.023l-0.13,0.021l-0.13,0.022l-0.14,0.023l-0.15,0.022l-0.17,0.023l-0.18,0.023l-0.79,0l-0.43,-0.031l-0.37,-0.043l-0.34,-0.06l-0.28,-0.083l-0.25,-0.087l-0.21,-0.111l-0.17,-0.125l-0.14,-0.142l-0.11,-0.156l-0.08,-0.17l-0.05,-0.185l-0.03,-0.206l-0.01,-0.214l0.01,-0.237l0.02,-0.245l0.04,-0.267l1.97,-11.57Z" style="fill:none;stroke:#e1dfd8;stroke-width:0.22px;"/><path d="M57.12,41.289l-0.03,0.186l-0.01,0.185l0.01,0.199l0.05,0.193l0.06,0.2l0.09,0.199l0.1,0.192l0.13,0.185l0.13,0.178l0.17,0.171l0.17,0.148l0.18,0.14l0.2,0.118l0.21,0.097l0.22,0.073l0.22,0.052l0.27,0.037l0.27,0.036l0.27,0.031l0.27,0.014l0.29,0.007l0.27,0l0.29,-0.013l0.28,-0.024l0.29,-0.043l0.29,-0.053l0.3,-0.074l0.29,-0.096l0.3,-0.111l0.31,-0.132l0.3,-0.163l0.32,-0.178l-0.46,2.626l-0.17,0.089l-0.17,0.081l-0.16,0.068l-0.16,0.058l-0.17,0.058l-0.16,0.045l-0.17,0.038l-0.18,0.037l-0.19,0.023l-0.21,0.021l-0.23,0.022l-0.24,0.008l-0.27,0.014l-0.3,0l-0.32,0.009l-0.36,0l-0.26,0l-0.26,-0.016l-0.26,-0.015l-0.27,-0.029l-0.27,-0.037l-0.27,-0.045l-0.26,-0.058l-0.27,-0.06l-0.26,-0.081l-0.26,-0.082l-0.25,-0.096l-0.25,-0.11l-0.25,-0.127l-0.23,-0.133l-0.23,-0.148l-0.22,-0.162l-0.2,-0.178l-0.2,-0.192l-0.2,-0.208l-0.17,-0.222l-0.16,-0.244l-0.15,-0.251l-0.13,-0.273l-0.12,-0.29l-0.1,-0.309l-0.08,-0.327l-0.07,-0.34l-0.04,-0.37l-0.03,-0.385l0,-0.399l0.01,-0.428l0.04,-0.446l0.02,-0.154l0.02,-0.178l0.03,-0.178l0.04,-0.191l0.04,-0.201l0.05,-0.207l0.06,-0.214l0.06,-0.222l0.07,-0.23l0.08,-0.222l0.1,-0.229l0.1,-0.229l0.12,-0.23l0.13,-0.229l0.14,-0.228l0.14,-0.223l0.17,-0.214l0.18,-0.215l0.19,-0.208l0.22,-0.192l0.22,-0.192l0.25,-0.177l0.25,-0.164l0.28,-0.155l0.3,-0.133l0.32,-0.126l0.33,-0.111l0.36,-0.089l0.37,-0.073l0.4,-0.052l0.42,-0.03l0.44,-0.015l0.21,0l0.21,0.015l0.21,0.015l0.22,0.022l0.21,0.03l0.22,0.044l0.22,0.051l0.21,0.06l0.22,0.066l0.21,0.082l0.21,0.088l0.2,0.105l0.19,0.118l0.19,0.125l0.18,0.149l0.18,0.155l0.16,0.17l0.15,0.185l0.14,0.207l0.13,0.215l0.12,0.236l0.1,0.251l0.09,0.275l0.07,0.289l0.06,0.311l0.03,0.323l0.02,0.349l0,0.37l-0.02,0.392l-0.04,0.414l-0.07,0.437l-0.09,0.459l-0.11,0.651l-7.69,0l0.46,-2.057l4.61,0l0.02,-0.281l0,-0.259l-0.02,-0.244l-0.04,-0.223l-0.06,-0.199l-0.07,-0.185l-0.1,-0.163l-0.11,-0.148l-0.13,-0.133l-0.14,-0.11l-0.15,-0.089l-0.15,-0.075l-0.17,-0.059l-0.18,-0.045l-0.18,-0.02l-0.19,-0.009l-0.21,0l-0.19,0.029l-0.2,0.037l-0.18,0.06l-0.17,0.082l-0.16,0.096l-0.15,0.11l-0.14,0.126l-0.14,0.148l-0.11,0.156l-0.12,0.17l-0.1,0.185l-0.09,0.191l-0.07,0.208l-0.06,0.223l-0.05,0.229l-0.42,2.211Z" style="fill:#e1dfd8;fill-rule:nonzero;"/><path d="M57.12,41.289l-0.03,0.186l-0.01,0.185l0.01,0.199l0.05,0.193l0.06,0.2l0.09,0.199l0.1,0.192l0.13,0.185l0.13,0.178l0.17,0.171l0.17,0.148l0.18,0.14l0.2,0.118l0.21,0.097l0.22,0.073l0.22,0.052l0.27,0.037l0.27,0.036l0.27,0.031l0.27,0.014l0.29,0.007l0.27,0l0.29,-0.013l0.28,-0.024l0.29,-0.043l0.29,-0.053l0.3,-0.074l0.29,-0.096l0.3,-0.111l0.31,-0.132l0.3,-0.163l0.32,-0.178l-0.46,2.626l-0.17,0.089l-0.17,0.081l-0.16,0.068l-0.16,0.058l-0.17,0.058l-0.16,0.045l-0.17,0.038l-0.18,0.037l-0.19,0.023l-0.21,0.021l-0.23,0.022l-0.24,0.008l-0.27,0.014l-0.3,0l-0.32,0.009l-0.36,0l-0.26,0l-0.26,-0.016l-0.26,-0.015l-0.27,-0.029l-0.27,-0.037l-0.27,-0.045l-0.26,-0.058l-0.27,-0.06l-0.26,-0.081l-0.26,-0.082l-0.25,-0.096l-0.25,-0.11l-0.25,-0.127l-0.23,-0.133l-0.23,-0.148l-0.22,-0.162l-0.2,-0.178l-0.2,-0.192l-0.2,-0.208l-0.17,-0.222l-0.16,-0.244l-0.15,-0.251l-0.13,-0.273l-0.12,-0.29l-0.1,-0.309l-0.08,-0.327l-0.07,-0.34l-0.04,-0.37l-0.03,-0.385l0,-0.399l0.01,-0.428l0.04,-0.446l0.02,-0.154l0.02,-0.178l0.03,-0.178l0.04,-0.191l0.04,-0.201l0.05,-0.207l0.06,-0.214l0.06,-0.222l0.07,-0.23l0.08,-0.222l0.1,-0.229l0.1,-0.229l0.12,-0.23l0.13,-0.229l0.14,-0.228l0.14,-0.223l0.17,-0.214l0.18,-0.215l0.19,-0.208l0.22,-0.192l0.22,-0.192l0.25,-0.177l0.25,-0.164l0.28,-0.155l0.3,-0.133l0.32,-0.126l0.33,-0.111l0.36,-0.089l0.37,-0.073l0.4,-0.052l0.42,-0.03l0.44,-0.015l0.21,0l0.21,0.015l0.21,0.015l0.22,0.022l0.21,0.03l0.22,0.044l0.22,0.051l0.21,0.06l0.22,0.066l0.21,0.082l0.21,0.088l0.2,0.105l0.19,0.118l0.19,0.125l0.18,0.149l0.18,0.155l0.16,0.17l0.15,0.185l0.14,0.207l0.13,0.215l0.12,0.236l0.1,0.251l0.09,0.275l0.07,0.289l0.06,0.311l0.03,0.323l0.02,0.349l0,0.37l-0.02,0.392l-0.04,0.414l-0.07,0.437l-0.09,0.459l-0.11,0.651l-7.69,0l0.46,-2.057l4.61,0l0.02,-0.281l0,-0.259l-0.02,-0.244l-0.04,-0.223l-0.06,-0.199l-0.07,-0.185l-0.1,-0.163l-0.11,-0.148l-0.13,-0.133l-0.14,-0.11l-0.15,-0.089l-0.15,-0.075l-0.17,-0.059l-0.18,-0.045l-0.18,-0.02l-0.19,-0.009l-0.21,0l-0.19,0.029l-0.2,0.037l-0.18,0.06l-0.17,0.082l-0.16,0.096l-0.15,0.11l-0.14,0.126l-0.14,0.148l-0.11,0.156l-0.12,0.17l-0.1,0.185l-0.09,0.191l-0.07,0.208l-0.06,0.223l-0.05,0.229l-0.42,2.211Z" style="fill:none;stroke:#e1dfd8;stroke-width:0.22px;"/><path d="M53.01,43.878l-0.42,2.362l-2.67,0l0.03,-0.223l0.02,-0.223l0.04,-0.198l0.03,-0.186l0.02,-0.156l0.03,-0.132l0.03,-0.089l0.03,-0.051l-0.14,0.162l-0.18,0.162l-0.2,0.157l-0.23,0.148l-0.24,0.14l-0.27,0.133l-0.28,0.118l-0.29,0.111l-0.3,0.096l-0.31,0.083l-0.32,0.057l-0.31,0.045l-0.31,0.023l-0.3,0.007l-0.3,-0.021l-0.29,-0.046l-0.37,-0.088l-0.33,-0.12l-0.31,-0.14l-0.26,-0.155l-0.24,-0.17l-0.2,-0.192l-0.18,-0.2l-0.15,-0.221l-0.12,-0.222l-0.11,-0.231l-0.08,-0.237l-0.06,-0.243l-0.05,-0.237l-0.03,-0.244l-0.01,-0.237l-0.01,-0.23l0.03,-0.413l0.07,-0.392l0.09,-0.379l0.14,-0.354l0.17,-0.332l0.19,-0.311l0.24,-0.289l0.24,-0.274l0.27,-0.244l0.29,-0.214l0.31,-0.199l0.33,-0.172l0.34,-0.147l0.35,-0.119l0.35,-0.088l0.36,-0.067l0.02,0l0.05,-0.007l0.08,-0.009l0.11,-0.014l0.13,-0.015l0.14,-0.014l0.17,-0.023l0.18,-0.013l0.17,-0.016l0.18,-0.022l0.18,-0.016l0.18,-0.014l0.16,-0.015l0.16,-0.007l0.14,-0.007l0.5,0l0.13,0.007l0.13,0l0.11,0.007l0.24,0l0.1,0.008l0.1,0l0.08,0.007l0.08,0l0.06,0.008l0.08,0l0.02,-0.074l0.05,-0.177l0.04,-0.209l0,-0.183l-0.02,-0.135l-0.02,-0.125l-0.04,-0.119l-0.05,-0.11l-0.06,-0.104l-0.07,-0.095l-0.08,-0.089l-0.08,-0.09l-0.1,-0.073l-0.1,-0.06l-0.11,-0.059l-0.11,-0.052l-0.11,-0.036l-0.13,-0.031l-0.13,-0.02l-0.12,-0.016l-0.31,-0.008l-0.31,0.008l-0.34,0.007l-0.34,0.022l-0.34,0.023l-0.34,0.029l-0.34,0.038l-0.33,0.036l-0.32,0.051l-0.3,0.045l-0.28,0.052l-0.26,0.059l-0.22,0.059l-0.2,0.059l-0.15,0.06l-0.11,0.066l0.76,-2.515l0.22,-0.103l0.24,-0.096l0.23,-0.082l0.26,-0.067l0.25,-0.052l0.27,-0.044l0.28,-0.037l0.29,-0.029l0.3,-0.015l0.3,-0.015l0.31,-0.007l1.01,0l0.35,0.007l0.37,0.008l0.3,0.029l0.32,0.044l0.33,0.082l0.34,0.096l0.33,0.125l0.33,0.156l0.32,0.177l0.29,0.208l0.28,0.236l0.24,0.259l0.21,0.289l0.16,0.317l0.12,0.349l0.06,0.377l0.01,0.399l-0.06,0.437l-1.1,5.555Z" style="fill:#e1dfd8;fill-rule:nonzero;"/><path d="M53.01,43.878l-0.42,2.362l-2.67,0l0.03,-0.223l0.02,-0.223l0.04,-0.198l0.03,-0.186l0.02,-0.156l0.03,-0.132l0.03,-0.089l0.03,-0.051l-0.14,0.162l-0.18,0.162l-0.2,0.157l-0.23,0.148l-0.24,0.14l-0.27,0.133l-0.28,0.118l-0.29,0.111l-0.3,0.096l-0.31,0.083l-0.32,0.057l-0.31,0.045l-0.31,0.023l-0.3,0.007l-0.3,-0.021l-0.29,-0.046l-0.37,-0.088l-0.33,-0.12l-0.31,-0.14l-0.26,-0.155l-0.24,-0.17l-0.2,-0.192l-0.18,-0.2l-0.15,-0.221l-0.12,-0.222l-0.11,-0.231l-0.08,-0.237l-0.06,-0.243l-0.05,-0.237l-0.03,-0.244l-0.01,-0.237l-0.01,-0.23l0.03,-0.413l0.07,-0.392l0.09,-0.379l0.14,-0.354l0.17,-0.332l0.19,-0.311l0.24,-0.289l0.24,-0.274l0.27,-0.244l0.29,-0.214l0.31,-0.199l0.33,-0.172l0.34,-0.147l0.35,-0.119l0.35,-0.088l0.36,-0.067l0.02,0l0.05,-0.007l0.08,-0.009l0.11,-0.014l0.13,-0.015l0.14,-0.014l0.17,-0.023l0.18,-0.013l0.17,-0.016l0.18,-0.022l0.18,-0.016l0.18,-0.014l0.16,-0.015l0.16,-0.007l0.14,-0.007l0.5,0l0.13,0.007l0.13,0l0.11,0.007l0.24,0l0.1,0.008l0.1,0l0.08,0.007l0.08,0l0.06,0.008l0.08,0l0.02,-0.074l0.05,-0.177l0.04,-0.209l0,-0.183l-0.02,-0.135l-0.02,-0.125l-0.04,-0.119l-0.05,-0.11l-0.06,-0.104l-0.07,-0.095l-0.08,-0.089l-0.08,-0.09l-0.1,-0.073l-0.1,-0.06l-0.11,-0.059l-0.11,-0.052l-0.11,-0.036l-0.13,-0.031l-0.13,-0.02l-0.12,-0.016l-0.31,-0.008l-0.31,0.008l-0.34,0.007l-0.34,0.022l-0.34,0.023l-0.34,0.029l-0.34,0.038l-0.33,0.036l-0.32,0.051l-0.3,0.045l-0.28,0.052l-0.26,0.059l-0.22,0.059l-0.2,0.059l-0.15,0.06l-0.11,0.066l0.76,-2.515l0.22,-0.103l0.24,-0.096l0.23,-0.082l0.26,-0.067l0.25,-0.052l0.27,-0.044l0.28,-0.037l0.29,-0.029l0.3,-0.015l0.3,-0.015l0.31,-0.007l1.01,0l0.35,0.007l0.37,0.008l0.3,0.029l0.32,0.044l0.33,0.082l0.34,0.096l0.33,0.125l0.33,0.156l0.32,0.177l0.29,0.208l0.28,0.236l0.24,0.259l0.21,0.289l0.16,0.317l0.12,0.349l0.06,0.377l0.01,0.399l-0.06,0.437l-1.1,5.555Z" style="fill:none;stroke:#e1dfd8;stroke-width:0.22px;"/><path d="M50.46,41.097l-0.01,-0.059l-0.05,-0.045l-0.07,-0.036l-0.09,-0.022l-0.13,-0.015l-0.14,-0.008l-0.15,0l-0.16,0l-0.17,0.015l-0.18,0.022l-0.17,0.022l-0.17,0.031l-0.16,0.028l-0.16,0.03l-0.13,0.037l-0.12,0.037l-0.07,0.015l-0.09,0.029l-0.1,0.038l-0.12,0.051l-0.13,0.053l-0.14,0.066l-0.14,0.081l-0.14,0.082l-0.14,0.103l-0.14,0.112l-0.12,0.117l-0.11,0.135l-0.11,0.139l-0.07,0.157l-0.06,0.169l-0.04,0.177l-0.01,0.363l0.05,0.281l0.09,0.221l0.13,0.164l0.17,0.11l0.17,0.074l0.18,0.038l0.18,0.008l0.33,-0.008l0.28,-0.031l0.28,-0.051l0.24,-0.066l0.22,-0.074l0.2,-0.089l0.18,-0.103l0.15,-0.111l0.14,-0.111l0.13,-0.126l0.1,-0.119l0.08,-0.125l0.08,-0.126l0.06,-0.119l0.04,-0.117l0.04,-0.112l0.04,-0.163l0.03,-0.171l0.04,-0.177l0.04,-0.185l0.03,-0.177l0.03,-0.163l0.03,-0.155l0.03,-0.141Z" style="fill:#2a76a8;fill-rule:nonzero;"/><path d="M30.68,46.24l-2.89,0l2.429,-13.932l5.031,0l0.5,8.294l3.42,-8.294l5.23,0l-2.44,13.932l-2.9,0l1.83,-10.433l-0.11,0l-4.31,10.433l-3.24,0l-0.021,-0.438l-0.069,-1.161l-0.1,-1.643l-0.11,-1.885l-0.11,-1.903l-0.101,-1.679l-0.059,-1.213l-0.03,-0.511l-0.01,0l-0.031,0l-0.029,0l-0.04,0l-0.03,0l-0.01,0l0.03,0l-1.83,10.433Z" style="fill:#e1dfd8;fill-rule:nonzero;"/><path d="M30.68,46.24l-2.89,0l2.429,-13.932l5.031,0l0.5,8.294l3.42,-8.294l5.23,0l-2.44,13.932l-2.9,0l1.83,-10.433l-0.11,0l-4.31,10.433l-3.24,0l-0.021,-0.438l-0.069,-1.161l-0.1,-1.643l-0.11,-1.885l-0.11,-1.903l-0.101,-1.679l-0.059,-1.213l-0.03,-0.511l-0.01,0l-0.031,0l-0.029,0l-0.04,0l-0.03,0l-0.01,0l0.03,0l-1.83,10.433Z" style="fill:none;stroke:#e1dfd8;stroke-width:0.22px;"/><path d="M79.01,46.24l3.01,0l1.03,-6.015l0.05,-0.237l0.05,-0.23l0.06,-0.229l0.07,-0.214l0.08,-0.214l0.11,-0.201l0.12,-0.192l0.14,-0.184l0.17,-0.165l0.2,-0.148l0.22,-0.132l0.26,-0.119l0.3,-0.096l0.33,-0.074l0.37,-0.044l0.41,-0.03l0.04,0l0.04,0.008l0.06,0.007l0.06,0l0.05,0.007l0.05,0.008l0.02,0.007l0.02,0l0.01,-0.043l0.03,-0.127l0.03,-0.193l0.06,-0.243l0.08,-0.273l0.08,-0.297l0.1,-0.296l0.11,-0.28l0.08,-0.208l0.09,-0.2l0.1,-0.199l0.1,-0.185l0.09,-0.156l0.08,-0.126l0.05,-0.082l0.01,-0.029l-0.01,0l-0.04,-0.015l-0.05,-0.007l-0.08,-0.015l-0.07,-0.014l-0.09,-0.008l-0.08,-0.014l-0.07,0l-0.33,0.022l-0.3,0.036l-0.27,0.06l-0.25,0.066l-0.24,0.088l-0.21,0.097l-0.21,0.118l-0.18,0.126l-0.19,0.142l-0.17,0.154l-0.15,0.163l-0.17,0.177l-0.15,0.185l-0.15,0.2l-0.16,0.208l-0.15,0.214l0.35,-1.901l-3.01,-0.037l-1.99,11.379Z" style="fill:#e1dfd8;fill-rule:nonzero;"/><path d="M79.01,46.24l3.01,0l1.03,-6.015l0.05,-0.237l0.05,-0.23l0.06,-0.229l0.07,-0.214l0.08,-0.214l0.11,-0.201l0.12,-0.192l0.14,-0.184l0.17,-0.165l0.2,-0.148l0.22,-0.132l0.26,-0.119l0.3,-0.096l0.33,-0.074l0.37,-0.044l0.41,-0.03l0.04,0l0.04,0.008l0.06,0.007l0.06,0l0.05,0.007l0.05,0.008l0.02,0.007l0.02,0l0.01,-0.043l0.03,-0.127l0.03,-0.193l0.06,-0.243l0.08,-0.273l0.08,-0.297l0.1,-0.296l0.11,-0.28l0.08,-0.208l0.09,-0.2l0.1,-0.199l0.1,-0.185l0.09,-0.156l0.08,-0.126l0.05,-0.082l0.01,-0.029l-0.01,0l-0.04,-0.015l-0.05,-0.007l-0.08,-0.015l-0.07,-0.014l-0.09,-0.008l-0.08,-0.014l-0.07,0l-0.33,0.022l-0.3,0.036l-0.27,0.06l-0.25,0.066l-0.24,0.088l-0.21,0.097l-0.21,0.118l-0.18,0.126l-0.19,0.142l-0.17,0.154l-0.15,0.163l-0.17,0.177l-0.15,0.185l-0.15,0.2l-0.16,0.208l-0.15,0.214l0.35,-1.901l-3.01,-0.037l-1.99,11.379Z" style="fill:none;stroke:#e1dfd8;stroke-width:0.22px;"/><path d="M92.04,34.743l0.34,0.007l0.32,0.022l0.32,0.029l0.31,0.044l0.3,0.06l0.28,0.074l0.28,0.082l0.27,0.095l0.26,0.111l0.24,0.119l0.25,0.126l0.22,0.14l0.22,0.155l0.21,0.163l0.19,0.171l0.19,0.185l0.17,0.192l0.17,0.207l0.14,0.208l0.14,0.221l0.14,0.229l0.11,0.244l0.11,0.245l0.09,0.258l0.08,0.26l0.07,0.274l0.06,0.281l0.04,0.288l0.03,0.288l0.01,0.304l0.01,0.311l-0.01,0.31l-0.02,0.378l-0.04,0.363l-0.05,0.347l-0.07,0.34l-0.07,0.326l-0.1,0.31l-0.11,0.304l-0.1,0.287l-0.14,0.275l-0.13,0.266l-0.16,0.251l-0.15,0.237l-0.17,0.23l-0.19,0.214l-0.19,0.2l-0.2,0.193l-0.21,0.177l-0.21,0.171l-0.23,0.154l-0.23,0.142l-0.24,0.132l-0.26,0.119l-0.25,0.111l-0.26,0.095l-0.27,0.089l-0.28,0.074l-0.28,0.061l-0.28,0.051l-0.3,0.037l-0.29,0.029l-0.31,0.015l-0.3,0.007l-0.3,-0.007l-0.31,-0.015l-0.28,-0.029l-0.29,-0.045l-0.28,-0.052l-0.29,-0.059l-0.26,-0.075l-0.26,-0.087l-0.26,-0.097l-0.25,-0.111l-0.23,-0.118l-0.23,-0.133l-0.22,-0.14l-0.21,-0.157l-0.21,-0.162l-0.19,-0.177l-0.18,-0.186l-0.17,-0.199l-0.16,-0.207l-0.16,-0.222l-0.13,-0.23l-0.13,-0.243l-0.11,-0.253l-0.11,-0.259l-0.08,-0.273l-0.09,-0.289l-0.06,-0.294l-0.06,-0.306l-0.03,-0.317l-0.02,-0.326l-0.01,-0.339l0.01,-0.348l0.02,-0.355l0.03,-0.341l0.06,-0.333l0.06,-0.318l0.08,-0.311l0.09,-0.304l0.09,-0.288l0.11,-0.28l0.12,-0.274l0.13,-0.259l0.15,-0.245l0.16,-0.243l0.16,-0.222l0.18,-0.222l0.18,-0.201l0.2,-0.199l0.2,-0.185l0.22,-0.17l0.22,-0.162l0.23,-0.148l0.24,-0.134l0.25,-0.132l0.26,-0.112l0.26,-0.104l0.28,-0.087l0.28,-0.083l0.29,-0.066l0.29,-0.06l0.3,-0.037l0.31,-0.036l0.32,-0.015l0.32,-0.007Z" style="fill:#e1dfd8;fill-rule:nonzero;"/><path d="M92.04,34.743l0.34,0.007l0.32,0.022l0.32,0.029l0.31,0.044l0.3,0.06l0.28,0.074l0.28,0.082l0.27,0.095l0.26,0.111l0.24,0.119l0.25,0.126l0.22,0.14l0.22,0.155l0.21,0.163l0.19,0.171l0.19,0.185l0.17,0.192l0.17,0.207l0.14,0.208l0.14,0.221l0.14,0.229l0.11,0.244l0.11,0.245l0.09,0.258l0.08,0.26l0.07,0.274l0.06,0.281l0.04,0.288l0.03,0.288l0.01,0.304l0.01,0.311l-0.01,0.31l-0.02,0.378l-0.04,0.363l-0.05,0.347l-0.07,0.34l-0.07,0.326l-0.1,0.31l-0.11,0.304l-0.1,0.287l-0.14,0.275l-0.13,0.266l-0.16,0.251l-0.15,0.237l-0.17,0.23l-0.19,0.214l-0.19,0.2l-0.2,0.193l-0.21,0.177l-0.21,0.171l-0.23,0.154l-0.23,0.142l-0.24,0.132l-0.26,0.119l-0.25,0.111l-0.26,0.095l-0.27,0.089l-0.28,0.074l-0.28,0.061l-0.28,0.051l-0.3,0.037l-0.29,0.029l-0.31,0.015l-0.3,0.007l-0.3,-0.007l-0.31,-0.015l-0.28,-0.029l-0.29,-0.045l-0.28,-0.052l-0.29,-0.059l-0.26,-0.075l-0.26,-0.087l-0.26,-0.097l-0.25,-0.111l-0.23,-0.118l-0.23,-0.133l-0.22,-0.14l-0.21,-0.157l-0.21,-0.162l-0.19,-0.177l-0.18,-0.186l-0.17,-0.199l-0.16,-0.207l-0.16,-0.222l-0.13,-0.23l-0.13,-0.243l-0.11,-0.253l-0.11,-0.259l-0.08,-0.273l-0.09,-0.289l-0.06,-0.294l-0.06,-0.306l-0.03,-0.317l-0.02,-0.326l-0.01,-0.339l0.01,-0.348l0.02,-0.355l0.03,-0.341l0.06,-0.333l0.06,-0.318l0.08,-0.311l0.09,-0.304l0.09,-0.288l0.11,-0.28l0.12,-0.274l0.13,-0.259l0.15,-0.245l0.16,-0.243l0.16,-0.222l0.18,-0.222l0.18,-0.201l0.2,-0.199l0.2,-0.185l0.22,-0.17l0.22,-0.162l0.23,-0.148l0.24,-0.134l0.25,-0.132l0.26,-0.112l0.26,-0.104l0.28,-0.087l0.28,-0.083l0.29,-0.066l0.29,-0.06l0.3,-0.037l0.31,-0.036l0.32,-0.015l0.32,-0.007Z" style="fill:none;stroke:#e1dfd8;stroke-width:0.22px;"/><path d="M96.47,45.669l0.87,0l0,0.111l-0.34,0l0,0.725l-0.19,0l0,-0.725l-0.34,0l0,-0.111Z" style="fill:#e1dfd8;fill-rule:nonzero;"/><path d="M96.47,45.669l0.87,0l0,0.111l-0.34,0l0,0.725l-0.19,0l0,-0.725l-0.34,0l0,-0.111Z" style="fill:none;stroke:#e1dfd8;stroke-width:0.22px;"/><path d="M97.45,45.669l0.27,0l0.31,0.644l0.3,-0.644l0.27,0l0,0.836l-0.2,0l0,-0.643l-0.3,0.643l-0.15,0l-0.31,-0.643l0,0.643l-0.19,0l0,-0.836Z" style="fill:#e1dfd8;fill-rule:nonzero;"/><path d="M97.45,45.669l0.27,0l0.31,0.644l0.3,-0.644l0.27,0l0,0.836l-0.2,0l0,-0.643l-0.3,0.643l-0.15,0l-0.31,-0.643l0,0.643l-0.19,0l0,-0.836Z" style="fill:none;stroke:#e1dfd8;stroke-width:0.22px;"/><path d="M89.68,40.179l-0.04,0.415l-0.03,0.385l0,0.348l0.03,0.325l0.04,0.296l0.07,0.259l0.08,0.237l0.1,0.214l0.13,0.184l0.14,0.156l0.15,0.133l0.18,0.105l0.18,0.08l0.21,0.06l0.21,0.029l0.23,0.015l0.25,-0.007l0.25,-0.029l0.23,-0.053l0.22,-0.08l0.21,-0.104l0.2,-0.133l0.18,-0.157l0.18,-0.185l0.15,-0.206l0.15,-0.238l0.14,-0.266l0.12,-0.288l0.11,-0.318l0.1,-0.347l0.07,-0.378l0.07,-0.406l0.04,-0.319l0.02,-0.303l0,-0.296l-0.02,-0.281l-0.04,-0.259l-0.06,-0.252l-0.08,-0.229l-0.1,-0.214l-0.12,-0.193l-0.13,-0.163l-0.16,-0.148l-0.17,-0.118l-0.19,-0.097l-0.21,-0.059l-0.22,-0.036l-0.24,0l-0.31,0.022l-0.28,0.052l-0.26,0.087l-0.24,0.112l-0.22,0.148l-0.21,0.163l-0.18,0.184l-0.17,0.209l-0.15,0.221l-0.14,0.237l-0.11,0.236l-0.1,0.251l-0.09,0.252l-0.07,0.252l-0.05,0.252l-0.05,0.243Z" style="fill:#ce2d34;fill-rule:nonzero;"/></svg>