<?xml version="1.0" encoding="UTF-8" standalone="no"?><!DOCTYPE svg PUBLIC "-//W3C//DTD SVG 1.1//EN" "http://www.w3.org/Graphics/SVG/1.1/DTD/svg11.dtd"><svg width="100%" height="100%" viewBox="0 0 126 79" version="1.1" xmlns="http://www.w3.org/2000/svg" xmlns:xlink="http://www.w3.org/1999/xlink" xml:space="preserve" style="fill-rule:evenodd;clip-rule:evenodd;stroke-miterlimit:1.41421;"><path d="M125.429,74.212c0,2.31 -1.873,4.18 -4.181,4.18l-117.069,0c-2.308,0 -4.179,-1.87 -4.179,-4.18l0,-70.03c0,-2.31 1.871,-4.182 4.179,-4.182l117.069,0c2.308,0 4.181,1.872 4.181,4.182l0,70.03Z" style="fill:#2b456c;fill-rule:nonzero;"/><path d="M77.765,61.699l1.162,-0.03l1.147,-0.084l1.123,-0.143l1.117,-0.198l1.086,-0.25l1.07,-0.304l1.047,-0.357l1.024,-0.402l1.002,-0.455l0.972,-0.494l0.942,-0.547l0.918,-0.584l0.88,-0.629l0.85,-0.669l0.821,-0.706l0.781,-0.751l0.752,-0.782l0.705,-0.821l0.67,-0.849l0.629,-0.881l0.584,-0.918l0.546,-0.943l0.493,-0.971l0.455,-1.001l0.402,-1.026l0.358,-1.048l0.304,-1.068l0.25,-1.086l0.197,-1.116l0.145,-1.124l0.084,-1.146l0.029,-1.161l-0.029,-1.154l-0.084,-1.139l-0.145,-1.123l-0.197,-1.101l-0.25,-1.085l-0.304,-1.063l-0.358,-1.047l-0.402,-1.018l-0.455,-0.993l-0.493,-0.973l-0.546,-0.933l-0.584,-0.918l-0.629,-0.881l-0.67,-0.843l-0.705,-0.819l-0.752,-0.782l-0.781,-0.744l-0.821,-0.706l-0.85,-0.668l-0.88,-0.63l-0.918,-0.585l-0.942,-0.538l-0.972,-0.493l-1.002,-0.457l-1.024,-0.401l-1.047,-0.357l-1.07,-0.304l-1.086,-0.25l-1.117,-0.197l-1.123,-0.144l-1.147,-0.085l-1.162,-0.03l-1.152,0.03l-1.147,0.085l-1.123,0.144l-1.109,0.197l-1.086,0.25l-1.07,0.304l-1.039,0.357l-1.026,0.401l-0.994,0.457l-0.963,0.493l-0.941,0.538l-0.912,0.585l-0.879,0.63l-0.852,0.668l-0.812,0.706l-0.781,0.744l-0.745,0.782l-0.705,0.819l-0.668,0.843l-0.623,0.881l-0.586,0.918l-0.537,0.933l-0.502,0.973l-0.447,0.993l-0.402,1.018l-0.35,1.047l-0.303,1.063l-0.252,1.085l-0.197,1.101l-0.142,1.123l-0.084,1.139l-0.032,1.154l0.032,1.161l0.084,1.146l0.142,1.124l0.197,1.116l0.252,1.086l0.303,1.068l0.35,1.048l0.402,1.026l0.447,1.001l0.502,0.971l0.537,0.943l0.586,0.918l0.623,0.881l0.668,0.849l0.705,0.821l0.745,0.782l0.781,0.751l0.812,0.706l0.852,0.669l0.879,0.629l0.912,0.584l0.941,0.547l0.963,0.494l0.994,0.455l1.026,0.402l1.039,0.357l1.07,0.304l1.086,0.25l1.109,0.198l1.123,0.143l1.147,0.084l1.152,0.03Z" style="fill:#db9d31;"/><path d="M47.662,61.699l1.152,-0.03l1.147,-0.084l1.125,-0.143l1.107,-0.198l1.086,-0.25l1.068,-0.304l1.041,-0.357l1.026,-0.402l0.994,-0.455l0.965,-0.494l0.939,-0.547l0.912,-0.584l0.881,-0.629l0.85,-0.669l0.812,-0.706l0.782,-0.751l0.744,-0.782l0.707,-0.821l0.666,-0.849l0.623,-0.881l0.584,-0.918l0.539,-0.943l0.502,-0.971l0.447,-1.001l0.402,-1.026l0.35,-1.048l0.303,-1.068l0.252,-1.086l0.195,-1.116l0.146,-1.124l0.082,-1.146l0.03,-1.161l-0.03,-1.154l-0.082,-1.139l-0.146,-1.123l-0.195,-1.101l-0.252,-1.085l-0.303,-1.063l-0.35,-1.047l-0.402,-1.018l-0.447,-0.993l-0.502,-0.973l-0.539,-0.933l-0.584,-0.918l-0.623,-0.881l-0.666,-0.843l-0.707,-0.819l-0.744,-0.782l-0.782,-0.744l-0.812,-0.706l-0.85,-0.668l-0.881,-0.63l-0.912,-0.585l-0.939,-0.538l-0.965,-0.493l-0.994,-0.457l-1.026,-0.401l-1.041,-0.357l-1.068,-0.304l-1.086,-0.25l-1.107,-0.197l-1.125,-0.144l-1.147,-0.085l-1.152,-0.03l-1.162,0.03l-1.147,0.085l-1.123,0.144l-1.117,0.197l-1.084,0.25l-1.07,0.304l-1.049,0.357l-1.024,0.401l-1.002,0.457l-0.97,0.493l-0.942,0.538l-0.92,0.585l-0.88,0.63l-0.85,0.668l-0.82,0.706l-0.782,0.744l-0.752,0.782l-0.705,0.819l-0.668,0.843l-0.63,0.881l-0.585,0.918l-0.546,0.933l-0.493,0.973l-0.457,0.993l-0.4,1.018l-0.357,1.047l-0.305,1.063l-0.25,1.085l-0.197,1.101l-0.145,1.123l-0.084,1.139l-0.029,1.154l0.029,1.161l0.084,1.146l0.145,1.124l0.197,1.116l0.25,1.086l0.305,1.068l0.357,1.048l0.4,1.026l0.457,1.001l0.493,0.971l0.546,0.943l0.585,0.918l0.63,0.881l0.668,0.849l0.705,0.821l0.752,0.782l0.782,0.751l0.82,0.706l0.85,0.669l0.88,0.629l0.92,0.584l0.942,0.547l0.97,0.494l1.002,0.455l1.024,0.402l1.049,0.357l1.07,0.304l1.084,0.25l1.117,0.198l1.123,0.143l1.147,0.084l1.162,0.03Z" style="fill:#ce2d34;"/><path d="M60.08,25.325l11.957,0l0,-1.223l-10.926,0l-1.031,1.223Z" style="fill:#db9d31;"/><path d="M58.289,28.042l13.748,0l0,-1.223l-13.028,0l-0.72,1.223Z" style="fill:#db9d31;"/><path d="M56.951,30.752l15.086,0l0,-1.223l-14.553,0l-0.533,1.223Z" style="fill:#db9d31;"/><path d="M56.033,33.469l16.004,0l0,-1.221l-15.623,0l-0.381,1.221Z" style="fill:#db9d31;"/><path d="M56.566,46.602l15.508,0l0,-1.223l-15.889,0l0.381,1.223Z" style="fill:#db9d31;"/><path d="M57.711,49.319l14.363,0l0,-1.222l-14.932,0l0.569,1.222Z" style="fill:#db9d31;"/><path d="M59.32,52.029l12.754,0l0,-1.222l-13.522,0l0.768,1.222Z" style="fill:#db9d31;"/><path d="M61.537,54.746l10.537,0l0,-1.23l-11.608,0l1.071,1.23Z" style="fill:#db9d31;"/><path d="M55.496,36.179l16.541,0l0,-1.222l-16.307,0l-0.234,1.222Z" style="fill:#db9d31;"/><path d="M65.576,43.892l6.307,0l0,-1.223l-6.081,0l-0.226,1.223Z" style="fill:#db9d31;"/><path d="M66.076,41.181l5.807,0l0,-1.229l-5.579,0l-0.228,1.229Z" style="fill:#db9d31;"/><path d="M55.078,39.952l1.638,0l0,1.229l-1.562,0l-0.076,-1.229Z" style="fill:#db9d31;"/><path d="M52.017,38.471l-0.105,-0.008l-0.108,-0.014l-0.097,-0.015l-0.098,-0.016l-0.092,-0.014l-0.097,-0.016l-0.1,-0.014l-0.107,-0.017l-0.106,-0.014l-0.121,-0.008l-0.137,-0.008l-0.142,-0.008l-0.16,0l-0.176,0.008l-0.197,0.016l-0.219,0.014l-0.153,0.024l-0.144,0.023l-0.129,0.045l-0.115,0.045l-0.106,0.053l-0.097,0.061l-0.077,0.077l-0.068,0.067l-0.047,0.084l-0.039,0.083l-0.014,0.091l0,0.092l0.024,0.099l0.029,0.098l0.061,0.099l0.076,0.099l0.152,0.143l0.184,0.114l0.211,0.099l0.228,0.083l0.243,0.077l0.252,0.083l0.25,0.092l0.242,0.098l0.228,0.129l0.211,0.159l0.192,0.191l0.158,0.235l0.121,0.288l0.076,0.341l0.031,0.411l-0.031,0.478l-0.053,0.357l-0.092,0.311l-0.121,0.288l-0.152,0.25l-0.174,0.221l-0.197,0.189l-0.213,0.167l-0.234,0.145l-0.242,0.114l-0.252,0.098l-0.258,0.076l-0.266,0.06l-0.258,0.047l-0.252,0.022l-0.25,0.016l-0.234,0.006l-0.326,0l-0.305,-0.006l-0.266,0l-0.25,-0.007l-0.228,-0.009l-0.205,-0.015l-0.182,-0.015l-0.174,-0.023l-0.16,-0.016l-0.144,-0.029l-0.143,-0.024l-0.131,-0.037l-0.129,-0.031l-0.121,-0.046l-0.121,-0.044l-0.129,-0.046l0.342,-1.678l0.068,0.016l0.084,0.023l0.106,0.029l0.129,0.032l0.137,0.029l0.15,0.031l0.168,0.037l0.182,0.031l0.189,0.03l0.197,0.031l0.207,0.022l0.211,0.023l0.221,0.007l0.221,0.008l0.22,0l0.219,-0.008l0.221,-0.045l0.176,-0.061l0.136,-0.083l0.106,-0.106l0.074,-0.107l0.06,-0.122l0.039,-0.12l0.032,-0.114l0.014,-0.221l-0.069,-0.19l-0.129,-0.152l-0.189,-0.128l-0.227,-0.114l-0.267,-0.114l-0.295,-0.107l-0.297,-0.121l-0.303,-0.136l-0.289,-0.159l-0.266,-0.198l-0.242,-0.235l-0.191,-0.289l-0.135,-0.342l-0.068,-0.409l0.007,-0.485l0.038,-0.297l0.052,-0.282l0.077,-0.257l0.091,-0.243l0.121,-0.227l0.137,-0.198l0.16,-0.19l0.19,-0.166l0.22,-0.144l0.243,-0.122l0.273,-0.114l0.305,-0.083l0.34,-0.07l0.373,-0.052l0.408,-0.031l0.449,-0.008l0.279,0l0.258,0.008l0.236,0.009l0.213,0.007l0.19,0.015l0.176,0.015l0.15,0.015l0.137,0.016l0.129,0.014l0.105,0.023l0.102,0.016l0.09,0.014l0.074,0.015l0.07,0.009l0.068,0.015l0.059,0.008l-0.387,1.714Z" style="fill:#e1dfd8;"/><path d="M52.017,38.471l-0.105,-0.008l-0.108,-0.014l-0.097,-0.015l-0.098,-0.016l-0.092,-0.014l-0.097,-0.016l-0.1,-0.014l-0.107,-0.017l-0.106,-0.014l-0.121,-0.008l-0.137,-0.008l-0.142,-0.008l-0.16,0l-0.176,0.008l-0.197,0.016l-0.219,0.014l-0.153,0.024l-0.144,0.023l-0.129,0.045l-0.115,0.045l-0.106,0.053l-0.097,0.061l-0.077,0.077l-0.068,0.067l-0.047,0.084l-0.039,0.083l-0.014,0.091l0,0.092l0.024,0.099l0.029,0.098l0.061,0.099l0.076,0.099l0.152,0.143l0.184,0.114l0.211,0.099l0.228,0.083l0.243,0.077l0.252,0.083l0.25,0.092l0.242,0.098l0.228,0.129l0.211,0.159l0.192,0.191l0.158,0.235l0.121,0.288l0.076,0.341l0.031,0.411l-0.031,0.478l-0.053,0.357l-0.092,0.311l-0.121,0.288l-0.152,0.25l-0.174,0.221l-0.197,0.189l-0.213,0.167l-0.234,0.145l-0.242,0.114l-0.252,0.098l-0.258,0.076l-0.266,0.06l-0.258,0.047l-0.252,0.022l-0.25,0.016l-0.234,0.006l-0.326,0l-0.305,-0.006l-0.266,0l-0.25,-0.007l-0.228,-0.009l-0.205,-0.015l-0.182,-0.015l-0.174,-0.023l-0.16,-0.016l-0.144,-0.029l-0.143,-0.024l-0.131,-0.037l-0.129,-0.031l-0.121,-0.046l-0.121,-0.044l-0.129,-0.046l0.342,-1.678l0.068,0.016l0.084,0.023l0.106,0.029l0.129,0.032l0.137,0.029l0.15,0.031l0.168,0.037l0.182,0.031l0.189,0.03l0.197,0.031l0.207,0.022l0.211,0.023l0.221,0.007l0.221,0.008l0.22,0l0.219,-0.008l0.221,-0.045l0.176,-0.061l0.136,-0.083l0.106,-0.106l0.074,-0.107l0.06,-0.122l0.039,-0.12l0.032,-0.114l0.014,-0.221l-0.069,-0.19l-0.129,-0.152l-0.189,-0.128l-0.227,-0.114l-0.267,-0.114l-0.295,-0.107l-0.297,-0.121l-0.303,-0.136l-0.289,-0.159l-0.266,-0.198l-0.242,-0.235l-0.191,-0.289l-0.135,-0.342l-0.068,-0.409l0.007,-0.485l0.038,-0.297l0.052,-0.282l0.077,-0.257l0.091,-0.243l0.121,-0.227l0.137,-0.198l0.16,-0.19l0.19,-0.166l0.22,-0.144l0.243,-0.122l0.273,-0.114l0.305,-0.083l0.34,-0.07l0.373,-0.052l0.408,-0.031l0.449,-0.008l0.279,0l0.258,0.008l0.236,0.009l0.213,0.007l0.19,0.015l0.176,0.015l0.15,0.015l0.137,0.016l0.129,0.014l0.105,0.023l0.102,0.016l0.09,0.014l0.074,0.015l0.07,0.009l0.068,0.015l0.059,0.008l-0.387,1.714Z" style="fill:none;stroke:#e1dfd8;stroke-width:0.22px;"/><path d="M53.818,34.882l2.102,0l-0.311,1.837l1.268,0l-0.274,1.715l-1.336,-0.038l-0.728,4.235l-0.008,0.152l0.037,0.13l0.076,0.098l0.1,0.083l0.136,0.054l0.153,0.045l0.166,0.03l0.181,0.016l0.169,-0.008l0.152,-0.015l0.135,-0.023l0.123,-0.03l0.097,-0.031l0.069,-0.022l0.045,-0.016l0.015,-0.007l-0.265,1.412l-0.053,0.038l-0.053,0.03l-0.055,0.03l-0.052,0.03l-0.053,0.023l-0.061,0.023l-0.068,0.023l-0.068,0.023l-0.077,0.022l-0.076,0.016l-0.089,0.015l-0.092,0.016l-0.1,0.015l-0.113,0.015l-0.121,0.015l-0.129,0.015l-0.576,0l-0.305,-0.023l-0.266,-0.031l-0.242,-0.044l-0.205,-0.054l-0.176,-0.069l-0.142,-0.074l-0.129,-0.092l-0.1,-0.099l-0.076,-0.106l-0.053,-0.129l-0.039,-0.13l-0.021,-0.143l-0.008,-0.16l0,-0.167l0.023,-0.174l0.022,-0.19l1.451,-8.281Z" style="fill:#e1dfd8;"/><path d="M53.818,34.882l2.102,0l-0.311,1.837l1.268,0l-0.274,1.715l-1.336,-0.038l-0.728,4.235l-0.008,0.152l0.037,0.13l0.076,0.098l0.1,0.083l0.136,0.054l0.153,0.045l0.166,0.03l0.181,0.016l0.169,-0.008l0.152,-0.015l0.135,-0.023l0.123,-0.03l0.097,-0.031l0.069,-0.022l0.045,-0.016l0.015,-0.007l-0.265,1.412l-0.053,0.038l-0.053,0.03l-0.055,0.03l-0.052,0.03l-0.053,0.023l-0.061,0.023l-0.068,0.023l-0.068,0.023l-0.077,0.022l-0.076,0.016l-0.089,0.015l-0.092,0.016l-0.1,0.015l-0.113,0.015l-0.121,0.015l-0.129,0.015l-0.576,0l-0.305,-0.023l-0.266,-0.031l-0.242,-0.044l-0.205,-0.054l-0.176,-0.069l-0.142,-0.074l-0.129,-0.092l-0.1,-0.099l-0.076,-0.106l-0.053,-0.129l-0.039,-0.13l-0.021,-0.143l-0.008,-0.16l0,-0.167l0.023,-0.174l0.022,-0.19l1.451,-8.281Z" style="fill:none;stroke:#e1dfd8;stroke-width:0.22px;"/><path d="M58.552,41.295l-0.019,0.129l-0.008,0.136l0.012,0.145l0.031,0.144l0.055,0.145l0.06,0.138l0.082,0.143l0.092,0.128l0.108,0.13l0.113,0.115l0.121,0.113l0.137,0.09l0.134,0.085l0.155,0.067l0.15,0.053l0.152,0.031l0.2,0.03l0.187,0.023l0.197,0.023l0.2,0.015l0.195,0.008l0.205,0l0.199,-0.008l0.203,-0.015l0.205,-0.031l0.208,-0.038l0.21,-0.045l0.205,-0.068l0.213,-0.083l0.221,-0.093l0.211,-0.12l0.223,-0.129l-0.305,1.867l-0.121,0.06l-0.123,0.062l-0.121,0.044l-0.113,0.047l-0.114,0.037l-0.123,0.039l-0.121,0.029l-0.129,0.024l-0.137,0.023l-0.152,0.015l-0.158,0.015l-0.176,0.015l-0.197,0.008l-0.205,0l-0.235,0.007l-0.25,0l-0.373,-0.007l-0.379,-0.038l-0.378,-0.053l-0.381,-0.092l-0.371,-0.113l-0.358,-0.146l-0.342,-0.189l-0.318,-0.22l-0.297,-0.258l-0.258,-0.311l-0.219,-0.35l-0.183,-0.402l-0.129,-0.448l-0.084,-0.509l-0.021,-0.561l0.037,-0.622l0.031,-0.243l0.045,-0.282l0.06,-0.294l0.084,-0.321l0.116,-0.325l0.134,-0.327l0.176,-0.333l0.211,-0.319l0.244,-0.304l0.295,-0.288l0.334,-0.258l0.381,-0.228l0.44,-0.19l0.494,-0.137l0.546,-0.09l0.616,-0.032l0.295,0.008l0.312,0.031l0.309,0.052l0.312,0.076l0.305,0.115l0.295,0.137l0.273,0.182l0.25,0.212l0.229,0.258l0.189,0.305l0.153,0.348l0.105,0.403l0.061,0.454l0.007,0.516l-0.052,0.577l-0.114,0.639l-0.039,0.463l-5.533,0l0.35,-1.497l3.324,0l0.016,-0.189l-0.008,-0.182l-0.016,-0.167l-0.029,-0.151l-0.055,-0.145l-0.053,-0.13l-0.076,-0.113l-0.076,-0.106l-0.09,-0.091l-0.099,-0.076l-0.114,-0.069l-0.115,-0.061l-0.119,-0.044l-0.123,-0.031l-0.129,-0.023l-0.135,-0.015l-0.146,0.008l-0.135,0.022l-0.129,0.032l-0.129,0.044l-0.131,0.061l-0.113,0.069l-0.115,0.083l-0.096,0.091l-0.099,0.106l-0.092,0.113l-0.082,0.123l-0.071,0.13l-0.068,0.136l-0.053,0.151l-0.045,0.152l-0.031,0.159l-0.305,1.571Z" style="fill:none;stroke:#e1dfd8;stroke-width:0.22px;"/><path d="M76.658,37.174l-0.1,-0.053l-0.097,-0.046l-0.106,-0.053l-0.115,-0.054l-0.113,-0.045l-0.129,-0.046l-0.129,-0.045l-0.137,-0.045l-0.144,-0.038l-0.145,-0.03l-0.16,-0.031l-0.158,-0.023l-0.174,-0.016l-0.176,-0.014l-0.182,0l-0.189,0l-0.189,0l-0.2,0.014l-0.203,0.024l-0.215,0.037l-0.211,0.061l-0.212,0.084l-0.211,0.106l-0.215,0.136l-0.205,0.168l-0.198,0.197l-0.189,0.243l-0.182,0.281l-0.168,0.333l-0.158,0.38l-0.143,0.427l-0.122,0.485l-0.045,0.272l-0.032,0.265l-0.015,0.267l0.008,0.258l0.023,0.258l0.053,0.243l0.068,0.228l0.084,0.227l0.113,0.206l0.137,0.196l0.16,0.175l0.182,0.16l0.205,0.136l0.234,0.114l0.258,0.099l0.291,0.068l0.098,0.022l0.113,0.023l0.137,0.016l0.152,0.015l0.166,0.016l0.365,0l0.19,-0.016l0.197,-0.024l0.197,-0.037l0.19,-0.053l0.189,-0.06l0.19,-0.084l0.175,-0.099l0.159,-0.121l0.152,-0.136l-0.342,2.027l-0.045,0.037l-0.047,0.046l-0.06,0.054l-0.068,0.043l-0.082,0.061l-0.108,0.054l-0.121,0.053l-0.137,0.045l-0.174,0.054l-0.197,0.038l-0.228,0.031l-0.266,0.03l-0.295,0.015l-0.342,0.008l-0.386,-0.008l-0.428,-0.023l-0.348,-0.038l-0.349,-0.076l-0.35,-0.113l-0.348,-0.153l-0.334,-0.181l-0.318,-0.229l-0.305,-0.265l-0.281,-0.303l-0.25,-0.342l-0.213,-0.379l-0.181,-0.425l-0.137,-0.464l-0.09,-0.508l-0.031,-0.54l0.015,-0.591l0.082,-0.631l0.063,-0.31l0.068,-0.304l0.074,-0.296l0.077,-0.281l0.084,-0.266l0.097,-0.265l0.1,-0.251l0.105,-0.235l0.116,-0.236l0.113,-0.22l0.129,-0.212l0.137,-0.197l0.136,-0.191l0.151,-0.181l0.152,-0.167l0.16,-0.16l0.174,-0.152l0.176,-0.144l0.181,-0.129l0.192,-0.122l0.203,-0.114l0.205,-0.097l0.213,-0.092l0.221,-0.084l0.234,-0.076l0.234,-0.06l0.244,-0.054l0.258,-0.045l0.258,-0.039l0.273,-0.029l0.274,-0.015l0.289,-0.009l0.242,0.009l0.237,0.015l0.226,0.022l0.229,0.031l0.213,0.03l0.204,0.045l0.196,0.039l0.183,0.045l0.174,0.045l0.153,0.046l0.144,0.046l0.121,0.045l0.106,0.038l0.092,0.031l0.068,0.03l0.047,0.016l-0.381,2.102Z" style="fill:#e1dfd8;"/><path d="M76.658,37.174l-0.1,-0.053l-0.097,-0.046l-0.106,-0.053l-0.115,-0.054l-0.113,-0.045l-0.129,-0.046l-0.129,-0.045l-0.137,-0.045l-0.144,-0.038l-0.145,-0.03l-0.16,-0.031l-0.158,-0.023l-0.174,-0.016l-0.176,-0.014l-0.182,0l-0.189,0l-0.189,0l-0.2,0.014l-0.203,0.024l-0.215,0.037l-0.211,0.061l-0.212,0.084l-0.211,0.106l-0.215,0.136l-0.205,0.168l-0.198,0.197l-0.189,0.243l-0.182,0.281l-0.168,0.333l-0.158,0.38l-0.143,0.427l-0.122,0.485l-0.045,0.272l-0.032,0.265l-0.015,0.267l0.008,0.258l0.023,0.258l0.053,0.243l0.068,0.228l0.084,0.227l0.113,0.206l0.137,0.196l0.16,0.175l0.182,0.16l0.205,0.136l0.234,0.114l0.258,0.099l0.291,0.068l0.098,0.022l0.113,0.023l0.137,0.016l0.152,0.015l0.166,0.016l0.365,0l0.19,-0.016l0.197,-0.024l0.197,-0.037l0.19,-0.053l0.189,-0.06l0.19,-0.084l0.175,-0.099l0.159,-0.121l0.152,-0.136l-0.342,2.027l-0.045,0.037l-0.047,0.046l-0.06,0.054l-0.068,0.043l-0.082,0.061l-0.108,0.054l-0.121,0.053l-0.137,0.045l-0.174,0.054l-0.197,0.038l-0.228,0.031l-0.266,0.03l-0.295,0.015l-0.342,0.008l-0.386,-0.008l-0.428,-0.023l-0.348,-0.038l-0.349,-0.076l-0.35,-0.113l-0.348,-0.153l-0.334,-0.181l-0.318,-0.229l-0.305,-0.265l-0.281,-0.303l-0.25,-0.342l-0.213,-0.379l-0.181,-0.425l-0.137,-0.464l-0.09,-0.508l-0.031,-0.54l0.015,-0.591l0.082,-0.631l0.063,-0.31l0.068,-0.304l0.074,-0.296l0.077,-0.281l0.084,-0.266l0.097,-0.265l0.1,-0.251l0.105,-0.235l0.116,-0.236l0.113,-0.22l0.129,-0.212l0.137,-0.197l0.136,-0.191l0.151,-0.181l0.152,-0.167l0.16,-0.16l0.174,-0.152l0.176,-0.144l0.181,-0.129l0.192,-0.122l0.203,-0.114l0.205,-0.097l0.213,-0.092l0.221,-0.084l0.234,-0.076l0.234,-0.06l0.244,-0.054l0.258,-0.045l0.258,-0.039l0.273,-0.029l0.274,-0.015l0.289,-0.009l0.242,0.009l0.237,0.015l0.226,0.022l0.229,0.031l0.213,0.03l0.204,0.045l0.196,0.039l0.183,0.045l0.174,0.045l0.153,0.046l0.144,0.046l0.121,0.045l0.106,0.038l0.092,0.031l0.068,0.03l0.047,0.016l-0.381,2.102Z" style="fill:none;stroke:#e1dfd8;stroke-width:0.22px;"/><path d="M95.345,44.848l-2.101,0l0.152,-0.842l0,-0.077l-0.123,0.153l-0.127,0.135l-0.129,0.122l-0.137,0.107l-0.138,0.099l-0.137,0.082l-0.137,0.069l-0.144,0.069l-0.143,0.053l-0.144,0.038l-0.145,0.037l-0.152,0.022l-0.152,0.024l-0.145,0.015l-0.15,0.008l-0.153,0l-0.394,-0.031l-0.363,-0.083l-0.334,-0.129l-0.305,-0.174l-0.274,-0.221l-0.242,-0.257l-0.213,-0.282l-0.181,-0.318l-0.153,-0.343l-0.121,-0.355l-0.084,-0.372l-0.06,-0.388l-0.022,-0.387l0.006,-0.394l0.039,-0.388l0.069,-0.386l0.113,-0.45l0.138,-0.424l0.157,-0.387l0.191,-0.364l0.197,-0.342l0.227,-0.304l0.236,-0.272l0.25,-0.251l0.266,-0.221l0.281,-0.189l0.289,-0.167l0.287,-0.129l0.303,-0.107l0.305,-0.068l0.304,-0.045l0.311,-0.015l0.221,0.006l0.211,0.024l0.199,0.038l0.183,0.053l0.172,0.061l0.153,0.067l0.152,0.085l0.137,0.083l0.121,0.09l0.113,0.1l0.098,0.098l0.092,0.099l0.076,0.099l0.07,0.098l0.059,0.092l0.046,0.091l0.532,-2.984l2.064,0l-1.717,9.929Z" style="fill:#e1dfd8;"/><path d="M95.345,44.848l-2.101,0l0.152,-0.842l0,-0.077l-0.123,0.153l-0.127,0.135l-0.129,0.122l-0.137,0.107l-0.138,0.099l-0.137,0.082l-0.137,0.069l-0.144,0.069l-0.143,0.053l-0.144,0.038l-0.145,0.037l-0.152,0.022l-0.152,0.024l-0.145,0.015l-0.15,0.008l-0.153,0l-0.394,-0.031l-0.363,-0.083l-0.334,-0.129l-0.305,-0.174l-0.274,-0.221l-0.242,-0.257l-0.213,-0.282l-0.181,-0.318l-0.153,-0.343l-0.121,-0.355l-0.084,-0.372l-0.06,-0.388l-0.022,-0.387l0.006,-0.394l0.039,-0.388l0.069,-0.386l0.113,-0.45l0.138,-0.424l0.157,-0.387l0.191,-0.364l0.197,-0.342l0.227,-0.304l0.236,-0.272l0.25,-0.251l0.266,-0.221l0.281,-0.189l0.289,-0.167l0.287,-0.129l0.303,-0.107l0.305,-0.068l0.304,-0.045l0.311,-0.015l0.221,0.006l0.211,0.024l0.199,0.038l0.183,0.053l0.172,0.061l0.153,0.067l0.152,0.085l0.137,0.083l0.121,0.09l0.113,0.1l0.098,0.098l0.092,0.099l0.076,0.099l0.07,0.098l0.059,0.092l0.046,0.091l0.532,-2.984l2.064,0l-1.717,9.929Z" style="fill:none;stroke:#e1dfd8;stroke-width:0.22px;"/><path d="M91.908,43.011l0.213,-0.015l0.197,-0.045l0.182,-0.053l0.176,-0.084l0.158,-0.09l0.152,-0.116l0.143,-0.127l0.13,-0.139l0.114,-0.152l0.105,-0.167l0.1,-0.174l0.084,-0.181l0.074,-0.191l0.063,-0.197l0.052,-0.205l0.037,-0.204l0.038,-0.212l0.025,-0.22l0,-0.207l-0.01,-0.211l-0.021,-0.198l-0.032,-0.19l-0.052,-0.182l-0.061,-0.175l-0.076,-0.15l-0.09,-0.145l-0.1,-0.123l-0.113,-0.106l-0.129,-0.09l-0.138,-0.061l-0.143,-0.038l-0.16,-0.016l-0.205,0.016l-0.19,0.03l-0.173,0.061l-0.176,0.076l-0.153,0.099l-0.15,0.121l-0.129,0.129l-0.129,0.145l-0.115,0.165l-0.105,0.176l-0.1,0.182l-0.084,0.197l-0.074,0.204l-0.061,0.207l-0.06,0.219l-0.047,0.22l-0.039,0.335l0.017,0.364l0.053,0.371l0.098,0.357l0.152,0.312l0.197,0.25l0.25,0.168l0.305,0.06Z" style="fill:#db9d31;"/><path d="M45.293,43.163l-0.305,1.685l-1.912,0l0.053,-0.311l0.039,-0.281l0.029,-0.213l0.031,-0.114l-0.105,0.122l-0.123,0.122l-0.143,0.114l-0.16,0.105l-0.182,0.107l-0.191,0.09l-0.197,0.092l-0.203,0.076l-0.221,0.068l-0.221,0.054l-0.219,0.045l-0.228,0.03l-0.221,0.016l-0.219,0.007l-0.212,-0.023l-0.207,-0.03l-0.266,-0.068l-0.242,-0.077l-0.213,-0.098l-0.19,-0.114l-0.166,-0.121l-0.152,-0.137l-0.121,-0.145l-0.108,-0.151l-0.089,-0.159l-0.077,-0.168l-0.06,-0.166l-0.045,-0.167l-0.031,-0.175l-0.024,-0.175l-0.015,-0.168l0,-0.166l0.023,-0.296l0.047,-0.281l0.074,-0.265l0.1,-0.259l0.121,-0.242l0.137,-0.22l0.16,-0.212l0.181,-0.191l0.19,-0.174l0.213,-0.16l0.218,-0.144l0.229,-0.122l0.242,-0.104l0.252,-0.085l0.258,-0.068l0.266,-0.046l0.015,0l0.037,-0.008l0.053,-0.007l0.084,-0.008l0.092,-0.015l0.105,-0.008l0.114,-0.015l0.13,-0.015l0.129,-0.014l0.129,-0.016l0.137,-0.008l0.121,-0.015l0.121,-0.007l0.113,-0.009l0.106,-0.007l0.26,0l0.183,0.007l0.166,0.009l0.166,0l0.137,0.007l0.107,0.007l0.075,0.008l0.023,0l0.016,-0.053l0.045,-0.136l0.039,-0.161l0.013,-0.143l-0.029,-0.167l-0.068,-0.153l-0.092,-0.136l-0.121,-0.114l-0.145,-0.097l-0.158,-0.069l-0.183,-0.046l-0.198,-0.015l-0.213,-0.008l-0.228,-0.007l-0.235,0l-0.242,0.007l-0.25,0.016l-0.244,0.022l-0.242,0.023l-0.236,0.031l-0.227,0.029l-0.221,0.038l-0.197,0.038l-0.182,0.038l-0.167,0.047l-0.135,0.044l-0.108,0.054l-0.084,0.045l0.539,-1.829l0.168,-0.068l0.166,-0.061l0.184,-0.053l0.182,-0.039l0.181,-0.038l0.197,-0.029l0.198,-0.031l0.205,-0.016l0.213,-0.014l0.219,-0.008l0.228,-0.008l0.729,0l0.265,0.008l0.266,0.008l0.213,0.014l0.228,0.039l0.236,0.053l0.241,0.069l0.234,0.091l0.231,0.106l0.226,0.129l0.213,0.144l0.19,0.168l0.167,0.181l0.153,0.205l0.113,0.228l0.076,0.244l0.045,0.257l0,0.288l-0.045,0.304l-0.767,4.008Z" style="fill:#e1dfd8;"/><path d="M45.293,43.163l-0.305,1.685l-1.912,0l0.053,-0.311l0.039,-0.281l0.029,-0.213l0.031,-0.114l-0.105,0.122l-0.123,0.122l-0.143,0.114l-0.16,0.105l-0.182,0.107l-0.191,0.09l-0.197,0.092l-0.203,0.076l-0.221,0.068l-0.221,0.054l-0.219,0.045l-0.228,0.03l-0.221,0.016l-0.219,0.007l-0.212,-0.023l-0.207,-0.03l-0.266,-0.068l-0.242,-0.077l-0.213,-0.098l-0.19,-0.114l-0.166,-0.121l-0.152,-0.137l-0.121,-0.145l-0.108,-0.151l-0.089,-0.159l-0.077,-0.168l-0.06,-0.166l-0.045,-0.167l-0.031,-0.175l-0.024,-0.175l-0.015,-0.168l0,-0.166l0.023,-0.296l0.047,-0.281l0.074,-0.265l0.1,-0.259l0.121,-0.242l0.137,-0.22l0.16,-0.212l0.181,-0.191l0.19,-0.174l0.213,-0.16l0.218,-0.144l0.229,-0.122l0.242,-0.104l0.252,-0.085l0.258,-0.068l0.266,-0.046l0.015,0l0.037,-0.008l0.053,-0.007l0.084,-0.008l0.092,-0.015l0.105,-0.008l0.114,-0.015l0.13,-0.015l0.129,-0.014l0.129,-0.016l0.137,-0.008l0.121,-0.015l0.121,-0.007l0.113,-0.009l0.106,-0.007l0.26,0l0.183,0.007l0.166,0.009l0.166,0l0.137,0.007l0.107,0.007l0.075,0.008l0.023,0l0.016,-0.053l0.045,-0.136l0.039,-0.161l0.013,-0.143l-0.029,-0.167l-0.068,-0.153l-0.092,-0.136l-0.121,-0.114l-0.145,-0.097l-0.158,-0.069l-0.183,-0.046l-0.198,-0.015l-0.213,-0.008l-0.228,-0.007l-0.235,0l-0.242,0.007l-0.25,0.016l-0.244,0.022l-0.242,0.023l-0.236,0.031l-0.227,0.029l-0.221,0.038l-0.197,0.038l-0.182,0.038l-0.167,0.047l-0.135,0.044l-0.108,0.054l-0.084,0.045l0.539,-1.829l0.168,-0.068l0.166,-0.061l0.184,-0.053l0.182,-0.039l0.181,-0.038l0.197,-0.029l0.198,-0.031l0.205,-0.016l0.213,-0.014l0.219,-0.008l0.228,-0.008l0.729,0l0.265,0.008l0.266,0.008l0.213,0.014l0.228,0.039l0.236,0.053l0.241,0.069l0.234,0.091l0.231,0.106l0.226,0.129l0.213,0.144l0.19,0.168l0.167,0.181l0.153,0.205l0.113,0.228l0.076,0.244l0.045,0.257l0,0.288l-0.045,0.304l-0.767,4.008Z" style="fill:none;stroke:#e1dfd8;stroke-width:0.22px;"/><path d="M43.465,41.181l-0.008,-0.037l-0.031,-0.038l-0.046,-0.023l-0.076,-0.015l-0.084,-0.015l-0.097,-0.009l-0.115,0l-0.114,0l-0.123,0.009l-0.129,0.015l-0.121,0.015l-0.121,0.016l-0.113,0.015l-0.108,0.022l-0.089,0.023l-0.085,0.022l-0.052,0.015l-0.061,0.024l-0.084,0.03l-0.084,0.038l-0.097,0.046l-0.1,0.053l-0.105,0.052l-0.1,0.062l-0.106,0.075l-0.097,0.076l-0.092,0.092l-0.084,0.091l-0.076,0.098l-0.053,0.107l-0.047,0.121l-0.021,0.121l-0.008,0.259l0.039,0.204l0.074,0.153l0.1,0.113l0.113,0.076l0.129,0.045l0.121,0.023l0.123,0.008l0.229,-0.008l0.205,-0.023l0.197,-0.031l0.172,-0.045l0.154,-0.053l0.143,-0.067l0.129,-0.069l0.115,-0.084l0.099,-0.076l0.09,-0.091l0.077,-0.083l0.06,-0.091l0.053,-0.091l0.045,-0.091l0.039,-0.084l0.021,-0.084l0.063,-0.219l0.052,-0.251l0.046,-0.243l0.039,-0.198Z" style="fill:#ce2d34;"/><path d="M29.322,44.848l-2.064,0l1.722,-9.966l3.592,0l0.34,5.912l2.482,-5.912l3.75,0l-1.761,9.966l-2.065,0l1.305,-7.446l-0.082,0l-3.09,7.446l-2.33,0l-0.014,-0.311l-0.055,-0.828l-0.068,-1.176l-0.076,-1.352l-0.076,-1.358l-0.069,-1.191l-0.052,-0.865l-0.016,-0.365l-0.021,0l-0.045,0l-0.047,0l-1.26,7.446Z" style="fill:#e1dfd8;"/><path d="M29.322,44.848l-2.064,0l1.722,-9.966l3.592,0l0.34,5.912l2.482,-5.912l3.75,0l-1.761,9.966l-2.065,0l1.305,-7.446l-0.082,0l-3.09,7.446l-2.33,0l-0.014,-0.311l-0.055,-0.828l-0.068,-1.176l-0.076,-1.352l-0.076,-1.358l-0.069,-1.191l-0.052,-0.865l-0.016,-0.365l-0.021,0l-0.045,0l-0.047,0l-1.26,7.446Z" style="fill:none;stroke:#e1dfd8;stroke-width:0.22px;"/><path d="M82.966,43.163l-0.31,1.685l-1.906,0l0.015,-0.311l0.008,-0.273l0,-0.205l0.016,-0.091l-0.1,0.114l-0.115,0.113l-0.137,0.106l-0.15,0.108l-0.16,0.097l-0.182,0.091l-0.19,0.092l-0.189,0.076l-0.207,0.06l-0.211,0.06l-0.213,0.039l-0.211,0.03l-0.222,0.016l-0.211,0.007l-0.207,-0.023l-0.204,-0.03l-0.273,-0.068l-0.242,-0.077l-0.213,-0.098l-0.197,-0.114l-0.168,-0.121l-0.145,-0.137l-0.121,-0.145l-0.107,-0.151l-0.09,-0.159l-0.069,-0.168l-0.06,-0.166l-0.037,-0.167l-0.031,-0.175l-0.024,-0.175l-0.015,-0.168l0,-0.166l0.015,-0.296l0.047,-0.281l0.068,-0.265l0.098,-0.259l0.113,-0.242l0.147,-0.22l0.158,-0.212l0.174,-0.191l0.199,-0.174l0.203,-0.16l0.221,-0.144l0.234,-0.122l0.237,-0.104l0.25,-0.085l0.25,-0.068l0.257,-0.046l0.016,0l0.039,-0.008l0.053,-0.007l0.076,-0.008l0.098,-0.015l0.107,-0.008l0.113,-0.015l0.122,-0.015l0.128,-0.014l0.137,-0.016l0.129,-0.008l0.131,-0.015l0.121,-0.007l0.105,-0.009l0.106,-0.007l0.265,0l0.184,0.007l0.174,0.009l0.168,0l0.143,0.007l0.123,0.007l0.068,0.008l0.031,0l0.014,-0.053l0.023,-0.136l0.022,-0.161l0.015,-0.143l-0.031,-0.167l-0.059,-0.153l-0.099,-0.136l-0.115,-0.114l-0.135,-0.097l-0.16,-0.069l-0.168,-0.046l-0.182,-0.015l-0.213,-0.008l-0.226,-0.007l-0.237,0l-0.242,0.007l-0.252,0.016l-0.242,0.022l-0.242,0.023l-0.237,0.031l-0.226,0.029l-0.221,0.038l-0.195,0.038l-0.184,0.038l-0.168,0.047l-0.136,0.044l-0.106,0.054l-0.084,0.045l0.533,-1.829l0.166,-0.068l0.174,-0.061l0.174,-0.053l0.184,-0.039l0.189,-0.038l0.19,-0.029l0.197,-0.031l0.205,-0.016l0.213,-0.014l0.22,-0.008l0.219,-0.008l0.715,0l0.516,0.016l0.213,0.014l0.228,0.039l0.234,0.053l0.245,0.069l0.234,0.091l0.234,0.106l0.229,0.129l0.213,0.144l0.189,0.168l0.176,0.181l0.151,0.205l0.113,0.228l0.084,0.244l0.053,0.257l0,0.288l-0.038,0.304l-0.797,4.008Z" style="fill:#e1dfd8;"/><path d="M82.656,44.901l0.045,-0.045l0.31,-1.686l-0.091,-0.015l-0.311,1.686l0.047,-0.047l0,0.107l0.037,-0.008l0.008,-0.037l-0.045,0.045Z" style="fill:#e1dfd8;"/><path d="M80.703,44.848l0.047,0.053l1.906,0l0,-0.107l-1.906,0l0.045,0.054l-0.092,0l-0.006,0.053l0.053,0l-0.047,-0.053Z" style="fill:#e1dfd8;"/><path d="M80.826,43.997l-0.068,-0.06l-0.032,0.122l-0.008,0.205l0,0.273l-0.015,0.311l0.092,0l0.015,-0.311l0.016,-0.273l-0.01,-0.205l0,-0.062l-0.066,-0.06l0.076,0.06Z" style="fill:#e1dfd8;"/><path d="M77.873,44.97l0.211,0.03l0.207,0.022l0.211,-0.006l0.222,-0.016l0.219,-0.03l0.213,-0.039l0.211,-0.059l0.213,-0.062l0.189,-0.076l0.197,-0.09l0.182,-0.091l0.16,-0.107l0.16,-0.107l0.137,-0.105l0.121,-0.123l0.1,-0.114l-0.076,-0.06l-0.1,0.114l-0.105,0.106l-0.137,0.107l-0.145,0.106l-0.16,0.091l-0.181,0.092l-0.182,0.091l-0.189,0.075l-0.2,0.06l-0.211,0.062l-0.213,0.038l-0.203,0.029l-0.222,0.016l-0.211,0.007l-0.207,-0.023l-0.198,-0.029l-0.013,0.091Z" style="fill:#e1dfd8;"/><path d="M76.035,42.669l0.008,0.166l0.015,0.168l0.022,0.183l0.031,0.174l0.039,0.167l0.061,0.175l0.068,0.174l0.098,0.16l0.107,0.159l0.121,0.144l0.153,0.144l0.173,0.122l0.198,0.122l0.22,0.098l0.248,0.076l0.276,0.069l0.013,-0.091l-0.271,-0.069l-0.235,-0.076l-0.206,-0.098l-0.198,-0.107l-0.16,-0.12l-0.137,-0.131l-0.121,-0.144l-0.105,-0.144l-0.082,-0.159l-0.07,-0.16l-0.061,-0.158l-0.037,-0.168l-0.031,-0.175l-0.022,-0.167l-0.016,-0.168l0.008,-0.166l-0.107,0Z" style="fill:#e1dfd8;"/><path d="M78.759,39.754l-0.263,0.046l-0.258,0.069l-0.25,0.083l-0.244,0.106l-0.236,0.121l-0.229,0.153l-0.203,0.16l-0.197,0.181l-0.184,0.19l-0.158,0.212l-0.153,0.228l-0.113,0.251l-0.099,0.258l-0.069,0.273l-0.045,0.288l-0.023,0.296l0.107,0l0.008,-0.296l0.045,-0.273l0.068,-0.258l0.098,-0.258l0.115,-0.236l0.137,-0.212l0.16,-0.213l0.166,-0.189l0.195,-0.167l0.207,-0.16l0.211,-0.136l0.237,-0.123l0.226,-0.105l0.252,-0.083l0.242,-0.069l0.25,-0.045l0,-0.092Z" style="fill:#e1dfd8;"/><path d="M80.324,39.595l-0.084,0l-0.106,0.016l-0.105,0.009l-0.121,0.006l-0.131,0.014l-0.129,0.008l-0.137,0.016l-0.128,0.014l-0.122,0.016l-0.113,0.016l-0.107,0.006l-0.098,0.016l-0.076,0.007l-0.061,0.008l-0.031,0.007l-0.016,0l0,0.092l0.016,0l0.047,-0.009l0.045,-0.006l0.076,-0.008l0.098,-0.015l0.107,-0.008l0.113,-0.015l0.122,-0.016l0.128,-0.015l0.137,-0.015l0.129,-0.007l0.131,-0.016l0.121,-0.006l0.105,-0.009l0.19,0l0,-0.106Z" style="fill:#e1dfd8;"/><path d="M81.349,39.678l0.047,-0.038l-0.031,0l-0.068,-0.007l-0.123,-0.007l-0.143,-0.015l-0.168,0l-0.174,0l-0.184,-0.016l-0.181,0l0,0.106l0.365,0l0.174,0.015l0.311,0l0.123,0.008l0.068,0.008l0.031,0l0.043,-0.038l-0.043,0.038l0.037,0.007l0.006,-0.045l-0.09,-0.016Z" style="fill:#e1dfd8;"/><path d="M81.426,39.193l-0.008,0l-0.008,0.143l-0.024,0.153l-0.021,0.137l-0.016,0.052l0.09,0.016l0.016,-0.054l0.023,-0.138l0.024,-0.166l0.023,-0.143l-0.01,0l-0.089,0Z" style="fill:#e1dfd8;"/><path d="M80.521,38.441l0,0.008l0.176,0.008l0.158,0.045l0.153,0.068l0.128,0.092l0.106,0.106l0.092,0.129l0.062,0.136l0.03,0.16l0.089,0l-0.029,-0.174l-0.06,-0.168l-0.108,-0.143l-0.121,-0.123l-0.145,-0.105l-0.168,-0.069l-0.173,-0.045l-0.19,-0.023l0,0.098Z" style="fill:#e1dfd8;"/><path d="M77.265,38.806l0.076,0.045l0.077,-0.038l0.097,-0.053l0.129,-0.046l0.168,-0.044l0.182,-0.038l0.197,-0.039l0.221,-0.038l0.218,-0.029l0.237,-0.032l0.242,-0.023l0.242,-0.022l0.252,-0.015l0.705,0l0.213,0.007l0,-0.091l-0.213,-0.007l-0.226,-0.016l-0.237,0l-0.242,0.016l-0.252,0.014l-0.242,0.024l-0.242,0.023l-0.237,0.03l-0.234,0.029l-0.22,0.039l-0.198,0.039l-0.181,0.038l-0.167,0.044l-0.144,0.047l-0.115,0.052l-0.092,0.053l0.078,0.046l-0.092,-0.015Z" style="fill:#e1dfd8;"/><path d="M77.828,36.938l-0.031,0.039l-0.532,1.829l0.092,0.015l0.529,-1.83l-0.029,0.039l-0.029,-0.092l-0.024,0.008l-0.007,0.031l0.031,-0.039Z" style="fill:#e1dfd8;"/><path d="M81.205,36.59l-0.258,-0.015l-0.258,-0.009l-0.244,0l-0.236,0l-0.235,0l-0.219,0.016l-0.22,0.008l-0.213,0.016l-0.205,0.013l-0.205,0.03l-0.188,0.031l-0.191,0.039l-0.184,0.038l-0.181,0.053l-0.174,0.06l-0.166,0.068l0.029,0.092l0.168,-0.069l0.174,-0.06l0.166,-0.054l0.184,-0.037l0.189,-0.039l0.189,-0.03l0.19,-0.031l0.205,-0.014l0.213,-0.016l0.22,-0.007l0.934,0l0.258,0.007l0.258,0l0,-0.09Z" style="fill:#e1dfd8;"/><path d="M83.808,39.163l0.039,-0.312l0,-0.288l-0.052,-0.267l-0.084,-0.25l-0.121,-0.234l-0.153,-0.213l-0.183,-0.189l-0.19,-0.168l-0.219,-0.145l-0.228,-0.136l-0.242,-0.106l-0.237,-0.092l-0.25,-0.067l-0.236,-0.053l-0.234,-0.037l-0.213,-0.016l0,0.09l0.213,0.016l0.218,0.038l0.237,0.053l0.236,0.068l0.234,0.091l0.227,0.107l0.229,0.121l0.205,0.144l0.189,0.166l0.166,0.176l0.152,0.196l0.108,0.222l0.084,0.235l0.052,0.25l0,0.288l-0.039,0.297l0.092,0.015Z" style="fill:#e1dfd8;"/><path d="M83.011,43.17l0.797,-4.007l-0.092,-0.015l-0.796,4.007l0.091,0.015Z" style="fill:#e1dfd8;"/><path d="M81.129,41.181l-0.016,-0.045l-0.029,-0.037l-0.053,-0.024l-0.078,-0.022l-0.082,-0.009l-0.098,-0.007l-0.115,0l-0.113,0.007l-0.123,0.016l-0.12,0.015l-0.121,0.016l-0.115,0.015l-0.113,0.023l-0.1,0.015l-0.098,0.023l-0.076,0.014l-0.052,0.008l-0.061,0.023l-0.076,0.023l-0.084,0.03l-0.1,0.045l-0.091,0.046l-0.106,0.054l-0.098,0.067l-0.099,0.069l-0.098,0.083l-0.084,0.083l-0.084,0.1l-0.066,0.106l-0.055,0.113l-0.045,0.122l-0.023,0.129l-0.008,0.259l0.037,0.204l0.063,0.153l0.089,0.113l0.114,0.076l0.131,0.045l0.128,0.023l0.129,0.008l0.227,-0.008l0.213,-0.023l0.197,-0.038l0.176,-0.052l0.166,-0.061l0.144,-0.068l0.137,-0.078l0.121,-0.09l0.108,-0.083l0.089,-0.098l0.084,-0.092l0.069,-0.099l0.053,-0.091l0.037,-0.092l0.031,-0.09l0.023,-0.083l0.03,-0.213l0.039,-0.22l0.029,-0.212l0.016,-0.191Z" style="fill:#db9d31;"/><path d="M96.765,43.809l0.016,-0.176l0.06,-0.205l0.108,-0.182l0.129,-0.159l0.158,-0.128l0.182,-0.092l0.197,-0.062l0.213,-0.022l0.215,0.022l0.195,0.062l0.184,0.092l0.158,0.128l0.129,0.159l0.105,0.182l0.063,0.205l0.015,0.176l-0.228,0l-0.008,-0.138l-0.045,-0.167l-0.076,-0.151l-0.1,-0.13l-0.121,-0.106l-0.142,-0.075l-0.168,-0.054l-0.176,-0.015l-0.174,0.015l-0.166,0.054l-0.147,0.075l-0.121,0.106l-0.097,0.13l-0.076,0.151l-0.045,0.167l-0.016,0.138l-0.221,0Z" style="fill:#e1dfd8;"/><path d="M97.449,43.809l0,-0.456l0.418,0l0.092,0.007l0.084,0.015l0.058,0.023l0.055,0.03l0.037,0.046l0.029,0.046l0.016,0.052l0.008,0.054l-0.008,0.068l-0.016,0.053l-0.021,0.046l-0.016,0.016l-0.318,0l0.029,-0.009l0.053,-0.007l0.047,-0.015l0.039,-0.015l0.029,-0.023l0.016,-0.024l0.015,-0.036l0,-0.054l-0.009,-0.038l-0.014,-0.031l-0.025,-0.014l-0.022,-0.016l-0.037,-0.007l-0.039,-0.007l-0.037,0l-0.045,0l-0.229,0l0,0.296l-0.189,0Z" style="fill:#e1dfd8;"/><path d="M96.765,43.809l-0.006,0.045l0.022,0.22l0.06,0.204l0.108,0.183l0.129,0.152l0.158,0.128l0.182,0.1l0.197,0.06l0.213,0.023l0.215,-0.023l0.195,-0.06l0.184,-0.1l0.158,-0.128l0.129,-0.152l0.105,-0.183l0.063,-0.204l0.023,-0.22l-0.008,-0.045l-0.228,0l0.008,0.045l-0.016,0.182l-0.045,0.167l-0.076,0.145l-0.1,0.127l-0.121,0.108l-0.142,0.082l-0.168,0.054l-0.176,0.015l-0.174,-0.015l-0.166,-0.054l-0.147,-0.082l-0.121,-0.108l-0.097,-0.127l-0.076,-0.145l-0.045,-0.167l-0.016,-0.182l0,-0.045l-0.221,0Z" style="fill:#e1dfd8;"/><path d="M97.449,43.809l0,0.463l0.189,0l0,-0.38l0.19,0l0.228,0.38l0.151,0l-0.227,-0.38l0.055,0l0.051,-0.016l0.047,-0.015l0.039,-0.03l0.013,-0.022l-0.318,0l-0.039,0.007l-0.19,0l0,-0.007l-0.189,0Z" style="fill:#e1dfd8;"/><path d="M97.828,44.734l0.176,-0.015l0.168,-0.054l0.142,-0.082l0.121,-0.108l0.1,-0.127l0.076,-0.145l0.045,-0.167l0.016,-0.182l-0.016,-0.183l-0.045,-0.167l-0.076,-0.151l-0.1,-0.13l-0.121,-0.106l-0.142,-0.075l-0.168,-0.054l-0.176,-0.015l-0.174,0.015l-0.166,0.054l-0.147,0.075l-0.121,0.106l-0.097,0.13l-0.076,0.151l-0.045,0.167l-0.016,0.183l0.016,0.182l0.045,0.167l0.076,0.145l0.097,0.127l0.121,0.108l0.147,0.082l0.166,0.054l0.174,0.015Zm0,-0.918l0.068,-0.016l0.053,-0.007l0.047,-0.015l0.039,-0.015l0.029,-0.023l0.016,-0.024l0.015,-0.036l0,-0.054l-0.009,-0.038l-0.014,-0.031l-0.025,-0.014l-0.022,-0.016l-0.037,-0.007l-0.039,-0.007l-0.037,0l-0.045,0l-0.229,0l0,0.303l0.19,0Zm-0.19,0.456l-0.189,0l0,-0.919l0.418,0l0.092,0.007l0.084,0.015l0.058,0.023l0.055,0.03l0.037,0.046l0.029,0.046l0.016,0.052l0.008,0.054l-0.008,0.068l-0.016,0.053l-0.021,0.046l-0.029,0.038l-0.039,0.03l-0.047,0.015l-0.051,0.016l-0.055,0l0.227,0.38l-0.151,0l-0.228,-0.38l-0.19,0l0,0.38Zm-0.879,-0.418l0.022,-0.221l0.06,-0.205l0.108,-0.182l0.129,-0.159l0.158,-0.128l0.182,-0.092l0.197,-0.062l0.213,-0.022l0.215,0.022l0.195,0.062l0.184,0.092l0.158,0.128l0.129,0.159l0.105,0.182l0.063,0.205l0.023,0.221l-0.023,0.22l-0.063,0.204l-0.105,0.183l-0.129,0.152l-0.158,0.128l-0.184,0.1l-0.195,0.06l-0.215,0.023l-0.213,-0.023l-0.197,-0.06l-0.182,-0.1l-0.158,-0.128l-0.129,-0.152l-0.108,-0.183l-0.06,-0.204l-0.022,-0.22Z" style="fill:none;stroke:#e1dfd8;stroke-width:0.22px;"/><path d="M83.535,44.848l2.141,0l0.767,-4.319l0.029,-0.166l0.045,-0.168l0.047,-0.167l0.061,-0.167l0.076,-0.167l0.09,-0.16l0.099,-0.151l0.123,-0.145l0.135,-0.128l0.153,-0.122l0.173,-0.115l0.198,-0.091l0.22,-0.074l0.242,-0.061l0.266,-0.046l0.297,-0.016l0.189,0l0.342,-1.95l-0.213,0.014l-0.205,0.024l-0.189,0.037l-0.182,0.053l-0.168,0.061l-0.158,0.077l-0.152,0.083l-0.143,0.091l-0.139,0.107l-0.128,0.106l-0.122,0.122l-0.121,0.12l-0.115,0.13l-0.111,0.143l-0.116,0.137l-0.107,0.152l0.229,-1.373l-2.133,0l-1.42,8.129Z" style="fill:#e1dfd8;"/><path d="M83.535,44.848l2.141,0l0.767,-4.319l0.029,-0.166l0.045,-0.168l0.047,-0.167l0.061,-0.167l0.076,-0.167l0.09,-0.16l0.099,-0.151l0.123,-0.145l0.135,-0.128l0.153,-0.122l0.173,-0.115l0.198,-0.091l0.22,-0.074l0.242,-0.061l0.266,-0.046l0.297,-0.016l0.189,0l0.342,-1.95l-0.213,0.014l-0.205,0.024l-0.189,0.037l-0.182,0.053l-0.168,0.061l-0.158,0.077l-0.152,0.083l-0.143,0.091l-0.139,0.107l-0.128,0.106l-0.122,0.122l-0.121,0.12l-0.115,0.13l-0.111,0.143l-0.116,0.137l-0.107,0.152l0.229,-1.373l-2.133,0l-1.42,8.129Z" style="fill:none;stroke:#e1dfd8;stroke-width:0.22px;"/><path d="M63.435,44.848l2.178,0l0.728,-4.319l0.032,-0.166l0.037,-0.16l0.039,-0.16l0.053,-0.152l0.06,-0.152l0.076,-0.144l0.09,-0.136l0.108,-0.129l0.121,-0.116l0.136,-0.112l0.166,-0.092l0.184,-0.083l0.213,-0.069l0.234,-0.059l0.258,-0.039l0.297,-0.023l0.021,0l0.032,0.008l0.037,0.007l0.039,0l0.039,0.008l0.029,0.008l0.022,0.007l0.008,0l0.009,-0.03l0.022,-0.091l0.029,-0.136l0.039,-0.168l0.053,-0.197l0.053,-0.213l0.07,-0.212l0.066,-0.214l0.063,-0.143l0.076,-0.145l0.074,-0.143l0.076,-0.129l0.069,-0.114l0.053,-0.091l0.037,-0.053l0.015,-0.023l-0.008,0l-0.029,-0.008l-0.039,-0.008l-0.053,-0.008l-0.052,0l-0.061,-0.006l-0.053,-0.008l-0.052,0l-0.237,0.014l-0.211,0.024l-0.199,0.037l-0.181,0.047l-0.176,0.06l-0.159,0.077l-0.144,0.074l-0.137,0.091l-0.129,0.1l-0.121,0.114l-0.113,0.114l-0.115,0.127l-0.114,0.131l-0.107,0.145l-0.113,0.15l-0.114,0.152l0.274,-1.373l-2.178,0l-1.42,8.129Z" style="fill:#e1dfd8;"/><path d="M63.435,44.848l2.178,0l0.728,-4.319l0.032,-0.166l0.037,-0.16l0.039,-0.16l0.053,-0.152l0.06,-0.152l0.076,-0.144l0.09,-0.136l0.108,-0.129l0.121,-0.116l0.136,-0.112l0.166,-0.092l0.184,-0.083l0.213,-0.069l0.234,-0.059l0.258,-0.039l0.297,-0.023l0.021,0l0.032,0.008l0.037,0.007l0.039,0l0.039,0.008l0.029,0.008l0.022,0.007l0.008,0l0.009,-0.03l0.022,-0.091l0.029,-0.136l0.039,-0.168l0.053,-0.197l0.053,-0.213l0.07,-0.212l0.066,-0.214l0.063,-0.143l0.076,-0.145l0.074,-0.143l0.076,-0.129l0.069,-0.114l0.053,-0.091l0.037,-0.053l0.015,-0.023l-0.008,0l-0.029,-0.008l-0.039,-0.008l-0.053,-0.008l-0.052,0l-0.061,-0.006l-0.053,-0.008l-0.052,0l-0.237,0.014l-0.211,0.024l-0.199,0.037l-0.181,0.047l-0.176,0.06l-0.159,0.077l-0.144,0.074l-0.137,0.091l-0.129,0.1l-0.121,0.114l-0.113,0.114l-0.115,0.127l-0.114,0.131l-0.107,0.145l-0.113,0.15l-0.114,0.152l0.274,-1.373l-2.178,0l-1.42,8.129Z" style="fill:none;stroke:#e1dfd8;stroke-width:0.22px;"/><path d="M96.781,52.834l0,-0.031l0.06,-0.197l0.108,-0.175l0.129,-0.151l0.158,-0.122l0.182,-0.092l0.197,-0.052l0.213,-0.023l0.215,0.023l0.195,0.052l0.184,0.092l0.158,0.122l0.129,0.151l0.105,0.175l0.063,0.197l0,0.031l-0.221,0l-0.045,-0.159l-0.076,-0.145l-0.1,-0.13l-0.121,-0.105l-0.142,-0.084l-0.168,-0.053l-0.176,-0.015l-0.174,0.015l-0.166,0.053l-0.147,0.084l-0.121,0.105l-0.097,0.13l-0.076,0.145l-0.045,0.159l-0.221,0Z" style="fill:#db9d31;"/><path d="M97.449,52.834l0,-0.265l0.51,0l0.084,0.015l0.058,0.013l0.055,0.03l0.037,0.04l0.029,0.045l0.016,0.053l0.008,0.069l-0.151,0l0,-0.039l-0.009,-0.038l-0.014,-0.03l-0.025,-0.015l-0.022,-0.015l-0.037,-0.008l-0.039,-0.007l-0.037,0l-0.045,0l-0.229,0l0,0.152l-0.189,0Z" style="fill:#db9d31;"/><path d="M96.759,53l0.022,-0.166l0.221,0l0,0.006l-0.016,0.16l-0.227,0Z" style="fill:#db9d31;"/><path d="M97.449,53l0,-0.166l0.189,0l0,0.151l0.19,0l0.068,-0.014l0.053,-0.008l0.047,-0.016l0.039,-0.015l0.029,-0.022l0.016,-0.024l0.015,-0.036l0,-0.016l0.151,0l-0.008,0.052l-0.016,0.046l-0.021,0.039l-0.029,0.029l-0.723,0Z" style="fill:#db9d31;"/><path d="M98.672,53l-0.016,-0.16l0,-0.006l0.221,0l0.023,0.166l-0.228,0Z" style="fill:#db9d31;"/><path d="M96.759,53l0,0.023l0.022,0.22l0.06,0.205l0.108,0.182l0.129,0.16l0.158,0.129l0.182,0.09l0.197,0.062l0.213,0.022l0.215,-0.022l0.195,-0.062l0.184,-0.09l0.158,-0.129l0.129,-0.16l0.105,-0.182l0.063,-0.205l0.023,-0.22l0,-0.023l-0.228,0l0,0.023l-0.016,0.183l-0.045,0.167l-0.076,0.143l-0.1,0.128l-0.121,0.108l-0.142,0.083l-0.168,0.054l-0.176,0.015l-0.174,-0.015l-0.166,-0.054l-0.147,-0.083l-0.121,-0.108l-0.097,-0.128l-0.076,-0.143l-0.045,-0.167l-0.016,-0.183l0,-0.023l-0.227,0Z" style="fill:#db9d31;"/><path d="M97.449,53l0,0.441l0.189,0l0,-0.38l0.19,0l0.228,0.38l0.151,0l-0.227,-0.38l0.055,0l0.051,-0.015l0.047,-0.015l0.039,-0.031l-0.723,0Z" style="fill:#db9d31;"/><path d="M61.613,39.837l-2.773,0l0.001,-0.006l-0.003,-0.001l0.019,-0.106l0.031,-0.159l0.045,-0.152l0.053,-0.151l0.068,-0.136l0.071,-0.13l0.082,-0.123l0.092,-0.113l0.099,-0.106l0.096,-0.091l0.115,-0.083l0.113,-0.069l0.131,-0.061l0.129,-0.044l0.129,-0.032l0.135,-0.022l0.146,-0.008l0.135,0.015l0.129,0.023l0.123,0.031l0.119,0.044l0.115,0.061l0.114,0.069l0.099,0.076l0.09,0.091l0.076,0.106l0.076,0.113l0.053,0.13l0.055,0.145l0.029,0.151l0.016,0.167l0.008,0.182l-0.016,0.189Zm2.057,-0.698l-0.061,-0.454l-0.105,-0.403l-0.153,-0.348l-0.189,-0.305l-0.229,-0.258l-0.25,-0.212l-0.273,-0.182l-0.295,-0.137l-0.305,-0.115l-0.312,-0.076l-0.309,-0.052l-0.312,-0.031l-0.295,-0.008l-0.616,0.032l-0.546,0.09l-0.494,0.137l-0.44,0.19l-0.381,0.228l-0.334,0.258l-0.295,0.288l-0.244,0.304l-0.211,0.319l-0.176,0.333l-0.134,0.327l-0.116,0.325l-0.084,0.321l-0.06,0.294l-0.045,0.282l-0.031,0.243l-0.037,0.622l0.021,0.561l0.084,0.509l0.129,0.448l0.183,0.402l0.219,0.35l0.258,0.311l0.297,0.258l0.318,0.22l0.342,0.189l0.358,0.146l0.371,0.113l0.381,0.092l0.378,0.053l0.379,0.038l0.373,0.007l0.25,0l0.235,-0.007l0.205,0l0.197,-0.008l0.176,-0.015l0.158,-0.015l0.152,-0.015l0.137,-0.023l0.129,-0.024l0.121,-0.029l0.123,-0.039l0.114,-0.037l0.113,-0.047l0.121,-0.044l0.123,-0.062l0.121,-0.06l0.305,-1.867l-0.223,0.129l-0.211,0.12l-0.221,0.093l-0.213,0.083l-0.205,0.068l-0.21,0.045l-0.208,0.038l-0.205,0.031l-0.203,0.015l-0.199,0.008l-0.205,0l-0.195,-0.008l-0.2,-0.015l-0.197,-0.023l-0.187,-0.023l-0.2,-0.03l-0.152,-0.031l-0.15,-0.053l-0.155,-0.067l-0.134,-0.085l-0.137,-0.09l-0.121,-0.113l-0.113,-0.115l-0.108,-0.13l-0.092,-0.128l-0.082,-0.143l-0.06,-0.138l-0.055,-0.145l-0.031,-0.144l-0.012,-0.145l0.006,-0.128l0.018,-0.098l4.923,0l0.039,-0.463l0.114,-0.639l0.052,-0.577l-0.007,-0.516Z" style="fill:#e1dfd8;"/></svg>