<?xml version="1.0" encoding="UTF-8" standalone="no"?><!DOCTYPE svg PUBLIC "-//W3C//DTD SVG 1.1//EN" "http://www.w3.org/Graphics/SVG/1.1/DTD/svg11.dtd"><svg width="100%" height="100%" viewBox="0 0 126 79" version="1.1" xmlns="http://www.w3.org/2000/svg" xmlns:xlink="http://www.w3.org/1999/xlink" xml:space="preserve" style="fill-rule:evenodd;clip-rule:evenodd;stroke-linejoin:round;stroke-miterlimit:1.41421;"><path d="M125.43,74.212c0,2.309 -1.873,4.18 -4.182,4.18l-117.068,0c-2.309,0 -4.18,-1.871 -4.18,-4.18l0,-70.03c0,-2.311 1.871,-4.182 4.18,-4.182l117.068,0c2.309,0 4.182,1.871 4.182,4.182l0,70.03Z" style="fill:#405390;fill-rule:nonzero;"/><path d="M57.721,50.971l-6.127,0l3.83,-23.534l6.127,0l-3.83,23.534Z" style="fill:#e1dfd8;fill-rule:nonzero;"/><path d="M46.439,27.437l-5.841,16.187l-0.692,-3.486l0,0.001l-2.06,-10.583c0,0 -0.25,-2.119 -2.907,-2.119l-9.658,0l-0.111,0.398c0,0 2.953,0.614 6.408,2.69l5.322,20.446l6.385,0l9.75,-23.534l-6.596,0Z" style="fill:#e1dfd8;fill-rule:nonzero;"/><path d="M87.893,42.647l3.218,-8.809l1.813,8.809l-5.031,0Zm6.742,8.324l5.625,0l-4.905,-23.534l-4.925,0c-2.276,0 -2.83,1.753 -2.83,1.753l-9.137,21.781l6.387,0l1.275,-3.495l7.791,0l0.719,3.495Z" style="fill:#e1dfd8;fill-rule:nonzero;"/><path d="M78.941,33.096l0.873,-5.054c0,0 -2.697,-1.026 -5.509,-1.026c-3.041,0 -10.262,1.329 -10.262,7.791c0,6.081 8.476,6.156 8.476,9.348c0,3.193 -7.603,2.623 -10.111,0.609l-0.912,5.282c0,0 2.736,1.331 6.916,1.331c4.182,0 10.49,-2.166 10.49,-8.057c0,-6.119 -8.55,-6.69 -8.55,-9.35c0,-2.661 5.968,-2.319 8.589,-0.874Z" style="fill:#e1dfd8;fill-rule:nonzero;"/><path d="M39.906,40.139l-2.06,-10.583c0,0 -0.25,-2.119 -2.907,-2.119l-9.658,0l-0.111,0.398c0,0 4.64,0.962 9.092,4.565c4.256,3.446 5.644,7.739 5.644,7.739Z" style="fill:#da9234;fill-rule:nonzero;"/></svg>